<svg width="620" height="467" viewBox="0 0 620 467" fill="none" xmlns="http://www.w3.org/2000/svg">
<g id="jizzax_region">
<g id="regions" filter="url(#filter0_d_156_1922)">
<g id="district6_1">
<mask id="path-1-inside-1_156_1922" fill="white">
<path d="M414.355 76.8454C413.05 76.9454 412.507 77.0074 411.964 77.0164C407.353 77.1164 405.664 78.9214 405.514 83.5904C405.57 86.996 405.366 90.4008 404.904 93.7754C404.266 97.1194 402.351 97.9004 399.004 97.2754C397.022 96.8944 394.926 96.3224 393.004 96.6564C390.182 97.0894 387.448 97.9709 384.904 99.2674C383.761 99.8584 383.351 101.897 382.675 103.316C382.399 103.869 382.408 104.564 382.122 105.107C379.988 109.061 380.988 111.376 385.371 112.729C386.542 113.156 387.69 113.643 388.81 114.187C388.81 116.007 388.686 117.874 388.81 119.703C388.958 120.256 388.888 120.845 388.615 121.348C388.342 121.852 387.887 122.231 387.343 122.409C384.713 123.619 382.443 125.267 381.693 128.402C381.408 129.283 380.811 130.029 380.016 130.502C376.672 132.484 376.205 134.237 378.016 138.467C378.371 139.463 378.671 140.478 378.916 141.506C374.409 141.182 373.361 138.038 371.916 135.294C371.313 133.869 370.508 132.537 369.525 131.34C367.248 129.053 364.825 129.701 364.025 132.807C363.539 134.713 362.796 135.856 360.748 135.599C360.085 135.475 359.473 135.16 358.985 134.694C357.78 133.432 356.307 132.457 354.674 131.842C353.041 131.227 351.291 130.987 349.553 131.14C347.971 131.283 347.647 131.988 347.447 133.398C346.799 137.333 349.447 140.067 350.925 143.135C352.403 146.203 354.793 148.547 356.765 151.243C357.613 152.405 358.404 153.615 359.547 155.292C358.089 155.483 357.222 155.692 356.365 155.702H345.2C340.436 155.702 338.531 157.684 338.531 162.438C338.531 166.382 338.379 170.327 338.588 174.252C338.8 176.771 339.24 179.265 339.903 181.703C340.446 183.894 341.294 186.003 342.171 188.649C339.58 188.42 337.512 188.201 335.445 188.058C333.921 187.958 332.263 187.934 331.929 189.878C331.595 191.822 331.51 193.613 333.444 194.842C334.544 195.474 335.447 196.399 336.051 197.515C336.655 198.631 336.937 199.893 336.864 201.159C336.905 201.794 336.905 202.431 336.864 203.065C336.164 207.438 337.655 211.265 340.075 214.708C341.704 217.033 340.266 218.729 339.351 220.508C338.261 220.622 337.169 220.319 336.293 219.66C334.93 217.588 333.714 215.423 332.654 213.181C330.634 209.37 325.089 208.227 321.897 211.075C320.268 212.523 318.915 212.638 317.524 210.856C317.181 210.418 316.676 210.113 316.362 209.665C313.362 205.482 308.445 204.625 304.176 202.729C303.224 202.292 302.137 202.246 301.151 202.602C300.165 202.959 299.359 203.689 298.907 204.634C297.954 206.54 298.297 208.55 299.288 210.798C301.394 215.562 306.767 215.886 309.835 219.373C313.035 223.022 317.076 225.956 320.906 229.015C323.164 230.66 325.508 232.183 327.928 233.579C329.548 234.608 331.234 235.561 332.828 236.628C335.096 238.133 334.267 240.267 333.876 242.268C327.407 244.307 323.986 240.296 320.795 235.751C318.985 233.188 316.536 232.178 313.678 233.245C311.268 234.198 312.144 236.456 312.725 238.009C313.678 240.709 313.449 243.802 316.536 245.841C318.165 246.918 318.518 249.947 319.394 252.12C320.699 255.397 323.834 254.168 326.12 254.673C329.359 255.378 332.62 257.712 333.285 261.028C333.314 261.434 333.251 261.841 333.101 262.219C332.951 262.596 332.717 262.935 332.418 263.21C329.836 265.182 328.226 267.431 328.512 270.918C328.703 273.271 326.759 274.462 324.987 273.386C322.272 271.738 317.813 272.872 316.26 275.586C315.985 275.982 315.683 276.358 315.355 276.71C313.45 273.528 310.439 273.957 307.476 273.776C305.869 273.566 304.324 273.021 302.941 272.176C299.541 270.376 297.625 270.661 294.747 273.129C293.734 273.726 292.547 273.957 291.384 273.786C288.697 273.643 287.573 274.739 287.84 277.406C287.94 278.683 287.84 279.978 287.84 281.35C283.553 282.531 282.305 278.863 280.151 276.939C278.16 275.167 276.607 272.909 274.616 271.139C273.624 270.341 272.372 269.936 271.1 270.001C268.461 270.211 266.46 269.048 264.564 267.581C259.943 264.081 258.264 264.837 254.617 269.081C252.273 271.796 250.025 273.607 246.271 273.321C243.346 273.092 242.46 274.15 242.098 277.132C241.736 280.114 241.336 283.315 241.098 286.421C240.86 289.527 238.44 289.921 236.334 290.966C234.892 291.814 233.533 292.797 232.275 293.9C231.761 294.291 231.322 295.177 230.875 295.2C225.94 295.438 224.12 300.345 220.233 302.174C217.697 303.558 215.247 305.094 212.897 306.774C211.049 305.135 209.238 303.449 207.323 301.886C206.559 301.299 205.956 300.528 205.569 299.645C205.183 298.762 205.026 297.796 205.113 296.836C205.227 293.768 200.864 290.636 198.12 291.796C197.167 292.215 196.577 293.635 195.367 295.178C193.462 294.654 191.127 293.596 188.698 293.444C186.269 293.292 183.934 294.082 181.381 294.492C180.533 290.824 179.819 287.392 178.913 284.012C178.646 282.775 178.039 281.637 177.16 280.725C174.302 278.238 171.444 275.78 167.26 275.409C164.86 275.19 161.944 275.076 161.42 271.598C161.407 271.554 161.383 271.513 161.352 271.478C161.321 271.443 161.282 271.416 161.239 271.398C157.047 269.607 158.076 266.11 158.266 262.757C158.39 260.575 157.78 258.357 157.866 256.164C157.949 254.953 158.462 253.811 159.314 252.944C160.067 252.293 160.674 251.491 161.095 250.59C161.517 249.688 161.745 248.708 161.763 247.713C162.23 240.767 163.154 233.841 163.802 226.905C163.988 224.868 163.988 222.817 163.802 220.779C163.588 219.982 163.111 219.281 162.449 218.788C159.724 216.654 159.349 214.977 161.496 212.452C162.925 210.813 163.563 208.736 162.506 207.252C161.449 205.768 159.371 204.852 157.552 204.308C155.825 203.903 154.029 203.903 152.302 204.308C150.749 204.608 148.702 205.137 147.957 206.271C146.29 208.843 144.457 208.92 141.84 208.262C140.323 207.966 138.751 208.195 137.381 208.91C133.294 211.082 131.198 210.816 128.254 207.262C127.492 206.309 126.777 205.356 126.082 204.404C123.967 201.441 121.223 201.184 118.46 203.689C117.886 204.397 117.164 204.969 116.345 205.366C114.946 205.654 113.524 205.821 112.096 205.866C112.096 204.323 111.763 202.655 112.229 201.255C113.62 197.044 116.888 193.566 117.145 188.869C117.197 188.417 117.41 187.998 117.745 187.688C122.375 183.877 122.509 178.408 123.261 173.13C123.471 171.625 124.042 170.176 124.376 168.69C124.705 167.655 124.873 166.576 124.876 165.49C124.257 158.821 127.982 153.981 131.841 149.29C132.517 148.452 134.004 148.337 134.909 147.604C138.482 144.746 138.558 140.804 138.225 136.762C137.925 133.103 137.606 129.435 137.158 125.796C136.858 123.357 136.339 120.947 135.858 118.527C135.21 115.221 134.524 111.915 133.829 108.618C132.876 104.312 133.343 99.8054 130.78 95.7274C129.18 93.1834 128.693 89.9064 127.922 86.9144C127.312 84.6144 125.822 83.8144 123.663 83.7994C123.015 83.7994 122.358 83.8564 121.758 83.7994C118.995 83.4994 117.309 84.5904 117.08 87.4384C112.591 88.0694 111.8 87.5074 111.61 83.2574C111.276 77.2554 111 71.3394 111 65.4224C111 57.8954 111.267 50.3594 111.534 42.8324C111.534 42.2894 112.487 41.4034 113.125 41.3274C116.936 40.8274 120.747 40.5274 124.634 40.1174C126.911 39.8794 128.293 38.9074 128.302 36.2494C128.302 32.6674 128.674 29.0844 128.893 25.3214C129.632 25.2047 130.375 25.1253 131.122 25.0834C150.234 24.8834 169.346 24.6074 188.468 24.5834C194.346 24.5834 200.215 25.4404 206.103 25.5364C210.524 25.6364 214.973 24.9934 219.441 25.0984C225.605 25.2414 231.751 25.9174 237.915 26.1084C241.315 26.2084 244.737 25.6514 248.148 25.6514C250.053 25.6514 251.959 26.2424 253.864 26.4234C259.664 26.9664 265.411 26.8714 271.013 25.0894C273.262 24.3844 275.634 24.0514 277.873 23.3264C279.922 22.6036 281.934 21.7779 283.9 20.8524C284.557 20.5524 285.215 19.6234 285.729 19.7184C291.303 20.8334 295.466 16.6314 300.629 15.9074C305.088 15.2504 309.337 15.4594 313.729 15.4594C319.198 15.4594 324.686 14.5544 330.145 13.8684C331.314 13.6544 332.388 13.0856 333.222 12.2394C334.944 10.4774 336.8 10.7914 338.45 11.9544C342.539 14.9155 347.203 16.9864 352.141 18.0334C354.785 18.758 357.297 19.8997 359.582 21.4154C363.282 23.6444 366.682 23.5974 369.634 20.3764C371.425 18.4134 373.159 17.9764 375.503 18.9764C376.243 19.3382 377.063 19.5022 377.885 19.4524C380.01 19.0994 381.305 20.3004 382.296 21.7584C384.202 24.5404 385.869 27.4744 387.631 30.3334C387.907 30.6918 388.096 31.1094 388.184 31.5534C388.422 37.0314 388.613 42.5104 388.803 47.9884C388.855 48.8259 388.855 49.6659 388.803 50.5034C388.619 51.7167 388.87 52.9559 389.512 54.002C390.153 55.0481 391.144 55.8335 392.309 56.2194C393.703 56.7457 395.245 56.7282 396.627 56.1703C398.009 55.6125 399.131 54.5552 399.769 53.2084C400.012 52.4861 400.465 51.8532 401.072 51.3913C401.678 50.9294 402.408 50.6599 403.169 50.6174C405.532 50.2844 407.752 49.3174 408.39 46.2064C408.771 44.3774 410.429 42.8144 411.534 41.1564C411.667 40.9564 412.115 40.7184 412.234 40.7944C414.473 42.1854 417.341 43.1664 418.734 45.1674C420.127 47.1684 418.372 49.4454 415.657 49.0834C410.388 48.3784 408.711 52.8944 405.834 55.5244C404.414 56.8244 406.015 60.9834 407.616 62.4894C408.471 63.4404 409.083 64.5849 409.398 65.8244C409.674 66.6624 409.341 67.6824 409.484 68.5874C409.817 70.7784 409.646 73.1794 412.152 74.4564C412.859 74.8354 413.336 75.7014 414.355 76.8454Z"/>
</mask>
<path d="M414.355 76.8454C413.05 76.9454 412.507 77.0074 411.964 77.0164C407.353 77.1164 405.664 78.9214 405.514 83.5904C405.57 86.996 405.366 90.4008 404.904 93.7754C404.266 97.1194 402.351 97.9004 399.004 97.2754C397.022 96.8944 394.926 96.3224 393.004 96.6564C390.182 97.0894 387.448 97.9709 384.904 99.2674C383.761 99.8584 383.351 101.897 382.675 103.316C382.399 103.869 382.408 104.564 382.122 105.107C379.988 109.061 380.988 111.376 385.371 112.729C386.542 113.156 387.69 113.643 388.81 114.187C388.81 116.007 388.686 117.874 388.81 119.703C388.958 120.256 388.888 120.845 388.615 121.348C388.342 121.852 387.887 122.231 387.343 122.409C384.713 123.619 382.443 125.267 381.693 128.402C381.408 129.283 380.811 130.029 380.016 130.502C376.672 132.484 376.205 134.237 378.016 138.467C378.371 139.463 378.671 140.478 378.916 141.506C374.409 141.182 373.361 138.038 371.916 135.294C371.313 133.869 370.508 132.537 369.525 131.34C367.248 129.053 364.825 129.701 364.025 132.807C363.539 134.713 362.796 135.856 360.748 135.599C360.085 135.475 359.473 135.16 358.985 134.694C357.78 133.432 356.307 132.457 354.674 131.842C353.041 131.227 351.291 130.987 349.553 131.14C347.971 131.283 347.647 131.988 347.447 133.398C346.799 137.333 349.447 140.067 350.925 143.135C352.403 146.203 354.793 148.547 356.765 151.243C357.613 152.405 358.404 153.615 359.547 155.292C358.089 155.483 357.222 155.692 356.365 155.702H345.2C340.436 155.702 338.531 157.684 338.531 162.438C338.531 166.382 338.379 170.327 338.588 174.252C338.8 176.771 339.24 179.265 339.903 181.703C340.446 183.894 341.294 186.003 342.171 188.649C339.58 188.42 337.512 188.201 335.445 188.058C333.921 187.958 332.263 187.934 331.929 189.878C331.595 191.822 331.51 193.613 333.444 194.842C334.544 195.474 335.447 196.399 336.051 197.515C336.655 198.631 336.937 199.893 336.864 201.159C336.905 201.794 336.905 202.431 336.864 203.065C336.164 207.438 337.655 211.265 340.075 214.708C341.704 217.033 340.266 218.729 339.351 220.508C338.261 220.622 337.169 220.319 336.293 219.66C334.93 217.588 333.714 215.423 332.654 213.181C330.634 209.37 325.089 208.227 321.897 211.075C320.268 212.523 318.915 212.638 317.524 210.856C317.181 210.418 316.676 210.113 316.362 209.665C313.362 205.482 308.445 204.625 304.176 202.729C303.224 202.292 302.137 202.246 301.151 202.602C300.165 202.959 299.359 203.689 298.907 204.634C297.954 206.54 298.297 208.55 299.288 210.798C301.394 215.562 306.767 215.886 309.835 219.373C313.035 223.022 317.076 225.956 320.906 229.015C323.164 230.66 325.508 232.183 327.928 233.579C329.548 234.608 331.234 235.561 332.828 236.628C335.096 238.133 334.267 240.267 333.876 242.268C327.407 244.307 323.986 240.296 320.795 235.751C318.985 233.188 316.536 232.178 313.678 233.245C311.268 234.198 312.144 236.456 312.725 238.009C313.678 240.709 313.449 243.802 316.536 245.841C318.165 246.918 318.518 249.947 319.394 252.12C320.699 255.397 323.834 254.168 326.12 254.673C329.359 255.378 332.62 257.712 333.285 261.028C333.314 261.434 333.251 261.841 333.101 262.219C332.951 262.596 332.717 262.935 332.418 263.21C329.836 265.182 328.226 267.431 328.512 270.918C328.703 273.271 326.759 274.462 324.987 273.386C322.272 271.738 317.813 272.872 316.26 275.586C315.985 275.982 315.683 276.358 315.355 276.71C313.45 273.528 310.439 273.957 307.476 273.776C305.869 273.566 304.324 273.021 302.941 272.176C299.541 270.376 297.625 270.661 294.747 273.129C293.734 273.726 292.547 273.957 291.384 273.786C288.697 273.643 287.573 274.739 287.84 277.406C287.94 278.683 287.84 279.978 287.84 281.35C283.553 282.531 282.305 278.863 280.151 276.939C278.16 275.167 276.607 272.909 274.616 271.139C273.624 270.341 272.372 269.936 271.1 270.001C268.461 270.211 266.46 269.048 264.564 267.581C259.943 264.081 258.264 264.837 254.617 269.081C252.273 271.796 250.025 273.607 246.271 273.321C243.346 273.092 242.46 274.15 242.098 277.132C241.736 280.114 241.336 283.315 241.098 286.421C240.86 289.527 238.44 289.921 236.334 290.966C234.892 291.814 233.533 292.797 232.275 293.9C231.761 294.291 231.322 295.177 230.875 295.2C225.94 295.438 224.12 300.345 220.233 302.174C217.697 303.558 215.247 305.094 212.897 306.774C211.049 305.135 209.238 303.449 207.323 301.886C206.559 301.299 205.956 300.528 205.569 299.645C205.183 298.762 205.026 297.796 205.113 296.836C205.227 293.768 200.864 290.636 198.12 291.796C197.167 292.215 196.577 293.635 195.367 295.178C193.462 294.654 191.127 293.596 188.698 293.444C186.269 293.292 183.934 294.082 181.381 294.492C180.533 290.824 179.819 287.392 178.913 284.012C178.646 282.775 178.039 281.637 177.16 280.725C174.302 278.238 171.444 275.78 167.26 275.409C164.86 275.19 161.944 275.076 161.42 271.598C161.407 271.554 161.383 271.513 161.352 271.478C161.321 271.443 161.282 271.416 161.239 271.398C157.047 269.607 158.076 266.11 158.266 262.757C158.39 260.575 157.78 258.357 157.866 256.164C157.949 254.953 158.462 253.811 159.314 252.944C160.067 252.293 160.674 251.491 161.095 250.59C161.517 249.688 161.745 248.708 161.763 247.713C162.23 240.767 163.154 233.841 163.802 226.905C163.988 224.868 163.988 222.817 163.802 220.779C163.588 219.982 163.111 219.281 162.449 218.788C159.724 216.654 159.349 214.977 161.496 212.452C162.925 210.813 163.563 208.736 162.506 207.252C161.449 205.768 159.371 204.852 157.552 204.308C155.825 203.903 154.029 203.903 152.302 204.308C150.749 204.608 148.702 205.137 147.957 206.271C146.29 208.843 144.457 208.92 141.84 208.262C140.323 207.966 138.751 208.195 137.381 208.91C133.294 211.082 131.198 210.816 128.254 207.262C127.492 206.309 126.777 205.356 126.082 204.404C123.967 201.441 121.223 201.184 118.46 203.689C117.886 204.397 117.164 204.969 116.345 205.366C114.946 205.654 113.524 205.821 112.096 205.866C112.096 204.323 111.763 202.655 112.229 201.255C113.62 197.044 116.888 193.566 117.145 188.869C117.197 188.417 117.41 187.998 117.745 187.688C122.375 183.877 122.509 178.408 123.261 173.13C123.471 171.625 124.042 170.176 124.376 168.69C124.705 167.655 124.873 166.576 124.876 165.49C124.257 158.821 127.982 153.981 131.841 149.29C132.517 148.452 134.004 148.337 134.909 147.604C138.482 144.746 138.558 140.804 138.225 136.762C137.925 133.103 137.606 129.435 137.158 125.796C136.858 123.357 136.339 120.947 135.858 118.527C135.21 115.221 134.524 111.915 133.829 108.618C132.876 104.312 133.343 99.8054 130.78 95.7274C129.18 93.1834 128.693 89.9064 127.922 86.9144C127.312 84.6144 125.822 83.8144 123.663 83.7994C123.015 83.7994 122.358 83.8564 121.758 83.7994C118.995 83.4994 117.309 84.5904 117.08 87.4384C112.591 88.0694 111.8 87.5074 111.61 83.2574C111.276 77.2554 111 71.3394 111 65.4224C111 57.8954 111.267 50.3594 111.534 42.8324C111.534 42.2894 112.487 41.4034 113.125 41.3274C116.936 40.8274 120.747 40.5274 124.634 40.1174C126.911 39.8794 128.293 38.9074 128.302 36.2494C128.302 32.6674 128.674 29.0844 128.893 25.3214C129.632 25.2047 130.375 25.1253 131.122 25.0834C150.234 24.8834 169.346 24.6074 188.468 24.5834C194.346 24.5834 200.215 25.4404 206.103 25.5364C210.524 25.6364 214.973 24.9934 219.441 25.0984C225.605 25.2414 231.751 25.9174 237.915 26.1084C241.315 26.2084 244.737 25.6514 248.148 25.6514C250.053 25.6514 251.959 26.2424 253.864 26.4234C259.664 26.9664 265.411 26.8714 271.013 25.0894C273.262 24.3844 275.634 24.0514 277.873 23.3264C279.922 22.6036 281.934 21.7779 283.9 20.8524C284.557 20.5524 285.215 19.6234 285.729 19.7184C291.303 20.8334 295.466 16.6314 300.629 15.9074C305.088 15.2504 309.337 15.4594 313.729 15.4594C319.198 15.4594 324.686 14.5544 330.145 13.8684C331.314 13.6544 332.388 13.0856 333.222 12.2394C334.944 10.4774 336.8 10.7914 338.45 11.9544C342.539 14.9155 347.203 16.9864 352.141 18.0334C354.785 18.758 357.297 19.8997 359.582 21.4154C363.282 23.6444 366.682 23.5974 369.634 20.3764C371.425 18.4134 373.159 17.9764 375.503 18.9764C376.243 19.3382 377.063 19.5022 377.885 19.4524C380.01 19.0994 381.305 20.3004 382.296 21.7584C384.202 24.5404 385.869 27.4744 387.631 30.3334C387.907 30.6918 388.096 31.1094 388.184 31.5534C388.422 37.0314 388.613 42.5104 388.803 47.9884C388.855 48.8259 388.855 49.6659 388.803 50.5034C388.619 51.7167 388.87 52.9559 389.512 54.002C390.153 55.0481 391.144 55.8335 392.309 56.2194C393.703 56.7457 395.245 56.7282 396.627 56.1703C398.009 55.6125 399.131 54.5552 399.769 53.2084C400.012 52.4861 400.465 51.8532 401.072 51.3913C401.678 50.9294 402.408 50.6599 403.169 50.6174C405.532 50.2844 407.752 49.3174 408.39 46.2064C408.771 44.3774 410.429 42.8144 411.534 41.1564C411.667 40.9564 412.115 40.7184 412.234 40.7944C414.473 42.1854 417.341 43.1664 418.734 45.1674C420.127 47.1684 418.372 49.4454 415.657 49.0834C410.388 48.3784 408.711 52.8944 405.834 55.5244C404.414 56.8244 406.015 60.9834 407.616 62.4894C408.471 63.4404 409.083 64.5849 409.398 65.8244C409.674 66.6624 409.341 67.6824 409.484 68.5874C409.817 70.7784 409.646 73.1794 412.152 74.4564C412.859 74.8354 413.336 75.7014 414.355 76.8454Z" fill="#BFE2C8" stroke="white" stroke-width="2" mask="url(#path-1-inside-1_156_1922)"/>
</g>
<path id="district6_8" d="M420.358 261.226C419.261 261.264 418.188 261.314 417.133 261.363C414.117 261.502 411.245 261.635 408.373 261.487L408.372 261.487C407.602 261.449 406.715 261.655 405.837 262.001C404.952 262.35 404.043 262.855 403.218 263.449C402.395 264.043 401.642 264.736 401.081 265.47C400.524 266.197 400.126 267.004 400.083 267.819L400.082 267.832V267.845V270.071C400.054 272.141 399.56 273.909 398.605 275.249C397.657 276.581 396.227 277.529 394.245 277.92L394.243 277.921C392.035 278.365 389.519 277.745 387.052 277.138C386.893 277.099 386.733 277.06 386.574 277.021C386.25 276.94 386.067 276.82 385.966 276.71C385.87 276.606 385.823 276.484 385.82 276.336C385.814 276.011 386.026 275.537 386.511 275.077C388.54 273.153 389.626 271.335 389.311 269.502C389.013 267.768 387.493 266.246 384.972 264.753C385.133 264.119 385.298 263.476 385.464 262.826C385.959 260.894 386.469 258.905 386.94 256.911L386.94 256.91C387.013 256.597 387.096 256.28 387.181 255.955L387.191 255.917C387.272 255.606 387.356 255.288 387.432 254.969C387.589 254.308 387.721 253.621 387.742 252.939C387.785 251.538 387.36 250.171 385.872 249.026L385.845 249.005L385.815 248.988C384.68 248.34 383.475 247.825 382.223 247.453C382.19 247.091 382.156 246.725 382.122 246.356C381.909 244.031 381.683 241.563 381.502 239.049C381.484 238.467 381.576 237.887 381.773 237.34L381.777 237.33L381.78 237.32C382.034 236.514 382.267 235.705 382.497 234.903C383.148 232.637 383.785 230.422 384.867 228.445L384.87 228.439L384.873 228.432C386.217 225.799 386.772 222.834 386.471 219.894C386.48 219.077 386.211 218.281 385.708 217.636L385.679 217.6L385.644 217.569C383.381 215.576 382.347 213.399 382.038 211.072C381.726 208.723 382.149 206.192 382.863 203.495L382.866 203.486L382.868 203.476C383.305 201.518 384.038 199.638 385.042 197.9L385.053 197.881L385.062 197.861C385.395 197.144 385.996 196.588 386.736 196.311C387.476 196.034 388.295 196.06 389.016 196.382L389.032 196.39L389.048 196.396C390.88 197.066 392.323 196.938 393.542 196.264C394.715 195.615 395.622 194.488 396.471 193.295C396.975 192.738 397.526 192.223 398.116 191.757C398.575 192.69 398.838 193.457 398.862 194.172C398.89 194.984 398.612 195.797 397.794 196.766L397.793 196.766C396.151 198.72 395.775 201.75 396.15 204.681C396.527 207.624 397.677 210.608 399.263 212.559C400.764 214.459 402.2 216.141 404.563 216.877L404.586 216.884L404.609 216.889C405.765 217.132 406.97 216.922 407.974 216.302L407.975 216.302L407.979 216.298C408.738 215.818 409.426 215.199 410.075 214.616C410.198 214.505 410.319 214.396 410.439 214.29C411.213 213.603 411.948 213.006 412.774 212.659C413.996 212.149 415.039 212.287 415.824 212.82C416.62 213.361 417.22 214.359 417.429 215.698C417.614 217.707 418.048 219.685 418.722 221.587L418.727 221.602L418.734 221.618C419.005 222.248 419.603 222.7 420.171 223.046C420.466 223.226 420.777 223.391 421.073 223.545C421.124 223.572 421.175 223.598 421.225 223.624C421.469 223.75 421.698 223.869 421.909 223.989L421.911 223.99C422.893 224.543 423.924 225.029 425.109 225.588C425.475 225.76 425.857 225.94 426.256 226.131C425.72 226.709 425.196 227.273 424.681 227.828C423.029 229.606 421.472 231.283 419.945 232.986C417.808 235.37 415.622 237.852 413.549 240.356C412.672 241.41 412.218 242.495 412.268 243.627C412.317 244.752 412.862 245.834 413.797 246.894L413.797 246.894C416.71 250.195 419.082 253.667 419.131 258.227C419.108 258.846 419.353 259.404 419.646 259.952C419.755 260.155 419.87 260.357 419.989 260.567C420.107 260.775 420.231 260.991 420.358 261.226Z" fill="#BFE2C8" stroke="white"/>
<path id="district6_9" d="M381.3 213.531C382.034 214.681 382.875 215.437 383.624 216.112C383.918 216.377 384.197 216.629 384.451 216.887C384.957 217.401 385.404 217.969 385.757 218.756C386.112 219.547 386.382 220.582 386.502 222.041L386.518 222.235L386.66 222.367C387.001 222.682 387.153 223.124 387.144 223.709C387.136 224.305 386.96 225.001 386.694 225.741C386.431 226.472 386.094 227.209 385.78 227.895L385.775 227.906L385.768 227.923C385.464 228.587 385.17 229.229 385.027 229.725L385.027 229.726C384.88 230.244 384.67 230.751 384.44 231.28C384.401 231.369 384.362 231.458 384.323 231.548C384.131 231.984 383.932 232.438 383.765 232.902C382.602 235.692 381.62 238.553 380.823 241.469L380.82 241.482L380.817 241.495C380.576 242.606 380.544 243.75 380.574 244.875C380.588 245.413 380.617 245.952 380.646 246.482L380.65 246.558C380.68 247.116 380.708 247.663 380.72 248.205L380.727 248.55L381.053 248.665C381.675 248.885 382.238 249.376 382.739 250.072C383.238 250.766 383.651 251.629 383.983 252.532C384.537 254.042 384.845 255.606 384.961 256.548C384.717 256.572 384.489 256.597 384.271 256.62C383.195 256.733 382.378 256.819 381.116 256.729C379.423 256.609 376.946 256.168 372.116 255.014L372.077 255.004L372.037 255.001C368.929 254.773 366.296 255.13 364.119 256.299C362.024 257.426 360.406 259.277 359.193 261.956C358.868 261.966 358.567 262.092 358.319 262.233C357.964 262.435 357.615 262.728 357.321 262.977L357.289 263.003C356.962 263.278 356.711 263.484 356.502 263.589C356.415 263.632 356.367 263.641 356.35 263.642C356.348 263.641 356.347 263.64 356.345 263.638L356.179 263.48L355.95 263.502C354.841 263.613 353.854 263.278 352.91 262.715C352.108 262.237 351.37 261.617 350.623 260.99C350.476 260.867 350.33 260.744 350.182 260.621C349.309 259.897 348.387 259.183 347.395 258.876C346.348 258.553 345.263 258.692 344.126 259.558L344.125 259.559C343.654 259.919 343.213 260.401 342.805 260.876C342.673 261.029 342.546 261.179 342.422 261.327C342.146 261.655 341.882 261.968 341.613 262.253C341.222 262.667 340.876 262.958 340.559 263.099C340.276 263.226 340.029 263.229 339.751 263.068L339.749 263.066C339.132 262.713 338.573 262.406 338.057 262.123C335.912 260.948 334.516 260.183 332.887 258.184L332.874 258.168L332.86 258.153C332.288 257.56 331.312 256.939 330.349 256.326C330.287 256.287 330.225 256.247 330.164 256.208C329.104 255.533 328.057 254.85 327.353 254.146L327.265 254.058L327.146 254.022C326.934 253.957 326.715 253.75 326.487 253.308C326.263 252.874 326.084 252.321 325.887 251.716L325.884 251.705C325.695 251.124 325.49 250.492 325.219 249.975C324.951 249.463 324.562 248.954 323.947 248.777C322.689 248.412 321.985 247.621 321.471 246.608C321.21 246.093 321.002 245.526 320.797 244.928C320.752 244.795 320.706 244.661 320.66 244.525C320.503 244.058 320.341 243.576 320.157 243.117L320.157 243.116C319.788 242.199 319.37 241.312 318.916 240.441L318.915 240.44C318.653 239.942 318.367 239.454 318.088 238.978C317.995 238.82 317.904 238.664 317.814 238.509C317.452 237.883 317.113 237.269 316.838 236.63C316.45 235.553 316.123 234.455 315.859 233.342C316.538 233.148 317.069 233.099 317.521 233.211C318.04 233.34 318.548 233.708 319.083 234.567C319.686 235.535 320.456 236.422 321.233 237.274C321.397 237.453 321.56 237.63 321.723 237.806C322.343 238.479 322.951 239.139 323.498 239.833L323.498 239.833C325.087 241.851 327.003 242.513 328.976 242.672C329.95 242.751 330.941 242.708 331.906 242.651C332.07 242.641 332.233 242.631 332.396 242.62C333.196 242.571 333.974 242.522 334.738 242.53H334.743C335.316 242.53 335.793 242.322 336.134 241.935C336.461 241.564 336.625 241.071 336.683 240.556C336.797 239.53 336.511 238.249 335.951 237.071L335.948 237.063L335.944 237.056C335.54 236.275 335.235 235.884 334.804 235.578C334.629 235.453 334.437 235.345 334.24 235.235C334.216 235.221 334.192 235.208 334.168 235.195C333.939 235.066 333.673 234.913 333.339 234.689C332.121 233.862 330.942 233.07 329.776 232.287C327.622 230.839 325.515 229.423 323.292 227.88C321.478 226.524 320.252 225.328 318.861 223.971C318.207 223.333 317.516 222.66 316.712 221.918L316.705 221.912L316.698 221.906C316.026 221.329 314.725 220.485 313.421 219.64C313.295 219.558 313.169 219.476 313.043 219.395C311.583 218.446 310.2 217.531 309.569 216.929C308.676 216.027 307.654 214.631 306.855 213.26C306.455 212.576 306.118 211.909 305.882 211.324C305.641 210.726 305.526 210.263 305.526 209.97V209.648L305.233 209.515C304.548 209.202 303.919 208.531 303.343 207.651C302.774 206.781 302.295 205.766 301.883 204.841C301.554 204.103 301.753 203.516 302.174 203.167C302.617 202.8 303.393 202.628 304.31 202.969L381.3 213.531ZM381.3 213.531C380.479 214.158 379.641 214.751 378.827 215.326C378.249 215.736 377.683 216.136 377.144 216.534C375.69 217.607 374.387 218.692 373.365 219.988C372.655 220.964 371.797 221.383 370.901 221.661C370.591 221.757 370.263 221.84 369.94 221.921C369.811 221.954 369.683 221.986 369.558 222.019C369.106 222.137 368.653 222.27 368.192 222.462C366.114 223.327 364.594 223.331 362.436 222.996C359.515 222.693 357.949 222.548 355.019 222.5C354.505 222.546 353.692 222.506 352.916 222.415C352.134 222.323 351.3 222.17 350.805 221.96L350.771 221.946L350.74 221.927C349.915 221.425 348.952 221.299 347.865 221.372C346.961 221.432 346.019 221.626 345.036 221.827C344.826 221.87 344.615 221.914 344.401 221.956C342.056 222.424 339.441 222.811 337.52 220.751L337.52 220.75C337.146 220.348 336.658 220.031 336.109 219.674C336.051 219.637 335.993 219.599 335.934 219.561C335.344 219.175 334.69 218.729 334.246 218.097L334.241 218.089L334.236 218.081C332.925 216.052 331.742 213.944 330.694 211.767C330.022 210.515 329.095 209.865 328.083 209.697C327.054 209.525 325.85 209.836 324.624 210.685M381.3 213.531L324.624 210.685M324.624 210.685C322.957 211.839 321.477 212.58 320.111 212.597C318.682 212.615 317.507 211.851 316.46 210.342C313.695 206.429 309.489 204.878 305.144 203.277C304.866 203.175 304.588 203.072 304.31 202.969L324.624 210.685Z" fill="#BFE2C8" stroke="white"/>
<path id="district6_11" d="M426.096 198.886C424.266 198.4 423.009 197.495 423.085 195.227C423.162 193.109 423.153 190.985 423.143 188.861C423.135 186.895 423.126 184.929 423.185 182.965L426.096 198.886ZM426.096 198.886C427.251 199.187 428.418 199.448 429.585 199.709C431.077 200.042 432.568 200.375 434.032 200.792M426.096 198.886L434.032 200.792M434.032 200.792C434.809 200.955 435.497 201.402 435.962 202.045C436.427 202.688 436.635 203.481 436.547 204.27M434.032 200.792L436.547 204.27M436.547 204.27C436.475 207.101 436.532 209.937 436.589 212.77C436.611 213.866 436.633 214.961 436.647 216.055M436.547 204.27L436.647 216.817M436.647 216.817C436.736 216.716 436.707 216.526 436.677 216.334C436.662 216.238 436.647 216.141 436.647 216.055M436.647 216.817C436.161 217.389 435.677 217.964 435.192 218.539C433.153 220.96 431.111 223.384 428.901 225.639L436.647 216.817ZM436.647 216.055H436.147C436.147 216.056 436.147 216.057 436.147 216.059M436.647 216.055L436.147 216.062C436.147 216.061 436.147 216.06 436.147 216.059M436.147 216.059C436.148 216.16 436.16 216.258 436.171 216.333C436.184 216.423 436.193 216.472 436.201 216.535C436.202 216.547 436.203 216.557 436.204 216.567M436.147 216.059C436.133 214.973 436.111 213.883 436.089 212.791C436.032 209.954 435.975 207.1 436.048 204.257L436.048 204.236L436.05 204.215C436.125 203.549 435.949 202.881 435.557 202.338C435.164 201.796 434.584 201.419 433.929 201.281L433.912 201.278L433.895 201.273C432.605 200.905 431.291 200.603 429.963 200.305C429.801 200.269 429.639 200.233 429.476 200.197C428.31 199.936 427.134 199.673 425.97 199.37L425.968 199.369C425.017 199.117 424.138 198.737 423.511 198.066C422.868 197.379 422.544 196.446 422.586 195.21L422.586 195.209C422.659 193.182 422.653 191.147 422.644 189.102L422.643 188.86C422.635 186.897 422.626 184.923 422.686 182.95L422.686 182.941L422.687 182.932C422.759 181.842 423.197 180.809 423.93 180L423.933 179.996C425.058 178.777 426.285 177.659 427.635 176.429C427.958 176.135 428.289 175.834 428.626 175.523M436.204 216.567L428.908 175.865C428.852 175.788 428.786 175.709 428.705 175.615L428.683 175.589C428.665 175.568 428.646 175.546 428.626 175.523M436.204 216.567C435.736 217.118 435.27 217.671 434.805 218.223C432.766 220.643 430.739 223.049 428.544 225.289L428.539 225.294C428.489 225.347 428.381 225.415 428.178 225.469C427.981 225.521 427.734 225.549 427.456 225.551C426.899 225.555 426.287 225.456 425.842 225.315C423.85 224.673 422.52 223.575 421.643 222.168C420.759 220.749 420.317 218.982 420.168 216.98C420.089 215.875 419.851 214.863 419.251 214.084C418.636 213.286 417.699 212.806 416.384 212.651C414.69 212.453 412.903 212.26 411.265 212.557C409.594 212.861 408.073 213.675 406.922 215.458C406.175 216.604 405.514 216.795 405.01 216.721C404.427 216.635 403.826 216.171 403.286 215.561C403.13 215.384 402.974 215.209 402.819 215.034C400.348 212.254 397.99 209.601 398.985 205.619L398.989 205.604L398.992 205.588C399.255 204.15 399.725 202.758 400.386 201.454C401.124 200.232 401.586 198.614 401.703 197.033C401.819 195.454 401.596 193.832 400.878 192.647C400.558 192.106 400.002 191.749 399.396 191.544C398.783 191.337 398.073 191.267 397.371 191.333C395.989 191.464 394.485 192.15 393.871 193.593L393.871 193.595C393.419 194.666 392.902 195.321 392.367 195.724C391.836 196.126 391.251 196.307 390.611 196.367C389.959 196.429 389.27 196.366 388.529 196.286C388.474 196.28 388.418 196.274 388.361 196.268C387.781 196.205 387.17 196.139 386.569 196.141C384.457 192.761 384.439 189.132 384.421 185.309C384.42 185.062 384.419 184.813 384.417 184.564C384.417 183.786 384.166 183.04 383.883 182.355C383.772 182.088 383.661 181.837 383.552 181.593C383.367 181.176 383.191 180.781 383.047 180.363L383.046 180.36C382.841 179.777 382.58 179.173 382.327 178.588C382.179 178.243 382.033 177.905 381.903 177.582C381.538 176.676 381.265 175.816 381.226 174.969C381.106 172.011 380.631 170.153 379.374 169.005C378.14 167.877 376.255 167.541 373.693 167.263C372.527 167.134 371.953 166.638 371.064 165.872C370.919 165.746 370.765 165.613 370.598 165.473C369.097 164.194 368.319 162.584 367.646 160.847C367.517 160.515 367.391 160.175 367.264 159.831C366.738 158.412 366.189 156.931 365.295 155.626C364.824 154.932 364.508 154.002 364.5 153.096C364.493 152.197 364.786 151.355 365.492 150.754L365.493 150.754L365.501 150.747C365.851 150.435 366.44 150.269 367.228 150.183C367.61 150.141 368.014 150.121 368.428 150.102C368.474 150.1 368.52 150.098 368.567 150.096C368.93 150.08 369.301 150.064 369.651 150.033C370.556 149.959 371.465 149.941 372.392 149.923C372.694 149.917 372.998 149.911 373.304 149.903C374.538 149.87 375.796 149.806 377.038 149.569C378.092 149.369 378.812 149.626 379.396 150.055C379.888 150.416 380.274 150.887 380.683 151.385C380.794 151.519 380.906 151.655 381.022 151.792C381.302 152.126 381.586 152.45 381.868 152.77C382.628 153.635 383.366 154.476 383.942 155.42C384.71 156.679 385.147 158.068 384.836 159.812C384.802 160 384.853 160.169 384.898 160.277C384.947 160.396 385.017 160.51 385.09 160.611C385.237 160.816 385.436 161.025 385.645 161.209C385.854 161.393 386.091 161.567 386.321 161.693C386.437 161.755 386.561 161.811 386.689 161.848C386.805 161.882 386.958 161.909 387.12 161.881C389.21 161.612 391.23 160.945 393.07 159.918L393.087 159.908L393.104 159.897C394.179 159.18 395.176 158.708 396.114 158.595C397.024 158.484 397.916 158.707 398.823 159.465C402.739 162.743 407.384 163.127 411.875 163.498C412.382 163.54 412.887 163.582 413.389 163.628L413.389 163.628C413.969 163.681 414.548 163.731 415.125 163.781C416.652 163.914 418.169 164.046 419.685 164.218L419.686 164.218C419.908 164.243 420.174 164.301 420.396 164.388C420.507 164.431 420.594 164.477 420.657 164.521C420.688 164.542 420.709 164.561 420.723 164.575C420.736 164.589 420.74 164.597 420.74 164.596L420.741 164.598C421.587 166.149 422.896 167.372 424.135 168.529C424.431 168.806 424.723 169.078 425.004 169.351C426.489 170.793 427.727 172.277 428.05 174.429M436.204 216.567L428.05 174.429M428.626 175.523C428.57 175.457 428.509 175.384 428.452 175.31C428.283 175.091 428.099 174.8 428.05 174.429M428.626 175.523L428.05 174.429" fill="#BFE2C8" stroke="white"/>
<path id="district6_4" d="M458.5 451.5V455L460 455.5H462.5L466 456L470 458.5L472.5 460.5L475 461L481 458.5H483.5L487 460L491.5 461L492.5 458.5L493.5 457.5H495.5L500.5 460L507.5 464L510.5 462.5L512.5 461.5L513.5 459L512.5 457L510 455L509 453L507 447.5V443L507.5 441L510.5 440L515.5 441L517 440.5L518.5 438.5L525.5 430.5L526.5 429V427.5L525 421.5L524 419.5V418.5L524.5 417.5V416.5L521.5 410L521 407L524 401L527.5 394L531.5 387.5L533 383.5L532 382L530 381H527.5L525.5 380.5L524.5 379V376.5L531.5 366.5L532.5 364.5V363L531.5 361.5L527 357.5L520.5 350.5L519 348L519.5 346L521 344L523.5 343H527L529 345L531 347L530.5 344L529.5 343L527.5 340.5L526 338L523.5 331.5V317.5L524.5 307H523L519.5 306.5L515 306L509.5 303.5L505.5 301L503.5 299L503 296.5L504 293.5L505.5 291L510 288L519.5 285L517 279L514.5 274.5V271.5V268L516 265L518.5 263V262L518 260.5H516L513.5 261L509.5 262.5L498.5 262L491.5 260.5L483 259L476 259.5L465 262L461 264V267L461.5 269.5L465.5 277.5V280V281.5V283L465 285L463.5 286.5L460 287V296L462 304.5L463.5 309L465 313.5V315.5L464.5 317L462 318L459 320L454.5 321H451L438 319.5L431 318.5H427.5H425L423.5 318L421 316.5L418 315.5H412V332.5L407.5 340L400.5 354L399 356L396.5 359.5L396 361V362.5L395.5 363.5L388 376.5L394 380.5L397.5 384L401 386.5L404 387.5L406.5 388.5L407.5 389L408.5 390L409.5 391L411 392H415.5H417.5H419.5L422 393.5L430.5 403L433.5 402.5L437 404L441.5 406.5L444.5 408L448.5 408.5L455 411L462.5 415L463.5 416.5L464.5 418V419V420.5L462.5 435.5L461.5 441L461 444L459.5 447.5L458.5 449.5V451.5Z" fill="#BFE2C8" stroke="white" stroke-linejoin="round"/>
<path id="district6_6" d="M529.5 368.5L529 370V370.5L530 371H532.5L535 370.5L541 369H544L545.5 368L546.5 364.5L547.5 362.5L549.5 361.5L553 362.5L556.5 365L558 364H559.5L561.5 363.5L563 361.5V360L562 352.5L561.5 347.5L560.5 342.5L559.5 339V337L560 336L561.5 334.5L565 333.5L569.5 336L571 338L572 342L572.5 345.5L575 351V355L574 359.5L575.5 362L577 362.5L578 361.5L579 359.5L580 356L586 347.5L582 345L579.5 342L577.5 338.5V333L577 328L574.5 323.5L571 317L569 313.5L568 311L567.5 308.5L568 306L571 304L575 303L579.5 304.5L583 308.5L585 308L588 307.5L590.5 308L595 309.5V308L594.5 307L593.5 304.5L594 302L597 297.5L600 295L603 291V288.5L602 286L598.5 288.5L594 289L589 288L585.5 287.5L578.5 291.5L571 295.5L558 300L548.5 303L537 303.5L534.5 305L530.5 306.5H524.5L523.5 309.5L522.5 312.5L522 330L524.5 337L526.5 339L528.5 340.5L529 343.5V348L528 349.5L527 350H525.5L523 348.5L520.5 346H519L518 347.5L521.5 351.5L527 357.5L529 358L530.5 359L531 360V362.5L530.5 366.5L529.5 368.5Z" fill="#BFE2C8" stroke="white" stroke-linejoin="round"/>
<path id="district6_3" d="M300.5 446.5L296 449.5V450L295.5 449.5L290 442.5L285 436L279 432.5L276 431L274.5 428.5L274 423L273 418L273.5 415.5L285.5 405.5L290.5 393.5L299.5 388.5L300.5 385L299.5 381L302 376.5H303L302.5 380L304 384L306 386L311.5 385.5L316.5 383L319.5 379.5V375.5L318.5 372L319 369L321.5 366.5L328 365.5L331.5 363L333 361H338.5L344 360.5L349 359L350.5 361L352.5 362.5L355 362L357 362.5L361.5 367L365.5 371L368.5 372.5L371.5 372H375.5L379.5 373L383 375.5L385.5 377L388.5 377.5L391.5 377L401 385L415 393L419.5 394H423.5L427 395L434 403L436.5 405L444 407L447.5 408.5L451.5 410L455.5 410.5L464 414.5L468 417L469 420.5L467 431L464.5 443L461 453L455.5 454L446.5 453L436.5 451.5L433 453L429.5 454.5L426.5 454L422.5 451.5L418.5 450.5H411L404.5 448.5C401.5 447 395.4 443.8 395 443C394.6 442.2 386.5 441.333 382.5 441L376 438.5L365 431.5C363.667 430.167 360.4 427.2 358 426L352 427.5L347.5 431.5L344.5 429.5L341 428L334.5 428.5L328.5 432L325 436.5L321 440L314 444L308.5 444.5H305.5L300.5 446.5Z" fill="#BFE2C8" stroke="white" stroke-linejoin="round"/>
<path id="district6_2" d="M310 390.5L307.5 391.5H306.5L306 389V385L305.5 381.5L302 381L299 381.5L297.5 385L295.5 386.5L293 385.5L292 383.5L288 377.5L282.5 375.5L277 369L275.5 363.5L272 360L268.5 359.5L264.5 362L262 363H258.5L255.5 362.5L252.5 364L248.5 365L239 364.5L234.5 364L231 360.5H227L222 361L220 360L217 358L213 357.5L210.5 358L208.5 359L206 360L205 357L201.5 346.5L200 344L197.5 343.5L193 342.5L192 341.5L192.5 339.5L194.5 337.5L195 334.5V330.5L194.5 326L193.5 322L192 318L191.5 315L189.5 313.5L186.5 313L184.5 309.5L183 307.5L176.5 304L171 302.5L176.5 298L181.5 296L182 293.5L187.5 292L193 293.5H197L200 290.5L201.5 291.5L202.5 294.5L203 296V297.5L210.5 304.5L213.5 305.5L216 304.5L225.5 298L233.5 293L236 290.5L239.5 289L243 287L244 283.5L244.5 279.5L245 272.5L247.5 272L252 271.5L254.5 269.5L260 264L266.5 268L268.5 269L273 269.5L283.5 280L285.5 280.5L288.5 282.5L293 286L299 288.5L306.5 293.5L313 298.5L318 301L324.5 308L327.5 309L329 313.5L330 315L330.5 318.5L330 324V328.5L331.5 332V334.5L331 337.5L332 340L333.5 342L338 345L342 349L346 350.5L345.5 353.5L345 358L348.5 363L348 364L342.5 366H339.5H334.5H330.5L328.5 368.5L327 371L324 370.5L320 371L317 373.5L315 377.5L315.5 382V385.5L314.5 388L310 390.5Z" fill="#BFE2C8" stroke="white" stroke-linejoin="round"/>
<path id="district6_5" d="M391 383L388.5 384H385.5L381 381.5L375 379H370.5H366.5L362 375L358.5 370.5L355 369L352 368.5L350 367L350.5 364.5L350 362.5L348.5 361L346.5 359L347 357L348 353.5L348.5 351L347.5 349.5L342.5 348L340.5 345L337 343L334 341.5L333 339.5L333.5 336.5L331.5 326.5L332 322.5V318.5L329 309L323.5 305L322 302.5L319 300.5L311.5 296.5L302 288L297 287L295.5 285.5L291 283L289.5 281L289 274.5H292L295 273.5L296.5 272L298 270.5L303 273L306.5 273.5L309 274.5H310.5L313 274L314.5 275.5H316L317.5 274.5L319 273L321.5 274L325 274.5L328.5 273.5L329.5 271L330 268L331.5 264L334.5 262L337 263.5L339.5 264.5H342L345 262L349 261.5L352 263L355.5 264.5L359 265L360.5 264L362 260.5L364.5 258L368.5 257H378.5L384.5 257.5V259.5L383.5 264.5L381.5 271L382.5 273.5L386 275V276L385 277.5L383.5 279L382.5 281L383 284L385.5 286L392 288.5L392.5 294L395 297.5L400.5 300.5L401.5 303L400.5 306L398.5 308.5L398 311L399 313L403 314L406.5 313L409 314L410.5 317L411 321.5L414 326.5V334.5L413.5 340.5L411 344.5L408 349.5L405 358.5L401.5 363L399.5 366.5L398.5 369L394.5 377L393.5 377.5L393 378.5L392.5 381.5L391 383Z" fill="#BFE2C8" stroke="white" stroke-linejoin="round"/>
<path id="district6_7" d="M443 320L453.5 321L456.5 320.5L462.5 318L463 316L460 312.5L459 307L457.5 295.5L458 289.5L459 287H462L463.5 285.5V283L462.5 280.5L461 278L459 275L458.5 273.5L459 271L458.5 268.5L443.5 263L428.5 263.5L417 264L406 265H404.5L402 266L400 267.5L399 270.5L398.5 274.5L397.5 277L396 278.5L393 280.5L391.5 282L391 284V286L394 289.5L398 291.5L400.5 294.5V299L400 301L399 303L397 304.5H397.5L402 306L403 309L405 313.5H408L409 314.5L410 315.5L423.5 316.5L428 319H432.5L443 320Z" fill="#BFE2C8" stroke="white" stroke-linejoin="round"/>
<path id="district6_10" d="M346 221H342.5L342 218.5L340.5 217L339.5 214.5L338 212L339 210L338.5 208.5V206L340 196.5L339 192.5L335 188L341.5 188.5L344 188L342.5 186L340 175.5L339.5 170L340 160L342.5 157L344.5 155.5H356.5H359.5L361.5 154.5L359.5 153L358 151.5L356.5 149L350.5 141L350.69 132.5L351 131H352.5L355 132L358.5 134L360.5 135.5H364L366.5 133L367.5 130L369.5 132.5L371.5 134.5L375.5 141.5L379 148L378.5 149H377H368.5L365.5 150L364 153.5V156L365 160L366 162.5L368.5 165.5L376 170H378L380.5 171V176.835V180L383.5 188L384 192.5L384.5 196L385 199L381 209L366.5 221.5H358.5L350 221H346Z" fill="#BFE2C8" stroke="white" stroke-linejoin="round"/>
<path id="district6_12" d="M438 176.5L437.5 179.5L434.5 177.5L432.5 175L432 172.5L423.5 164L416 163.5L407 162L400 158.5L396 159L390 160L389 161.5H387.5L385 160L383.5 150.5L379 142.5L379.5 141L378 137L377 132L378.5 131.5H380.5L382.5 129.5L384 127L388.5 123L392 120V116.5V113L394.5 114.5L400 117L404.5 119L410 120.5L422 131.5L428.5 138L442 147L445.5 151V154L444 159L441 167L438.5 172L438 176.5Z" fill="#BFE2C8" stroke="white" stroke-linejoin="round"/>
</g>
<g id="titles">
<text id="Forish tumani" fill="white" xml:space="preserve" style="white-space: pre" font-family="Roboto" font-size="16" letter-spacing="0em"><tspan x="183.156" y="142.969">Forish tumani</tspan></text>
<text id="G&#226;&#128;&#153;allaorol tumani" fill="white" xml:space="preserve" style="white-space: pre" font-family="Roboto" font-size="16" letter-spacing="0em"><tspan x="203.094" y="335.969">G&#x2019;allaorol tumani</tspan></text>
<text id="Baxmal tumani" fill="white" xml:space="preserve" style="white-space: pre" font-family="Roboto" font-size="14" letter-spacing="0em"><tspan x="318.304" y="415.785">Baxmal tumani</tspan></text>
<text id="Zomin tumani" fill="white" xml:space="preserve" style="white-space: pre" font-family="Roboto" font-size="14" letter-spacing="0em"><tspan x="423.27" y="369.785">Zomin tumani</tspan></text>
<text id="Jizzax tumani" fill="white" xml:space="preserve" style="white-space: pre" font-family="Roboto" font-size="11" letter-spacing="0em"><tspan x="337.06" y="333.26">Jizzax tumani</tspan></text>
<text id="Zafarobod tumani" transform="translate(331 250.101) rotate(-31.3089)" fill="white" xml:space="preserve" style="white-space: pre" font-family="Roboto" font-size="7" letter-spacing="0em"><tspan x="0.0888672" y="6.39258">Zafarobod tumani</tspan></text>
<text id="Arnasoy tumani" transform="translate(356.56 161.943) rotate(80.2973)" fill="white" xml:space="preserve" style="white-space: pre" font-family="Roboto" font-size="7" letter-spacing="0em"><tspan x="0.0546875" y="6.39258">Arnasoy tumani</tspan></text>
<text id="Mirzacho&#226;&#128;&#152;l tumani" transform="translate(388.557 128.992) rotate(30.1302)" fill="white" xml:space="preserve" style="white-space: pre" font-family="Roboto" font-size="7" letter-spacing="0em"><tspan x="0.48877" y="6.39258">Mirzacho&#x2018;l tumani</tspan></text>
<text id="Do&#226;&#128;&#152;stlik tumani" transform="translate(390.296 165.726) rotate(48.1763)" fill="white" xml:space="preserve" style="white-space: pre" font-family="Roboto" font-size="7" letter-spacing="0em"><tspan x="0.243164" y="6.39258">Do&#x2018;stlik tumani</tspan></text>
<text id="Paxtakor tumani" transform="translate(395.444 206.036) rotate(81.1661)" fill="white" xml:space="preserve" style="white-space: pre" font-family="Roboto" font-size="7" letter-spacing="0em"><tspan x="0.464355" y="6.39258">Paxtakor tumani</tspan></text>
<text id="Zarbdor tumani" transform="translate(414.216 271.463) rotate(47.0139)" fill="white" xml:space="preserve" style="white-space: pre" font-family="Roboto" font-size="7" letter-spacing="0em"><tspan x="0.485352" y="6.39258">Zarbdor tumani</tspan></text>
<text id="Yangiobod tumani" transform="translate(540 358.43) rotate(-72.7279)" fill="white" xml:space="preserve" style="white-space: pre" font-family="Roboto" font-size="7" letter-spacing="0em"><tspan x="0.233398" y="6.39258">Yangiobod tumani</tspan></text>
</g>
<g id="tooltips">
<g id="tooltip6_1">
<path id="Vector 1" d="M263 69H204V156" stroke="#0091FF" stroke-opacity="0.76" stroke-width="2" stroke-dasharray="4 4"/>
<ellipse id="Ellipse 1" cx="204.229" cy="161.553" rx="5.22892" ry="4.55317" fill="#0091FF"/>
<g id="Group 11">
<g id="Rectangle 7" filter="url(#filter1_d_156_1922)">
<rect x="263" y="26" width="289" height="84" rx="12" fill="#0091FF" fill-opacity="0.76" shape-rendering="crispEdges"/>
<rect x="263.5" y="26.5" width="288" height="83" rx="11.5" stroke="#0091FF" stroke-opacity="0.76" shape-rendering="crispEdges"/>
</g>
<g id="Rectangle 8">
<g filter="url(#filter2_i_156_1922)">
<rect x="267" y="13" width="282.361" height="26.4084" rx="12" fill="#1FA2F4"/>
</g>
<rect x="267.5" y="13.5" width="281.361" height="25.4084" rx="11.5" stroke="#0091FF" stroke-opacity="0.76"/>
</g>
<text id="Tuman nomi" fill="black" xml:space="preserve" style="white-space: pre" font-family="Roboto" font-size="18" font-weight="600" letter-spacing="0em"><tspan x="348.077" y="31.6523">Tuman nomi</tspan></text>
<text id="Shaharlar soni: 204" fill="white" xml:space="preserve" style="white-space: pre" font-family="Roboto" font-size="18" font-weight="600" letter-spacing="0em"><tspan x="326" y="65.6523">Shaharlar soni: 204</tspan></text>
<text id="Qishloqlar soni: 507" fill="white" xml:space="preserve" style="white-space: pre" font-family="Roboto" font-size="18" font-weight="600" letter-spacing="0em"><tspan x="325" y="90.6523">Qishloqlar soni: 507</tspan></text>
</g>
</g>
<g id="tooltip6_2">
<path id="Vector 1_2" d="M327 224H268V311" stroke="#0091FF" stroke-opacity="0.76" stroke-width="2" stroke-dasharray="4 4"/>
<ellipse id="Ellipse 1_2" cx="268.229" cy="316.553" rx="5.22892" ry="4.55317" fill="#0091FF"/>
<g id="Group 11_2">
<g id="Rectangle 7_2" filter="url(#filter3_d_156_1922)">
<rect x="327" y="181" width="289" height="84" rx="12" fill="#0091FF" fill-opacity="0.76" shape-rendering="crispEdges"/>
<rect x="327.5" y="181.5" width="288" height="83" rx="11.5" stroke="#0091FF" stroke-opacity="0.76" shape-rendering="crispEdges"/>
</g>
<g id="Rectangle 8_2">
<g filter="url(#filter4_i_156_1922)">
<rect x="331" y="168" width="282.361" height="26.4084" rx="12" fill="#1FA2F4"/>
</g>
<rect x="331.5" y="168.5" width="281.361" height="25.4084" rx="11.5" stroke="#0091FF" stroke-opacity="0.76"/>
</g>
<text id="Tuman nomi_2" fill="black" xml:space="preserve" style="white-space: pre" font-family="Roboto" font-size="18" font-weight="600" letter-spacing="0em"><tspan x="412.077" y="186.652">Tuman nomi</tspan></text>
<text id="Shaharlar soni: 204_2" fill="white" xml:space="preserve" style="white-space: pre" font-family="Roboto" font-size="18" font-weight="600" letter-spacing="0em"><tspan x="390" y="220.652">Shaharlar soni: 204</tspan></text>
<text id="Qishloqlar soni: 507_2" fill="white" xml:space="preserve" style="white-space: pre" font-family="Roboto" font-size="18" font-weight="600" letter-spacing="0em"><tspan x="389" y="245.652">Qishloqlar soni: 507</tspan></text>
</g>
</g>
<g id="tooltip6_3">
<path id="Vector 1_3" d="M325 333H384V420" stroke="#0091FF" stroke-opacity="0.76" stroke-width="2" stroke-dasharray="4 4"/>
<ellipse id="Ellipse 1_3" cx="384.229" cy="424.553" rx="5.22892" ry="4.55317" fill="#0091FF"/>
<g id="Group 11_3">
<g id="Rectangle 7_3" filter="url(#filter5_d_156_1922)">
<rect x="36" y="292" width="289" height="84" rx="12" fill="#0091FF" fill-opacity="0.76" shape-rendering="crispEdges"/>
<rect x="36.5" y="292.5" width="288" height="83" rx="11.5" stroke="#0091FF" stroke-opacity="0.76" shape-rendering="crispEdges"/>
</g>
<g id="Rectangle 8_3">
<g filter="url(#filter6_i_156_1922)">
<rect x="40" y="279" width="282.361" height="26.4084" rx="12" fill="#1FA2F4"/>
</g>
<rect x="40.5" y="279.5" width="281.361" height="25.4084" rx="11.5" stroke="#0091FF" stroke-opacity="0.76"/>
</g>
<text id="Tuman nomi_3" fill="black" xml:space="preserve" style="white-space: pre" font-family="Roboto" font-size="18" font-weight="600" letter-spacing="0em"><tspan x="121.077" y="297.652">Tuman nomi</tspan></text>
<text id="Shaharlar soni: 204_3" fill="white" xml:space="preserve" style="white-space: pre" font-family="Roboto" font-size="18" font-weight="600" letter-spacing="0em"><tspan x="99" y="331.652">Shaharlar soni: 204</tspan></text>
<text id="Qishloqlar soni: 507_3" fill="white" xml:space="preserve" style="white-space: pre" font-family="Roboto" font-size="18" font-weight="600" letter-spacing="0em"><tspan x="98" y="356.652">Qishloqlar soni: 507</tspan></text>
</g>
</g>
<g id="tooltip6_4">
<path id="Vector 1_4" d="M413 261H472V348" stroke="#0091FF" stroke-opacity="0.76" stroke-width="2" stroke-dasharray="4 4"/>
<ellipse id="Ellipse 1_4" cx="472.229" cy="352.553" rx="5.22892" ry="4.55317" fill="#0091FF"/>
<g id="Group 11_4">
<g id="Rectangle 7_4" filter="url(#filter7_d_156_1922)">
<rect x="124" y="220" width="289" height="84" rx="12" fill="#0091FF" fill-opacity="0.76" shape-rendering="crispEdges"/>
<rect x="124.5" y="220.5" width="288" height="83" rx="11.5" stroke="#0091FF" stroke-opacity="0.76" shape-rendering="crispEdges"/>
</g>
<g id="Rectangle 8_4">
<g filter="url(#filter8_i_156_1922)">
<rect x="128" y="207" width="282.361" height="26.4084" rx="12" fill="#1FA2F4"/>
</g>
<rect x="128.5" y="207.5" width="281.361" height="25.4084" rx="11.5" stroke="#0091FF" stroke-opacity="0.76"/>
</g>
<text id="Tuman nomi_4" fill="black" xml:space="preserve" style="white-space: pre" font-family="Roboto" font-size="18" font-weight="600" letter-spacing="0em"><tspan x="209.077" y="225.652">Tuman nomi</tspan></text>
<text id="Shaharlar soni: 204_4" fill="white" xml:space="preserve" style="white-space: pre" font-family="Roboto" font-size="18" font-weight="600" letter-spacing="0em"><tspan x="187" y="259.652">Shaharlar soni: 204</tspan></text>
<text id="Qishloqlar soni: 507_4" fill="white" xml:space="preserve" style="white-space: pre" font-family="Roboto" font-size="18" font-weight="600" letter-spacing="0em"><tspan x="186" y="284.652">Qishloqlar soni: 507</tspan></text>
</g>
</g>
<g id="tooltip6_5">
<path id="Vector 1_5" d="M293 220H352V307" stroke="#0091FF" stroke-opacity="0.76" stroke-width="2" stroke-dasharray="4 4"/>
<ellipse id="Ellipse 1_5" cx="352.229" cy="311.553" rx="5.22892" ry="4.55317" fill="#0091FF"/>
<g id="Group 11_5">
<g id="Rectangle 7_5" filter="url(#filter9_d_156_1922)">
<rect x="4" y="179" width="289" height="84" rx="12" fill="#0091FF" fill-opacity="0.76" shape-rendering="crispEdges"/>
<rect x="4.5" y="179.5" width="288" height="83" rx="11.5" stroke="#0091FF" stroke-opacity="0.76" shape-rendering="crispEdges"/>
</g>
<g id="Rectangle 8_5">
<g filter="url(#filter10_i_156_1922)">
<rect x="8" y="166" width="282.361" height="26.4084" rx="12" fill="#1FA2F4"/>
</g>
<rect x="8.5" y="166.5" width="281.361" height="25.4084" rx="11.5" stroke="#0091FF" stroke-opacity="0.76"/>
</g>
<text id="Tuman nomi_5" fill="black" xml:space="preserve" style="white-space: pre" font-family="Roboto" font-size="18" font-weight="600" letter-spacing="0em"><tspan x="89.0771" y="184.652">Tuman nomi</tspan></text>
<text id="Shaharlar soni: 204_5" fill="white" xml:space="preserve" style="white-space: pre" font-family="Roboto" font-size="18" font-weight="600" letter-spacing="0em"><tspan x="67" y="218.652">Shaharlar soni: 204</tspan></text>
<text id="Qishloqlar soni: 507_5" fill="white" xml:space="preserve" style="white-space: pre" font-family="Roboto" font-size="18" font-weight="600" letter-spacing="0em"><tspan x="66" y="243.652">Qishloqlar soni: 507</tspan></text>
</g>
</g>
<g id="tooltip6_6">
<path id="Vector 1_6" d="M488 235H547V322" stroke="#0091FF" stroke-opacity="0.76" stroke-width="2" stroke-dasharray="4 4"/>
<ellipse id="Ellipse 1_6" cx="547.229" cy="326.553" rx="5.22892" ry="4.55317" fill="#0091FF"/>
<g id="Group 11_6">
<g id="Rectangle 7_6" filter="url(#filter11_d_156_1922)">
<rect x="199" y="194" width="289" height="84" rx="12" fill="#0091FF" fill-opacity="0.76" shape-rendering="crispEdges"/>
<rect x="199.5" y="194.5" width="288" height="83" rx="11.5" stroke="#0091FF" stroke-opacity="0.76" shape-rendering="crispEdges"/>
</g>
<g id="Rectangle 8_6">
<g filter="url(#filter12_i_156_1922)">
<rect x="203" y="181" width="282.361" height="26.4084" rx="12" fill="#1FA2F4"/>
</g>
<rect x="203.5" y="181.5" width="281.361" height="25.4084" rx="11.5" stroke="#0091FF" stroke-opacity="0.76"/>
</g>
<text id="Tuman nomi_6" fill="black" xml:space="preserve" style="white-space: pre" font-family="Roboto" font-size="18" font-weight="600" letter-spacing="0em"><tspan x="284.077" y="199.652">Tuman nomi</tspan></text>
<text id="Shaharlar soni: 204_6" fill="white" xml:space="preserve" style="white-space: pre" font-family="Roboto" font-size="18" font-weight="600" letter-spacing="0em"><tspan x="262" y="233.652">Shaharlar soni: 204</tspan></text>
<text id="Qishloqlar soni: 507_6" fill="white" xml:space="preserve" style="white-space: pre" font-family="Roboto" font-size="18" font-weight="600" letter-spacing="0em"><tspan x="261" y="258.652">Qishloqlar soni: 507</tspan></text>
</g>
</g>
<g id="tooltip6_7">
<path id="Vector 1_7" d="M364 201H423V288" stroke="#0091FF" stroke-opacity="0.76" stroke-width="2" stroke-dasharray="4 4"/>
<ellipse id="Ellipse 1_7" cx="423.229" cy="292.553" rx="5.22892" ry="4.55317" fill="#0091FF"/>
<g id="Group 11_7">
<g id="Rectangle 7_7" filter="url(#filter13_d_156_1922)">
<rect x="75" y="160" width="289" height="84" rx="12" fill="#0091FF" fill-opacity="0.76" shape-rendering="crispEdges"/>
<rect x="75.5" y="160.5" width="288" height="83" rx="11.5" stroke="#0091FF" stroke-opacity="0.76" shape-rendering="crispEdges"/>
</g>
<g id="Rectangle 8_7">
<g filter="url(#filter14_i_156_1922)">
<rect x="79" y="147" width="282.361" height="26.4084" rx="12" fill="#1FA2F4"/>
</g>
<rect x="79.5" y="147.5" width="281.361" height="25.4084" rx="11.5" stroke="#0091FF" stroke-opacity="0.76"/>
</g>
<text id="Tuman nomi_7" fill="black" xml:space="preserve" style="white-space: pre" font-family="Roboto" font-size="18" font-weight="600" letter-spacing="0em"><tspan x="160.077" y="165.652">Tuman nomi</tspan></text>
<text id="Shaharlar soni: 204_7" fill="white" xml:space="preserve" style="white-space: pre" font-family="Roboto" font-size="18" font-weight="600" letter-spacing="0em"><tspan x="138" y="199.652">Shaharlar soni: 204</tspan></text>
<text id="Qishloqlar soni: 507_7" fill="white" xml:space="preserve" style="white-space: pre" font-family="Roboto" font-size="18" font-weight="600" letter-spacing="0em"><tspan x="137" y="224.652">Qishloqlar soni: 507</tspan></text>
</g>
</g>
<g id="tooltip6_8">
<path id="Vector 1_8" d="M344 141H403V228" stroke="#0091FF" stroke-opacity="0.76" stroke-width="2" stroke-dasharray="4 4"/>
<ellipse id="Ellipse 1_8" cx="403.229" cy="232.553" rx="5.22892" ry="4.55317" fill="#0091FF"/>
<g id="Group 11_8">
<g id="Rectangle 7_8" filter="url(#filter15_d_156_1922)">
<rect x="55" y="100" width="289" height="84" rx="12" fill="#0091FF" fill-opacity="0.76" shape-rendering="crispEdges"/>
<rect x="55.5" y="100.5" width="288" height="83" rx="11.5" stroke="#0091FF" stroke-opacity="0.76" shape-rendering="crispEdges"/>
</g>
<g id="Rectangle 8_8">
<g filter="url(#filter16_i_156_1922)">
<rect x="59" y="87" width="282.361" height="26.4084" rx="12" fill="#1FA2F4"/>
</g>
<rect x="59.5" y="87.5" width="281.361" height="25.4084" rx="11.5" stroke="#0091FF" stroke-opacity="0.76"/>
</g>
<text id="Tuman nomi_8" fill="black" xml:space="preserve" style="white-space: pre" font-family="Roboto" font-size="18" font-weight="600" letter-spacing="0em"><tspan x="140.077" y="105.652">Tuman nomi</tspan></text>
<text id="Shaharlar soni: 204_8" fill="white" xml:space="preserve" style="white-space: pre" font-family="Roboto" font-size="18" font-weight="600" letter-spacing="0em"><tspan x="118" y="139.652">Shaharlar soni: 204</tspan></text>
<text id="Qishloqlar soni: 507_8" fill="white" xml:space="preserve" style="white-space: pre" font-family="Roboto" font-size="18" font-weight="600" letter-spacing="0em"><tspan x="117" y="164.652">Qishloqlar soni: 507</tspan></text>
</g>
</g>
<g id="tooltip6_9">
<path id="Vector 1_9" d="M303 150H362V237" stroke="#0091FF" stroke-opacity="0.76" stroke-width="2" stroke-dasharray="4 4"/>
<ellipse id="Ellipse 1_9" cx="362.229" cy="241.553" rx="5.22892" ry="4.55317" fill="#0091FF"/>
<g id="Group 11_9">
<g id="Rectangle 7_9" filter="url(#filter17_d_156_1922)">
<rect x="14" y="109" width="289" height="84" rx="12" fill="#0091FF" fill-opacity="0.76" shape-rendering="crispEdges"/>
<rect x="14.5" y="109.5" width="288" height="83" rx="11.5" stroke="#0091FF" stroke-opacity="0.76" shape-rendering="crispEdges"/>
</g>
<g id="Rectangle 8_9">
<g filter="url(#filter18_i_156_1922)">
<rect x="18" y="96" width="282.361" height="26.4084" rx="12" fill="#1FA2F4"/>
</g>
<rect x="18.5" y="96.5" width="281.361" height="25.4084" rx="11.5" stroke="#0091FF" stroke-opacity="0.76"/>
</g>
<text id="Tuman nomi_9" fill="black" xml:space="preserve" style="white-space: pre" font-family="Roboto" font-size="18" font-weight="600" letter-spacing="0em"><tspan x="99.0771" y="114.652">Tuman nomi</tspan></text>
<text id="Shaharlar soni: 204_9" fill="white" xml:space="preserve" style="white-space: pre" font-family="Roboto" font-size="18" font-weight="600" letter-spacing="0em"><tspan x="77" y="148.652">Shaharlar soni: 204</tspan></text>
<text id="Qishloqlar soni: 507_9" fill="white" xml:space="preserve" style="white-space: pre" font-family="Roboto" font-size="18" font-weight="600" letter-spacing="0em"><tspan x="76" y="173.652">Qishloqlar soni: 507</tspan></text>
</g>
</g>
<g id="tooltip6_10">
<path id="Vector 1_10" d="M300 101H359V188" stroke="#0091FF" stroke-opacity="0.76" stroke-width="2" stroke-dasharray="4 4"/>
<ellipse id="Ellipse 1_10" cx="359.229" cy="192.553" rx="5.22892" ry="4.55317" fill="#0091FF"/>
<g id="Group 11_10">
<g id="Rectangle 7_10" filter="url(#filter19_d_156_1922)">
<rect x="11" y="60" width="289" height="84" rx="12" fill="#0091FF" fill-opacity="0.76" shape-rendering="crispEdges"/>
<rect x="11.5" y="60.5" width="288" height="83" rx="11.5" stroke="#0091FF" stroke-opacity="0.76" shape-rendering="crispEdges"/>
</g>
<g id="Rectangle 8_10">
<g filter="url(#filter20_i_156_1922)">
<rect x="15" y="47" width="282.361" height="26.4084" rx="12" fill="#1FA2F4"/>
</g>
<rect x="15.5" y="47.5" width="281.361" height="25.4084" rx="11.5" stroke="#0091FF" stroke-opacity="0.76"/>
</g>
<text id="Tuman nomi_10" fill="black" xml:space="preserve" style="white-space: pre" font-family="Roboto" font-size="18" font-weight="600" letter-spacing="0em"><tspan x="96.0771" y="65.6523">Tuman nomi</tspan></text>
<text id="Shaharlar soni: 204_10" fill="white" xml:space="preserve" style="white-space: pre" font-family="Roboto" font-size="18" font-weight="600" letter-spacing="0em"><tspan x="74" y="99.6523">Shaharlar soni: 204</tspan></text>
<text id="Qishloqlar soni: 507_10" fill="white" xml:space="preserve" style="white-space: pre" font-family="Roboto" font-size="18" font-weight="600" letter-spacing="0em"><tspan x="73" y="124.652">Qishloqlar soni: 507</tspan></text>
</g>
</g>
<g id="tooltip6_11">
<path id="Vector 1_11" d="M347 101H406V188" stroke="#0091FF" stroke-opacity="0.76" stroke-width="2" stroke-dasharray="4 4"/>
<ellipse id="Ellipse 1_11" cx="406.229" cy="192.553" rx="5.22892" ry="4.55317" fill="#0091FF"/>
<g id="Group 11_11">
<g id="Rectangle 7_11" filter="url(#filter21_d_156_1922)">
<rect x="58" y="60" width="289" height="84" rx="12" fill="#0091FF" fill-opacity="0.76" shape-rendering="crispEdges"/>
<rect x="58.5" y="60.5" width="288" height="83" rx="11.5" stroke="#0091FF" stroke-opacity="0.76" shape-rendering="crispEdges"/>
</g>
<g id="Rectangle 8_11">
<g filter="url(#filter22_i_156_1922)">
<rect x="62" y="47" width="282.361" height="26.4084" rx="12" fill="#1FA2F4"/>
</g>
<rect x="62.5" y="47.5" width="281.361" height="25.4084" rx="11.5" stroke="#0091FF" stroke-opacity="0.76"/>
</g>
<text id="Tuman nomi_11" fill="black" xml:space="preserve" style="white-space: pre" font-family="Roboto" font-size="18" font-weight="600" letter-spacing="0em"><tspan x="143.077" y="65.6523">Tuman nomi</tspan></text>
<text id="Shaharlar soni: 204_11" fill="white" xml:space="preserve" style="white-space: pre" font-family="Roboto" font-size="18" font-weight="600" letter-spacing="0em"><tspan x="121" y="99.6523">Shaharlar soni: 204</tspan></text>
<text id="Qishloqlar soni: 507_11" fill="white" xml:space="preserve" style="white-space: pre" font-family="Roboto" font-size="18" font-weight="600" letter-spacing="0em"><tspan x="120" y="124.652">Qishloqlar soni: 507</tspan></text>
</g>
</g>
<g id="tooltip6_12">
<path id="Vector 1_12" d="M353 54H412V141" stroke="#0091FF" stroke-opacity="0.76" stroke-width="2" stroke-dasharray="4 4"/>
<ellipse id="Ellipse 1_12" cx="412.229" cy="145.553" rx="5.22892" ry="4.55317" fill="#0091FF"/>
<g id="Group 11_12">
<g id="Rectangle 7_12" filter="url(#filter23_d_156_1922)">
<rect x="64" y="13" width="289" height="84" rx="12" fill="#0091FF" fill-opacity="0.76" shape-rendering="crispEdges"/>
<rect x="64.5" y="13.5" width="288" height="83" rx="11.5" stroke="#0091FF" stroke-opacity="0.76" shape-rendering="crispEdges"/>
</g>
<g id="Rectangle 8_12">
<g filter="url(#filter24_i_156_1922)">
<rect x="68" width="282.361" height="26.4084" rx="12" fill="#1FA2F4"/>
</g>
<rect x="68.5" y="0.5" width="281.361" height="25.4084" rx="11.5" stroke="#0091FF" stroke-opacity="0.76"/>
</g>
<text id="Tuman nomi_12" fill="black" xml:space="preserve" style="white-space: pre" font-family="Roboto" font-size="18" font-weight="600" letter-spacing="0em"><tspan x="149.077" y="18.6523">Tuman nomi</tspan></text>
<text id="Shaharlar soni: 204_12" fill="white" xml:space="preserve" style="white-space: pre" font-family="Roboto" font-size="18" font-weight="600" letter-spacing="0em"><tspan x="127" y="52.6523">Shaharlar soni: 204</tspan></text>
<text id="Qishloqlar soni: 507_12" fill="white" xml:space="preserve" style="white-space: pre" font-family="Roboto" font-size="18" font-weight="600" letter-spacing="0em"><tspan x="126" y="77.6523">Qishloqlar soni: 507</tspan></text>
</g>
</g>
</g>
</g>
<defs>
<filter id="filter0_d_156_1922" x="111" y="11" width="500.5" height="455.5" filterUnits="userSpaceOnUse" color-interpolation-filters="sRGB">
<feFlood flood-opacity="0" result="BackgroundImageFix"/>
<feColorMatrix in="SourceAlpha" type="matrix" values="0 0 0 0 0 0 0 0 0 0 0 0 0 0 0 0 0 0 127 0" result="hardAlpha"/>
<feOffset dx="8" dy="2"/>
<feComposite in2="hardAlpha" operator="out"/>
<feColorMatrix type="matrix" values="0 0 0 0 1 0 0 0 0 1 0 0 0 0 1 0 0 0 1 0"/>
<feBlend mode="normal" in2="BackgroundImageFix" result="effect1_dropShadow_156_1922"/>
<feBlend mode="normal" in="SourceGraphic" in2="effect1_dropShadow_156_1922" result="shape"/>
</filter>
<filter id="filter1_d_156_1922" x="259" y="26" width="297" height="92" filterUnits="userSpaceOnUse" color-interpolation-filters="sRGB">
<feFlood flood-opacity="0" result="BackgroundImageFix"/>
<feColorMatrix in="SourceAlpha" type="matrix" values="0 0 0 0 0 0 0 0 0 0 0 0 0 0 0 0 0 0 127 0" result="hardAlpha"/>
<feOffset dy="4"/>
<feGaussianBlur stdDeviation="2"/>
<feComposite in2="hardAlpha" operator="out"/>
<feColorMatrix type="matrix" values="0 0 0 0 0 0 0 0 0 0 0 0 0 0 0 0 0 0 0.25 0"/>
<feBlend mode="normal" in2="BackgroundImageFix" result="effect1_dropShadow_156_1922"/>
<feBlend mode="normal" in="SourceGraphic" in2="effect1_dropShadow_156_1922" result="shape"/>
</filter>
<filter id="filter2_i_156_1922" x="267" y="13" width="282.361" height="30.4084" filterUnits="userSpaceOnUse" color-interpolation-filters="sRGB">
<feFlood flood-opacity="0" result="BackgroundImageFix"/>
<feBlend mode="normal" in="SourceGraphic" in2="BackgroundImageFix" result="shape"/>
<feColorMatrix in="SourceAlpha" type="matrix" values="0 0 0 0 0 0 0 0 0 0 0 0 0 0 0 0 0 0 127 0" result="hardAlpha"/>
<feOffset dy="4"/>
<feGaussianBlur stdDeviation="2"/>
<feComposite in2="hardAlpha" operator="arithmetic" k2="-1" k3="1"/>
<feColorMatrix type="matrix" values="0 0 0 0 0 0 0 0 0 0 0 0 0 0 0 0 0 0 0.25 0"/>
<feBlend mode="normal" in2="shape" result="effect1_innerShadow_156_1922"/>
</filter>
<filter id="filter3_d_156_1922" x="323" y="181" width="297" height="92" filterUnits="userSpaceOnUse" color-interpolation-filters="sRGB">
<feFlood flood-opacity="0" result="BackgroundImageFix"/>
<feColorMatrix in="SourceAlpha" type="matrix" values="0 0 0 0 0 0 0 0 0 0 0 0 0 0 0 0 0 0 127 0" result="hardAlpha"/>
<feOffset dy="4"/>
<feGaussianBlur stdDeviation="2"/>
<feComposite in2="hardAlpha" operator="out"/>
<feColorMatrix type="matrix" values="0 0 0 0 0 0 0 0 0 0 0 0 0 0 0 0 0 0 0.25 0"/>
<feBlend mode="normal" in2="BackgroundImageFix" result="effect1_dropShadow_156_1922"/>
<feBlend mode="normal" in="SourceGraphic" in2="effect1_dropShadow_156_1922" result="shape"/>
</filter>
<filter id="filter4_i_156_1922" x="331" y="168" width="282.361" height="30.4084" filterUnits="userSpaceOnUse" color-interpolation-filters="sRGB">
<feFlood flood-opacity="0" result="BackgroundImageFix"/>
<feBlend mode="normal" in="SourceGraphic" in2="BackgroundImageFix" result="shape"/>
<feColorMatrix in="SourceAlpha" type="matrix" values="0 0 0 0 0 0 0 0 0 0 0 0 0 0 0 0 0 0 127 0" result="hardAlpha"/>
<feOffset dy="4"/>
<feGaussianBlur stdDeviation="2"/>
<feComposite in2="hardAlpha" operator="arithmetic" k2="-1" k3="1"/>
<feColorMatrix type="matrix" values="0 0 0 0 0 0 0 0 0 0 0 0 0 0 0 0 0 0 0.25 0"/>
<feBlend mode="normal" in2="shape" result="effect1_innerShadow_156_1922"/>
</filter>
<filter id="filter5_d_156_1922" x="32" y="292" width="297" height="92" filterUnits="userSpaceOnUse" color-interpolation-filters="sRGB">
<feFlood flood-opacity="0" result="BackgroundImageFix"/>
<feColorMatrix in="SourceAlpha" type="matrix" values="0 0 0 0 0 0 0 0 0 0 0 0 0 0 0 0 0 0 127 0" result="hardAlpha"/>
<feOffset dy="4"/>
<feGaussianBlur stdDeviation="2"/>
<feComposite in2="hardAlpha" operator="out"/>
<feColorMatrix type="matrix" values="0 0 0 0 0 0 0 0 0 0 0 0 0 0 0 0 0 0 0.25 0"/>
<feBlend mode="normal" in2="BackgroundImageFix" result="effect1_dropShadow_156_1922"/>
<feBlend mode="normal" in="SourceGraphic" in2="effect1_dropShadow_156_1922" result="shape"/>
</filter>
<filter id="filter6_i_156_1922" x="40" y="279" width="282.361" height="30.4084" filterUnits="userSpaceOnUse" color-interpolation-filters="sRGB">
<feFlood flood-opacity="0" result="BackgroundImageFix"/>
<feBlend mode="normal" in="SourceGraphic" in2="BackgroundImageFix" result="shape"/>
<feColorMatrix in="SourceAlpha" type="matrix" values="0 0 0 0 0 0 0 0 0 0 0 0 0 0 0 0 0 0 127 0" result="hardAlpha"/>
<feOffset dy="4"/>
<feGaussianBlur stdDeviation="2"/>
<feComposite in2="hardAlpha" operator="arithmetic" k2="-1" k3="1"/>
<feColorMatrix type="matrix" values="0 0 0 0 0 0 0 0 0 0 0 0 0 0 0 0 0 0 0.25 0"/>
<feBlend mode="normal" in2="shape" result="effect1_innerShadow_156_1922"/>
</filter>
<filter id="filter7_d_156_1922" x="120" y="220" width="297" height="92" filterUnits="userSpaceOnUse" color-interpolation-filters="sRGB">
<feFlood flood-opacity="0" result="BackgroundImageFix"/>
<feColorMatrix in="SourceAlpha" type="matrix" values="0 0 0 0 0 0 0 0 0 0 0 0 0 0 0 0 0 0 127 0" result="hardAlpha"/>
<feOffset dy="4"/>
<feGaussianBlur stdDeviation="2"/>
<feComposite in2="hardAlpha" operator="out"/>
<feColorMatrix type="matrix" values="0 0 0 0 0 0 0 0 0 0 0 0 0 0 0 0 0 0 0.25 0"/>
<feBlend mode="normal" in2="BackgroundImageFix" result="effect1_dropShadow_156_1922"/>
<feBlend mode="normal" in="SourceGraphic" in2="effect1_dropShadow_156_1922" result="shape"/>
</filter>
<filter id="filter8_i_156_1922" x="128" y="207" width="282.361" height="30.4084" filterUnits="userSpaceOnUse" color-interpolation-filters="sRGB">
<feFlood flood-opacity="0" result="BackgroundImageFix"/>
<feBlend mode="normal" in="SourceGraphic" in2="BackgroundImageFix" result="shape"/>
<feColorMatrix in="SourceAlpha" type="matrix" values="0 0 0 0 0 0 0 0 0 0 0 0 0 0 0 0 0 0 127 0" result="hardAlpha"/>
<feOffset dy="4"/>
<feGaussianBlur stdDeviation="2"/>
<feComposite in2="hardAlpha" operator="arithmetic" k2="-1" k3="1"/>
<feColorMatrix type="matrix" values="0 0 0 0 0 0 0 0 0 0 0 0 0 0 0 0 0 0 0.25 0"/>
<feBlend mode="normal" in2="shape" result="effect1_innerShadow_156_1922"/>
</filter>
<filter id="filter9_d_156_1922" x="0" y="179" width="297" height="92" filterUnits="userSpaceOnUse" color-interpolation-filters="sRGB">
<feFlood flood-opacity="0" result="BackgroundImageFix"/>
<feColorMatrix in="SourceAlpha" type="matrix" values="0 0 0 0 0 0 0 0 0 0 0 0 0 0 0 0 0 0 127 0" result="hardAlpha"/>
<feOffset dy="4"/>
<feGaussianBlur stdDeviation="2"/>
<feComposite in2="hardAlpha" operator="out"/>
<feColorMatrix type="matrix" values="0 0 0 0 0 0 0 0 0 0 0 0 0 0 0 0 0 0 0.25 0"/>
<feBlend mode="normal" in2="BackgroundImageFix" result="effect1_dropShadow_156_1922"/>
<feBlend mode="normal" in="SourceGraphic" in2="effect1_dropShadow_156_1922" result="shape"/>
</filter>
<filter id="filter10_i_156_1922" x="8" y="166" width="282.361" height="30.4084" filterUnits="userSpaceOnUse" color-interpolation-filters="sRGB">
<feFlood flood-opacity="0" result="BackgroundImageFix"/>
<feBlend mode="normal" in="SourceGraphic" in2="BackgroundImageFix" result="shape"/>
<feColorMatrix in="SourceAlpha" type="matrix" values="0 0 0 0 0 0 0 0 0 0 0 0 0 0 0 0 0 0 127 0" result="hardAlpha"/>
<feOffset dy="4"/>
<feGaussianBlur stdDeviation="2"/>
<feComposite in2="hardAlpha" operator="arithmetic" k2="-1" k3="1"/>
<feColorMatrix type="matrix" values="0 0 0 0 0 0 0 0 0 0 0 0 0 0 0 0 0 0 0.25 0"/>
<feBlend mode="normal" in2="shape" result="effect1_innerShadow_156_1922"/>
</filter>
<filter id="filter11_d_156_1922" x="195" y="194" width="297" height="92" filterUnits="userSpaceOnUse" color-interpolation-filters="sRGB">
<feFlood flood-opacity="0" result="BackgroundImageFix"/>
<feColorMatrix in="SourceAlpha" type="matrix" values="0 0 0 0 0 0 0 0 0 0 0 0 0 0 0 0 0 0 127 0" result="hardAlpha"/>
<feOffset dy="4"/>
<feGaussianBlur stdDeviation="2"/>
<feComposite in2="hardAlpha" operator="out"/>
<feColorMatrix type="matrix" values="0 0 0 0 0 0 0 0 0 0 0 0 0 0 0 0 0 0 0.25 0"/>
<feBlend mode="normal" in2="BackgroundImageFix" result="effect1_dropShadow_156_1922"/>
<feBlend mode="normal" in="SourceGraphic" in2="effect1_dropShadow_156_1922" result="shape"/>
</filter>
<filter id="filter12_i_156_1922" x="203" y="181" width="282.361" height="30.4084" filterUnits="userSpaceOnUse" color-interpolation-filters="sRGB">
<feFlood flood-opacity="0" result="BackgroundImageFix"/>
<feBlend mode="normal" in="SourceGraphic" in2="BackgroundImageFix" result="shape"/>
<feColorMatrix in="SourceAlpha" type="matrix" values="0 0 0 0 0 0 0 0 0 0 0 0 0 0 0 0 0 0 127 0" result="hardAlpha"/>
<feOffset dy="4"/>
<feGaussianBlur stdDeviation="2"/>
<feComposite in2="hardAlpha" operator="arithmetic" k2="-1" k3="1"/>
<feColorMatrix type="matrix" values="0 0 0 0 0 0 0 0 0 0 0 0 0 0 0 0 0 0 0.25 0"/>
<feBlend mode="normal" in2="shape" result="effect1_innerShadow_156_1922"/>
</filter>
<filter id="filter13_d_156_1922" x="71" y="160" width="297" height="92" filterUnits="userSpaceOnUse" color-interpolation-filters="sRGB">
<feFlood flood-opacity="0" result="BackgroundImageFix"/>
<feColorMatrix in="SourceAlpha" type="matrix" values="0 0 0 0 0 0 0 0 0 0 0 0 0 0 0 0 0 0 127 0" result="hardAlpha"/>
<feOffset dy="4"/>
<feGaussianBlur stdDeviation="2"/>
<feComposite in2="hardAlpha" operator="out"/>
<feColorMatrix type="matrix" values="0 0 0 0 0 0 0 0 0 0 0 0 0 0 0 0 0 0 0.25 0"/>
<feBlend mode="normal" in2="BackgroundImageFix" result="effect1_dropShadow_156_1922"/>
<feBlend mode="normal" in="SourceGraphic" in2="effect1_dropShadow_156_1922" result="shape"/>
</filter>
<filter id="filter14_i_156_1922" x="79" y="147" width="282.361" height="30.4084" filterUnits="userSpaceOnUse" color-interpolation-filters="sRGB">
<feFlood flood-opacity="0" result="BackgroundImageFix"/>
<feBlend mode="normal" in="SourceGraphic" in2="BackgroundImageFix" result="shape"/>
<feColorMatrix in="SourceAlpha" type="matrix" values="0 0 0 0 0 0 0 0 0 0 0 0 0 0 0 0 0 0 127 0" result="hardAlpha"/>
<feOffset dy="4"/>
<feGaussianBlur stdDeviation="2"/>
<feComposite in2="hardAlpha" operator="arithmetic" k2="-1" k3="1"/>
<feColorMatrix type="matrix" values="0 0 0 0 0 0 0 0 0 0 0 0 0 0 0 0 0 0 0.25 0"/>
<feBlend mode="normal" in2="shape" result="effect1_innerShadow_156_1922"/>
</filter>
<filter id="filter15_d_156_1922" x="51" y="100" width="297" height="92" filterUnits="userSpaceOnUse" color-interpolation-filters="sRGB">
<feFlood flood-opacity="0" result="BackgroundImageFix"/>
<feColorMatrix in="SourceAlpha" type="matrix" values="0 0 0 0 0 0 0 0 0 0 0 0 0 0 0 0 0 0 127 0" result="hardAlpha"/>
<feOffset dy="4"/>
<feGaussianBlur stdDeviation="2"/>
<feComposite in2="hardAlpha" operator="out"/>
<feColorMatrix type="matrix" values="0 0 0 0 0 0 0 0 0 0 0 0 0 0 0 0 0 0 0.25 0"/>
<feBlend mode="normal" in2="BackgroundImageFix" result="effect1_dropShadow_156_1922"/>
<feBlend mode="normal" in="SourceGraphic" in2="effect1_dropShadow_156_1922" result="shape"/>
</filter>
<filter id="filter16_i_156_1922" x="59" y="87" width="282.361" height="30.4084" filterUnits="userSpaceOnUse" color-interpolation-filters="sRGB">
<feFlood flood-opacity="0" result="BackgroundImageFix"/>
<feBlend mode="normal" in="SourceGraphic" in2="BackgroundImageFix" result="shape"/>
<feColorMatrix in="SourceAlpha" type="matrix" values="0 0 0 0 0 0 0 0 0 0 0 0 0 0 0 0 0 0 127 0" result="hardAlpha"/>
<feOffset dy="4"/>
<feGaussianBlur stdDeviation="2"/>
<feComposite in2="hardAlpha" operator="arithmetic" k2="-1" k3="1"/>
<feColorMatrix type="matrix" values="0 0 0 0 0 0 0 0 0 0 0 0 0 0 0 0 0 0 0.25 0"/>
<feBlend mode="normal" in2="shape" result="effect1_innerShadow_156_1922"/>
</filter>
<filter id="filter17_d_156_1922" x="10" y="109" width="297" height="92" filterUnits="userSpaceOnUse" color-interpolation-filters="sRGB">
<feFlood flood-opacity="0" result="BackgroundImageFix"/>
<feColorMatrix in="SourceAlpha" type="matrix" values="0 0 0 0 0 0 0 0 0 0 0 0 0 0 0 0 0 0 127 0" result="hardAlpha"/>
<feOffset dy="4"/>
<feGaussianBlur stdDeviation="2"/>
<feComposite in2="hardAlpha" operator="out"/>
<feColorMatrix type="matrix" values="0 0 0 0 0 0 0 0 0 0 0 0 0 0 0 0 0 0 0.25 0"/>
<feBlend mode="normal" in2="BackgroundImageFix" result="effect1_dropShadow_156_1922"/>
<feBlend mode="normal" in="SourceGraphic" in2="effect1_dropShadow_156_1922" result="shape"/>
</filter>
<filter id="filter18_i_156_1922" x="18" y="96" width="282.361" height="30.4084" filterUnits="userSpaceOnUse" color-interpolation-filters="sRGB">
<feFlood flood-opacity="0" result="BackgroundImageFix"/>
<feBlend mode="normal" in="SourceGraphic" in2="BackgroundImageFix" result="shape"/>
<feColorMatrix in="SourceAlpha" type="matrix" values="0 0 0 0 0 0 0 0 0 0 0 0 0 0 0 0 0 0 127 0" result="hardAlpha"/>
<feOffset dy="4"/>
<feGaussianBlur stdDeviation="2"/>
<feComposite in2="hardAlpha" operator="arithmetic" k2="-1" k3="1"/>
<feColorMatrix type="matrix" values="0 0 0 0 0 0 0 0 0 0 0 0 0 0 0 0 0 0 0.25 0"/>
<feBlend mode="normal" in2="shape" result="effect1_innerShadow_156_1922"/>
</filter>
<filter id="filter19_d_156_1922" x="7" y="60" width="297" height="92" filterUnits="userSpaceOnUse" color-interpolation-filters="sRGB">
<feFlood flood-opacity="0" result="BackgroundImageFix"/>
<feColorMatrix in="SourceAlpha" type="matrix" values="0 0 0 0 0 0 0 0 0 0 0 0 0 0 0 0 0 0 127 0" result="hardAlpha"/>
<feOffset dy="4"/>
<feGaussianBlur stdDeviation="2"/>
<feComposite in2="hardAlpha" operator="out"/>
<feColorMatrix type="matrix" values="0 0 0 0 0 0 0 0 0 0 0 0 0 0 0 0 0 0 0.25 0"/>
<feBlend mode="normal" in2="BackgroundImageFix" result="effect1_dropShadow_156_1922"/>
<feBlend mode="normal" in="SourceGraphic" in2="effect1_dropShadow_156_1922" result="shape"/>
</filter>
<filter id="filter20_i_156_1922" x="15" y="47" width="282.361" height="30.4084" filterUnits="userSpaceOnUse" color-interpolation-filters="sRGB">
<feFlood flood-opacity="0" result="BackgroundImageFix"/>
<feBlend mode="normal" in="SourceGraphic" in2="BackgroundImageFix" result="shape"/>
<feColorMatrix in="SourceAlpha" type="matrix" values="0 0 0 0 0 0 0 0 0 0 0 0 0 0 0 0 0 0 127 0" result="hardAlpha"/>
<feOffset dy="4"/>
<feGaussianBlur stdDeviation="2"/>
<feComposite in2="hardAlpha" operator="arithmetic" k2="-1" k3="1"/>
<feColorMatrix type="matrix" values="0 0 0 0 0 0 0 0 0 0 0 0 0 0 0 0 0 0 0.25 0"/>
<feBlend mode="normal" in2="shape" result="effect1_innerShadow_156_1922"/>
</filter>
<filter id="filter21_d_156_1922" x="54" y="60" width="297" height="92" filterUnits="userSpaceOnUse" color-interpolation-filters="sRGB">
<feFlood flood-opacity="0" result="BackgroundImageFix"/>
<feColorMatrix in="SourceAlpha" type="matrix" values="0 0 0 0 0 0 0 0 0 0 0 0 0 0 0 0 0 0 127 0" result="hardAlpha"/>
<feOffset dy="4"/>
<feGaussianBlur stdDeviation="2"/>
<feComposite in2="hardAlpha" operator="out"/>
<feColorMatrix type="matrix" values="0 0 0 0 0 0 0 0 0 0 0 0 0 0 0 0 0 0 0.25 0"/>
<feBlend mode="normal" in2="BackgroundImageFix" result="effect1_dropShadow_156_1922"/>
<feBlend mode="normal" in="SourceGraphic" in2="effect1_dropShadow_156_1922" result="shape"/>
</filter>
<filter id="filter22_i_156_1922" x="62" y="47" width="282.361" height="30.4084" filterUnits="userSpaceOnUse" color-interpolation-filters="sRGB">
<feFlood flood-opacity="0" result="BackgroundImageFix"/>
<feBlend mode="normal" in="SourceGraphic" in2="BackgroundImageFix" result="shape"/>
<feColorMatrix in="SourceAlpha" type="matrix" values="0 0 0 0 0 0 0 0 0 0 0 0 0 0 0 0 0 0 127 0" result="hardAlpha"/>
<feOffset dy="4"/>
<feGaussianBlur stdDeviation="2"/>
<feComposite in2="hardAlpha" operator="arithmetic" k2="-1" k3="1"/>
<feColorMatrix type="matrix" values="0 0 0 0 0 0 0 0 0 0 0 0 0 0 0 0 0 0 0.25 0"/>
<feBlend mode="normal" in2="shape" result="effect1_innerShadow_156_1922"/>
</filter>
<filter id="filter23_d_156_1922" x="60" y="13" width="297" height="92" filterUnits="userSpaceOnUse" color-interpolation-filters="sRGB">
<feFlood flood-opacity="0" result="BackgroundImageFix"/>
<feColorMatrix in="SourceAlpha" type="matrix" values="0 0 0 0 0 0 0 0 0 0 0 0 0 0 0 0 0 0 127 0" result="hardAlpha"/>
<feOffset dy="4"/>
<feGaussianBlur stdDeviation="2"/>
<feComposite in2="hardAlpha" operator="out"/>
<feColorMatrix type="matrix" values="0 0 0 0 0 0 0 0 0 0 0 0 0 0 0 0 0 0 0.25 0"/>
<feBlend mode="normal" in2="BackgroundImageFix" result="effect1_dropShadow_156_1922"/>
<feBlend mode="normal" in="SourceGraphic" in2="effect1_dropShadow_156_1922" result="shape"/>
</filter>
<filter id="filter24_i_156_1922" x="68" y="0" width="282.361" height="30.4084" filterUnits="userSpaceOnUse" color-interpolation-filters="sRGB">
<feFlood flood-opacity="0" result="BackgroundImageFix"/>
<feBlend mode="normal" in="SourceGraphic" in2="BackgroundImageFix" result="shape"/>
<feColorMatrix in="SourceAlpha" type="matrix" values="0 0 0 0 0 0 0 0 0 0 0 0 0 0 0 0 0 0 127 0" result="hardAlpha"/>
<feOffset dy="4"/>
<feGaussianBlur stdDeviation="2"/>
<feComposite in2="hardAlpha" operator="arithmetic" k2="-1" k3="1"/>
<feColorMatrix type="matrix" values="0 0 0 0 0 0 0 0 0 0 0 0 0 0 0 0 0 0 0.25 0"/>
<feBlend mode="normal" in2="shape" result="effect1_innerShadow_156_1922"/>
</filter>
</defs>
</svg>
