<svg width="57" height="57" viewBox="0 0 57 57" fill="none" xmlns="http://www.w3.org/2000/svg">
<path d="M6.24506 12.3963C6.24398 11.4511 6.58612 10.5377 7.20787 9.82578C7.82963 9.11387 8.68871 8.65193 9.62545 8.5258C10.5622 8.39967 11.5129 8.61795 12.3008 9.14004C13.0887 9.66214 13.6602 10.4526 13.9092 11.3644C14.0607 11.3392 14.214 11.3265 14.3676 11.3264C14.8337 11.3265 15.2926 11.4414 15.7038 11.6611C16.1149 11.8807 16.4656 12.1983 16.7248 12.5857C16.984 12.9731 17.1438 13.4184 17.19 13.8823C17.2361 14.3461 17.1673 14.8142 16.9896 15.2451H19.8396C19.997 15.2451 20.1481 15.3077 20.2594 15.419C20.3708 15.5304 20.4333 15.6814 20.4333 15.8389C20.4333 15.9963 20.3708 16.1474 20.2594 16.2587C20.1481 16.3701 19.997 16.4326 19.8396 16.4326H15.8579C15.7376 16.4326 15.6201 16.3961 15.521 16.3279C15.422 16.2596 15.346 16.1629 15.3031 16.0505C15.2602 15.9381 15.2525 15.8153 15.2809 15.6984C15.3094 15.5815 15.3727 15.476 15.4624 15.3959C15.7127 15.1738 15.8896 14.8809 15.9695 14.5559C16.0494 14.231 16.0285 13.8894 15.9097 13.5766C15.791 13.2637 15.5798 12.9944 15.3044 12.8044C15.0289 12.6144 14.7022 12.5126 14.3676 12.5127C14.133 12.5115 13.901 12.5622 13.6883 12.6611C13.6013 12.7013 13.5059 12.7197 13.4102 12.715C13.3145 12.7103 13.2214 12.6824 13.1388 12.6339C13.0562 12.5854 12.9866 12.5176 12.9359 12.4363C12.8851 12.355 12.8548 12.2627 12.8476 12.1671C12.8103 11.714 12.6597 11.2776 12.4096 10.8979C12.1596 10.5182 11.8181 10.2075 11.4166 9.99422C11.0151 9.78098 10.5665 9.67208 10.1119 9.67754C9.65728 9.683 9.21135 9.80265 8.81508 10.0255C8.41881 10.2483 8.08491 10.5672 7.84407 10.9527C7.60323 11.3383 7.46317 11.7783 7.43678 12.2321C7.41038 12.686 7.4985 13.1392 7.69302 13.5501C7.88754 13.961 8.18223 14.3164 8.55 14.5837C8.61626 14.6282 8.67286 14.6857 8.71641 14.7526C8.75996 14.8195 8.78957 14.8945 8.80347 14.9731C8.81737 15.0517 8.81527 15.1323 8.7973 15.2101C8.77932 15.2879 8.74585 15.3613 8.69887 15.4258C8.65189 15.4904 8.59238 15.5448 8.52389 15.5858C8.4554 15.6269 8.37934 15.6536 8.30026 15.6646C8.22118 15.6756 8.1407 15.6705 8.06363 15.6496C7.98657 15.6287 7.91451 15.5925 7.85175 15.5432C7.35547 15.1818 6.95136 14.7086 6.67221 14.1618C6.39305 13.6151 6.24671 13.0102 6.24506 12.3963ZM10.8953 17.3838C10.7378 17.3838 10.5868 17.4464 10.4755 17.5577C10.3641 17.6691 10.3016 17.8201 10.3016 17.9776C10.3016 18.135 10.3641 18.2861 10.4755 18.3974C10.5868 18.5088 10.7378 18.5713 10.8953 18.5713H14.9019C15.0594 18.5713 15.2104 18.5088 15.3218 18.3974C15.4331 18.2861 15.4957 18.135 15.4957 17.9776C15.4957 17.8201 15.4331 17.6691 15.3218 17.5577C15.2104 17.4464 15.0594 17.3838 14.9019 17.3838H10.8953ZM41.6646 21.9236C41.8221 21.9236 41.9731 21.8611 42.0845 21.7497C42.1958 21.6384 42.2584 21.4873 42.2584 21.3299C42.2584 21.1724 42.1958 21.0214 42.0845 20.91C41.9731 20.7987 41.8221 20.7361 41.6646 20.7361C41.5079 20.733 41.3533 20.699 41.2097 20.6362C41.0661 20.5733 40.9363 20.4828 40.8277 20.3698C40.7191 20.2568 40.6338 20.1234 40.5767 19.9775C40.5196 19.8315 40.4918 19.6757 40.4949 19.5189C40.4981 19.3622 40.532 19.2076 40.5949 19.064C40.6577 18.9204 40.7483 18.7906 40.8613 18.682C40.9743 18.5734 41.1076 18.4881 41.2536 18.431C41.3996 18.3739 41.5554 18.3461 41.7121 18.3492C41.853 18.3491 41.9893 18.2988 42.0965 18.2075C42.2038 18.1161 42.275 17.9896 42.2976 17.8505C42.4208 17.0844 42.828 16.3927 43.4381 15.9133C44.0483 15.4338 44.8166 15.2016 45.5901 15.263C46.3636 15.3244 47.0857 15.6748 47.6126 16.2445C48.1395 16.8142 48.4325 17.5614 48.4334 18.3374C48.4345 18.8043 48.3276 19.2652 48.1211 19.684C48.0769 19.7746 48.0566 19.8749 48.0619 19.9755C48.0672 20.0761 48.0981 20.1737 48.1515 20.2591C48.205 20.3445 48.2793 20.4149 48.3674 20.4636C48.4556 20.5124 48.5547 20.5379 48.6554 20.5378H51.6634C51.8208 20.5378 51.9719 20.4753 52.0832 20.3639C52.1946 20.2526 52.2571 20.1015 52.2571 19.9441C52.2571 19.7866 52.1946 19.6356 52.0832 19.5242C51.9719 19.4129 51.8208 19.3503 51.6634 19.3503H49.4997C49.755 18.2634 49.5748 17.1198 48.9979 16.164C48.4209 15.2081 47.493 14.5159 46.4123 14.2353C45.3317 13.9547 44.1842 14.108 43.2151 14.6624C42.246 15.2168 41.5323 16.1284 41.2264 17.2021C40.6453 17.3137 40.1264 17.6376 39.771 18.1108C39.4156 18.5839 39.249 19.1724 39.3036 19.7617C39.3583 20.3509 39.6304 20.8987 40.0668 21.2984C40.5033 21.698 41.0728 21.9209 41.6646 21.9236ZM52.8438 47.9168C52.8438 48.0743 52.7812 48.2253 52.6698 48.3367C52.5585 48.448 52.4075 48.5106 52.25 48.5106H4.75C4.59253 48.5106 4.44151 48.448 4.33016 48.3367C4.21881 48.2253 4.15625 48.0743 4.15625 47.9168C4.15625 47.7593 4.21881 47.6083 4.33016 47.497C4.44151 47.3856 4.59253 47.3231 4.75 47.3231H6.24506V32.8724H5.9375C5.78003 32.8724 5.62901 32.8098 5.51766 32.6985C5.40631 32.5871 5.34375 32.4361 5.34375 32.2786V29.9036C5.34375 29.7461 5.40631 29.5951 5.51766 29.4838C5.62901 29.3724 5.78003 29.3099 5.9375 29.3099H17.1784V27.5286C17.1784 27.3711 17.2409 27.2201 17.3523 27.1088C17.4636 26.9974 17.6147 26.9349 17.7721 26.9349H18.8979V24.7404C18.8979 24.5829 18.9604 24.4319 19.0718 24.3205C19.1831 24.2092 19.3342 24.1466 19.4916 24.1466H20.8157C22.7944 22.3855 25.2729 21.2851 27.9062 20.9986V13.528C27.9064 13.4062 27.9439 13.2874 28.0138 13.1876C28.0838 13.0879 28.1827 13.0121 28.2971 12.9705C28.4116 12.9289 28.5361 12.9235 28.6538 12.955C28.7714 12.9865 28.8765 13.0535 28.9548 13.1468C29.3307 13.5054 29.7889 13.766 30.2892 13.9058C30.7895 14.0456 31.3165 14.0602 31.8238 13.9484C32.8487 13.794 33.8964 13.9264 34.8507 14.3307C34.961 14.3747 35.0556 14.4506 35.1223 14.5489C35.189 14.6471 35.2247 14.763 35.2248 14.8817V17.9312C35.2248 18.0379 35.196 18.1426 35.1415 18.2343C35.087 18.3261 35.0088 18.4014 34.9151 18.4524C34.8214 18.5035 34.7157 18.5283 34.6091 18.5244C34.5025 18.5204 34.3989 18.4878 34.3092 18.43C33.5278 17.9614 32.6014 17.7966 31.7063 17.9669C30.8334 18.1832 29.9132 18.0995 29.0938 17.7294V21.0021C31.7271 21.2886 34.2056 22.3891 36.1843 24.1502H37.5084C37.6658 24.1502 37.8169 24.2127 37.9282 24.3241C38.0396 24.4354 38.1021 24.5865 38.1021 24.7439V26.9349H39.2279C39.3853 26.9349 39.5364 26.9974 39.6477 27.1088C39.7591 27.2201 39.8216 27.3711 39.8216 27.5286V29.3099H51.0625C51.22 29.3099 51.371 29.3724 51.4823 29.4838C51.5937 29.5951 51.6562 29.7461 51.6562 29.9036V32.2786C51.6562 32.4361 51.5937 32.5871 51.4823 32.6985C51.371 32.8098 51.22 32.8724 51.0625 32.8724H50.7549V47.3231H52.25C52.4075 47.3231 52.5585 47.3856 52.6698 47.497C52.7812 47.6083 52.8438 47.7593 52.8438 47.9168ZM29.0938 16.3685H29.1009C29.4344 16.601 29.8133 16.7605 30.2128 16.8364C30.6123 16.9123 31.0233 16.903 31.4189 16.8091C31.7389 16.7294 32.0676 16.6896 32.3974 16.6903C32.9572 16.6954 33.512 16.7971 34.0373 16.9907V15.2986C33.3858 15.0789 32.6912 15.0182 32.0114 15.1216C31.0189 15.3027 29.9944 15.1546 29.0938 14.7001V16.3685ZM49.5674 32.8747H38.9203V47.3231H49.5674V32.8747ZM33.3937 39.5046V38.3171H23.6063V39.5046H33.3937ZM24.5896 40.6921V47.3254H27.9062V40.6897L24.5896 40.6921ZM29.0938 47.3231H32.4104V40.6897H29.0938V47.3231ZM33.5979 47.3231H37.7328V30.4938H19.2672V47.3231H23.4021V40.6897H23.0126C22.8551 40.6897 22.7041 40.6271 22.5927 40.5158C22.4814 40.4044 22.4188 40.2534 22.4188 40.0959V37.7209C22.4188 37.5635 22.4814 37.4124 22.5927 37.3011C22.7041 37.1897 22.8551 37.1272 23.0126 37.1272H33.9874C34.1449 37.1272 34.2959 37.1897 34.4073 37.3011C34.5186 37.4124 34.5812 37.5635 34.5812 37.7209V40.0959C34.5812 40.2534 34.5186 40.4044 34.4073 40.5158C34.2959 40.6271 34.1449 40.6897 33.9874 40.6897H33.5979V47.3231ZM50.4688 30.4974H38.9203V31.6849H50.1446H50.1612H50.179H50.4688V30.4974ZM20.0854 26.9349H36.9146V25.3341H35.9516C35.7973 25.3341 35.6491 25.2741 35.5383 25.1667C33.6067 23.3835 31.1229 22.3153 28.5 22.1397C25.8771 22.3153 23.3933 23.3835 21.4617 25.1667C21.3509 25.2741 21.2027 25.3341 21.0484 25.3341H20.0854V26.9349ZM18.3659 29.3099H38.6341V28.1224H18.3659V29.3099ZM6.53125 31.6849H6.821H6.83881H6.85544H18.0797V30.4974H6.53125V31.6849ZM7.43256 47.3231H18.0797V32.8724H7.43256V47.3231ZM30.3335 32.2786V35.5917C30.3335 35.7492 30.2709 35.9002 30.1596 36.0116C30.0482 36.1229 29.8972 36.1855 29.7397 36.1855H27.2603C27.1028 36.1855 26.9518 36.1229 26.8404 36.0116C26.7291 35.9002 26.6665 35.7492 26.6665 35.5917V32.2786C26.6665 32.1211 26.7291 31.9701 26.8404 31.8588C26.9518 31.7474 27.1028 31.6849 27.2603 31.6849H29.7397C29.8972 31.6849 30.0482 31.7474 30.1596 31.8588C30.2709 31.9701 30.3335 32.1211 30.3335 32.2786ZM29.146 32.8724H27.854V34.998H29.146V32.8724ZM35.4398 32.2786V35.5917C35.4398 35.7492 35.3772 35.9002 35.2658 36.0116C35.1545 36.1229 35.0035 36.1855 34.846 36.1855H32.3653C32.2078 36.1855 32.0568 36.1229 31.9455 36.0116C31.8341 35.9002 31.7716 35.7492 31.7716 35.5917V32.2786C31.7716 32.1211 31.8341 31.9701 31.9455 31.8588C32.0568 31.7474 32.2078 31.6849 32.3653 31.6849H34.846C34.924 31.6849 35.0012 31.7002 35.0732 31.7301C35.1453 31.7599 35.2107 31.8036 35.2658 31.8588C35.321 31.9139 35.3647 31.9794 35.3946 32.0514C35.4244 32.1234 35.4398 32.2006 35.4398 32.2786ZM34.2523 32.8724H32.9591V34.998H34.2523V32.8724ZM25.2272 32.2786V35.5917C25.2272 35.7492 25.1647 35.9002 25.0533 36.0116C24.942 36.1229 24.791 36.1855 24.6335 36.1855H22.154C21.9965 36.1855 21.8455 36.1229 21.7342 36.0116C21.6228 35.9002 21.5602 35.7492 21.5602 35.5917V32.2786C21.5602 32.1211 21.6228 31.9701 21.7342 31.8588C21.8455 31.7474 21.9965 31.6849 22.154 31.6849H24.6347C24.7922 31.6849 24.9432 31.7474 25.0545 31.8588C25.1659 31.9701 25.2284 32.1211 25.2284 32.2786H25.2272ZM24.0397 32.8724H22.7477V34.998H24.0409L24.0397 32.8724ZM16.9148 35.3305V38.6436C16.9148 38.8011 16.8522 38.9521 16.7408 39.0635C16.6295 39.1748 16.4785 39.2374 16.321 39.2374H13.8403C13.6828 39.2374 13.5318 39.1748 13.4205 39.0635C13.3091 38.9521 13.2466 38.8011 13.2466 38.6436V35.3305C13.2466 35.173 13.3091 35.022 13.4205 34.9107C13.5318 34.7993 13.6828 34.7367 13.8403 34.7367H16.321C16.4785 34.7367 16.6295 34.7993 16.7408 34.9107C16.8522 35.022 16.9148 35.173 16.9148 35.3305ZM15.7273 35.9242H14.4341V38.0499H15.7273V35.9242ZM12.2633 35.3305V38.6436C12.2633 38.8011 12.2008 38.9521 12.0894 39.0635C11.9781 39.1748 11.827 39.2374 11.6696 39.2374H9.19006C9.03259 39.2374 8.88157 39.1748 8.77022 39.0635C8.65887 38.9521 8.59631 38.8011 8.59631 38.6436V35.3305C8.59631 35.173 8.65887 35.022 8.77022 34.9107C8.88157 34.7993 9.03259 34.7367 9.19006 34.7367H11.6696C11.827 34.7367 11.9781 34.7993 12.0894 34.9107C12.2008 35.022 12.2633 35.173 12.2633 35.3305ZM11.0758 35.9242H9.78381V38.0499H11.0758V35.9242ZM16.9148 41.5482V44.8614C16.9148 45.0188 16.8522 45.1699 16.7408 45.2812C16.6295 45.3926 16.4785 45.4551 16.321 45.4551H13.8403C13.6828 45.4551 13.5318 45.3926 13.4205 45.2812C13.3091 45.1699 13.2466 45.0188 13.2466 44.8614V41.5482C13.2466 41.3908 13.3091 41.2397 13.4205 41.1284C13.5318 41.017 13.6828 40.9545 13.8403 40.9545H16.321C16.4785 40.9545 16.6295 41.017 16.7408 41.1284C16.8522 41.2397 16.9148 41.3908 16.9148 41.5482ZM15.7273 42.142H14.4341V44.2676H15.7273V42.142ZM12.2633 41.5482V44.8614C12.2633 45.0188 12.2008 45.1699 12.0894 45.2812C11.9781 45.3926 11.827 45.4551 11.6696 45.4551H9.19006C9.03259 45.4551 8.88157 45.3926 8.77022 45.2812C8.65887 45.1699 8.59631 45.0188 8.59631 44.8614V41.5482C8.59631 41.3908 8.65887 41.2397 8.77022 41.1284C8.88157 41.017 9.03259 40.9545 9.19006 40.9545H11.6696C11.827 40.9545 11.9781 41.017 12.0894 41.1284C12.2008 41.2397 12.2633 41.3908 12.2633 41.5482ZM11.0758 42.142H9.78381V44.2676H11.0758V42.142ZM40.0853 38.6436V35.3305C40.0853 35.173 40.1478 35.022 40.2592 34.9107C40.3705 34.7993 40.5215 34.7367 40.679 34.7367H43.1597C43.3172 34.7367 43.4682 34.7993 43.5795 34.9107C43.6909 35.022 43.7534 35.173 43.7534 35.3305V38.6436C43.7534 38.8011 43.6909 38.9521 43.5795 39.0635C43.4682 39.1748 43.3172 39.2374 43.1597 39.2374H40.679C40.5215 39.2374 40.3705 39.1748 40.2592 39.0635C40.1478 38.9521 40.0853 38.8011 40.0853 38.6436ZM41.2728 38.0499H42.5659V35.9242H41.2728V38.0499ZM44.7367 38.6436V35.3305C44.7367 35.173 44.7992 35.022 44.9106 34.9107C45.0219 34.7993 45.173 34.7367 45.3304 34.7367H47.8099C47.9674 34.7367 48.1184 34.7993 48.2298 34.9107C48.3411 35.022 48.4037 35.173 48.4037 35.3305V38.6436C48.4037 38.8011 48.3411 38.9521 48.2298 39.0635C48.1184 39.1748 47.9674 39.2374 47.8099 39.2374H45.3304C45.173 39.2374 45.0219 39.1748 44.9106 39.0635C44.7992 38.9521 44.7367 38.8011 44.7367 38.6436ZM45.9242 38.0499H47.2162V35.9242H45.9242V38.0499ZM40.0853 44.8614V41.5482C40.0853 41.3908 40.1478 41.2397 40.2592 41.1284C40.3705 41.017 40.5215 40.9545 40.679 40.9545H43.1597C43.3172 40.9545 43.4682 41.017 43.5795 41.1284C43.6909 41.2397 43.7534 41.3908 43.7534 41.5482V44.8614C43.7534 45.0188 43.6909 45.1699 43.5795 45.2812C43.4682 45.3926 43.3172 45.4551 43.1597 45.4551H40.679C40.5215 45.4551 40.3705 45.3926 40.2592 45.2812C40.1478 45.1699 40.0853 45.0188 40.0853 44.8614ZM41.2728 44.2676H42.5659V42.142H41.2728V44.2676ZM44.7367 44.8614V41.5482C44.7367 41.3908 44.7992 41.2397 44.9106 41.1284C45.0219 41.017 45.173 40.9545 45.3304 40.9545H47.8099C47.9674 40.9545 48.1184 41.017 48.2298 41.1284C48.3411 41.2397 48.4037 41.3908 48.4037 41.5482V44.8614C48.4037 45.0188 48.3411 45.1699 48.2298 45.2812C48.1184 45.3926 47.9674 45.4551 47.8099 45.4551H45.3304C45.173 45.4551 45.0219 45.3926 44.9106 45.2812C44.7992 45.1699 44.7367 45.0188 44.7367 44.8614ZM45.9242 44.2676H47.2162V42.142H45.9242V44.2676ZM32.1682 24.8092H24.8318C24.6743 24.8092 24.5233 24.8718 24.412 24.9832C24.3006 25.0945 24.2381 25.2455 24.2381 25.403C24.2381 25.5605 24.3006 25.7115 24.412 25.8228C24.5233 25.9342 24.6743 25.9967 24.8318 25.9967H32.1682C32.3257 25.9967 32.4767 25.9342 32.588 25.8228C32.6994 25.7115 32.7619 25.5605 32.7619 25.403C32.7619 25.2455 32.6994 25.0945 32.588 24.9832C32.4767 24.8718 32.3257 24.8092 32.1682 24.8092ZM27.873 24.2951H29.127C29.2845 24.2951 29.4355 24.2325 29.5468 24.1212C29.6582 24.0098 29.7207 23.8588 29.7207 23.7013C29.7207 23.5438 29.6582 23.3928 29.5468 23.2815C29.4355 23.1701 29.2845 23.1076 29.127 23.1076H27.873C27.7155 23.1076 27.5645 23.1701 27.4532 23.2815C27.3418 23.3928 27.2793 23.5438 27.2793 23.7013C27.2793 23.8588 27.3418 24.0098 27.4532 24.1212C27.5645 24.2325 27.7155 24.2951 27.873 24.2951Z" fill="#1F61EB" fill-opacity="0.99"/>
</svg>
