<svg width="667" height="467" viewBox="0 0 667 467" fill="none" xmlns="http://www.w3.org/2000/svg">
<g id="sirdaryo_region">
<g id="regions" filter="url(#filter0_d_163_141)">
<path id="district12_1" d="M282.072 375.038C282.17 375.158 282.248 375.254 282.305 375.323L282.713 383.245L280.72 397.656L280.716 397.686L280.715 397.716L280.358 418.884L271.43 415.641L271.396 415.629L271.362 415.622L271.259 416.111L271.362 415.622L271.362 415.621L271.361 415.621L271.358 415.621L271.346 415.618L271.299 415.608L271.118 415.571C270.961 415.538 270.731 415.491 270.443 415.432C269.866 415.314 269.053 415.151 268.11 414.968C266.226 414.601 263.815 414.153 261.722 413.832L261.708 413.83L261.695 413.829C258.087 413.477 254.453 413.477 250.845 413.828C249.154 413.913 247.468 414.098 245.798 414.382L245.779 414.385L245.759 414.39C245.384 414.485 244.524 414.817 243.493 415.236C242.444 415.663 241.173 416.199 239.946 416.724C238.718 417.249 237.532 417.764 236.654 418.147C236.214 418.338 235.852 418.497 235.599 418.608L235.306 418.737L235.282 418.747L212.521 420.395L197.671 413.869L197.575 413.827H197.47H181.968L181.918 413.818L181.646 413.769C181.409 413.727 181.066 413.666 180.639 413.591C179.785 413.442 178.596 413.238 177.254 413.019C174.573 412.581 171.271 412.078 168.815 411.829C166.352 411.579 161.462 411.442 157.21 411.368C155.079 411.33 153.101 411.308 151.656 411.296C150.933 411.289 150.343 411.285 149.934 411.283C149.858 411.283 149.787 411.282 149.724 411.282L147.494 396.927L147.468 396.758L147.343 396.64L136.728 386.611L183.754 342.067L184.045 341.791L183.839 341.446L174.775 326.339L178.126 308.929L187.499 314.004L187.539 314.026L187.583 314.04L268.427 340.316C268.668 342.33 268.796 344.357 268.809 346.386C268.78 346.968 268.906 347.744 269.089 348.542C269.277 349.361 269.536 350.251 269.797 351.069C270.058 351.889 270.323 352.643 270.522 353.193C270.621 353.467 270.704 353.691 270.763 353.847C270.792 353.924 270.815 353.985 270.831 354.026L270.84 354.049C271.36 356.65 272.085 359.205 273.008 361.692C273.42 362.815 274.223 364.238 275.173 365.72C276.129 367.21 277.252 368.789 278.323 370.228C279.394 371.668 280.416 372.973 281.169 373.918C281.546 374.391 281.856 374.774 282.072 375.038Z" fill="#BFE2C8" stroke="white"/>
<path id="district12_2" d="M382.002 379.331C382.015 379.343 382.027 379.355 382.039 379.367C382.142 379.465 382.225 379.545 382.283 379.6L382.35 379.665L382.363 379.678C383.429 378.446 384.13 376.937 384.382 375.322C384.815 372.572 384.954 369.784 384.795 367.005L384.463 367.379C384.411 367.333 384.359 367.287 384.307 367.242M382.002 379.331C382.997 378.174 383.652 376.759 383.888 375.245L383.888 375.244C384.305 372.598 384.446 369.916 384.307 367.242M382.002 379.331C381.801 379.139 381.534 378.886 381.243 378.614C380.633 378.044 379.896 377.372 379.456 377.032C379.391 376.983 379.27 376.865 379.092 376.664C378.919 376.471 378.712 376.223 378.479 375.931C378.012 375.348 377.45 374.607 376.87 373.819C375.711 372.242 374.491 370.496 373.831 369.495C372.681 367.75 371.026 366.912 369.685 366.233C369.371 366.073 369.074 365.923 368.804 365.772C368.019 365.331 364.046 363.57 360.047 361.824C356.028 360.071 351.928 358.309 350.848 357.855C349.773 357.402 345.515 355.593 341.55 353.899C339.568 353.052 337.659 352.234 336.259 351.63C335.762 351.415 335.33 351.227 334.981 351.075C335.57 350.737 336.121 350.333 336.622 349.871L336.632 349.863L336.641 349.853C336.865 349.624 337.052 349.264 337.201 348.922C337.358 348.562 337.502 348.154 337.623 347.774C337.745 347.394 337.847 347.035 337.918 346.771C337.953 346.639 337.981 346.531 338 346.455C338.01 346.417 338.018 346.387 338.023 346.366L338.028 346.343L338.03 346.336L338.03 346.335L338.031 346.334L338.031 346.334C338.031 346.334 338.031 346.334 337.545 346.217L338.031 346.334L338.114 345.986L337.813 345.795L309.452 327.77L309.029 327.501L308.761 327.925L308.023 329.093L307.474 329.304C306.483 329.345 305.492 329.248 304.529 329.014L304.5 329.007L304.472 329.003C303.963 328.941 303.478 328.756 303.057 328.465C302.635 328.173 302.291 327.784 302.053 327.331L302.023 327.272L301.979 327.224L301.611 327.563C301.979 327.224 301.978 327.224 301.978 327.224L301.978 327.224L301.977 327.223L301.974 327.219L301.96 327.205L301.908 327.148L301.708 326.931C301.534 326.744 301.285 326.475 300.98 326.148C300.369 325.495 299.536 324.609 298.646 323.68C296.881 321.84 294.842 319.778 293.886 319.062C292.82 318.264 291.679 318.204 290.551 318.449C289.658 318.643 288.722 319.042 287.806 319.433C287.601 319.521 287.397 319.608 287.194 319.692C285.992 320.193 284.357 321.262 282.691 322.483C281.013 323.711 279.265 325.122 277.825 326.333C276.37 327.556 274.307 329.571 272.618 331.268C271.772 332.119 271.015 332.895 270.47 333.457C270.197 333.738 269.978 333.967 269.826 334.125L269.652 334.307L269.606 334.354L269.595 334.366L269.592 334.37L269.591 334.37L269.591 334.371C269.591 334.371 269.591 334.371 269.639 334.417L269.591 334.371L269.5 334.465L269.468 334.592L268.3 339.162L188.781 313.402L178.079 307.738L178.042 307.718L178.004 307.705L155.738 300.239L160.088 282.206L169.639 275.096L178.618 281.621L179.254 282.084L179.403 281.311L182.995 262.614L191.834 237.77L191.885 237.627L191.847 237.479L189.267 227.397L215.399 236.55L245.764 262.302L245.966 262.473L246.221 262.402L259.432 258.742L272.71 269.577L268.684 277.807L268.425 278.338L268.991 278.506L287.413 283.966L288.118 287.336L288.123 287.361L288.131 287.385L288.608 287.234C288.131 287.385 288.131 287.385 288.131 287.385L288.131 287.386L288.132 287.387L288.133 287.391L288.137 287.404L288.154 287.456C288.16 287.473 288.166 287.492 288.174 287.515C288.186 287.552 288.201 287.597 288.219 287.649C288.276 287.815 288.361 288.053 288.47 288.343C288.689 288.924 289.011 289.717 289.42 290.567C289.828 291.416 290.328 292.33 290.906 293.148C291.48 293.961 292.151 294.707 292.911 295.191C294.214 296.019 295.557 297.234 296.959 298.501L297.02 298.556C298.426 299.828 299.89 301.146 301.366 302.074C302 302.472 302.708 303.23 303.433 304.243C304.152 305.246 304.86 306.462 305.505 307.735C306.798 310.29 307.803 313.013 308.114 314.627C308.294 315.565 308.832 316.59 309.492 317.574C310.158 318.567 310.979 319.56 311.771 320.439C312.565 321.318 313.337 322.091 313.91 322.643C314.197 322.92 314.435 323.141 314.601 323.294C314.684 323.371 314.75 323.43 314.795 323.471L314.846 323.517L314.86 323.529L314.863 323.532L314.864 323.533L314.865 323.533C314.865 323.533 314.865 323.534 315.197 323.159L314.865 323.534L314.971 323.628L315.111 323.652L318.567 324.254L321.893 326.3L327.878 331.263L327.983 331.349L328.117 331.371L332.415 332.072L338.518 334.526L340.997 337.749L341.002 337.755L347.271 345.665L347.399 345.827L347.604 345.851C349.208 346.04 350.8 346.322 352.372 346.696C357.198 348.12 361.818 350.167 366.115 352.785C369.487 354.858 371.777 356.753 373.219 358.122C373.94 358.807 374.449 359.36 374.776 359.74C374.94 359.93 375.057 360.076 375.133 360.173C375.144 360.186 375.154 360.199 375.163 360.211M382.002 379.331L375.163 360.211M384.307 367.242C382.578 365.736 380.628 364.506 378.524 363.595C376.92 363.001 376.063 362.157 375.614 361.417C375.391 361.05 375.275 360.718 375.214 360.471C375.188 360.368 375.173 360.281 375.163 360.211M384.307 367.242L375.163 360.211" fill="#BFE2C8" stroke="white"/>
<path id="district12_3" d="M318.882 421.368L318.882 421.368L318.871 421.365C317.342 420.945 315.811 421.166 313.919 421.472C313.8 421.492 313.679 421.511 313.556 421.531C311.71 421.832 309.44 422.203 306.336 422.265C304.361 422.304 302.781 422.364 301.407 422.415C298.093 422.539 295.98 422.618 292.426 422.268C288.647 421.712 284.945 420.723 281.393 419.321L281.404 418.849C281.416 418.327 281.433 417.578 281.453 416.674C281.494 414.865 281.548 412.434 281.599 409.945C281.701 404.981 281.796 399.747 281.758 398.797C281.742 398.379 281.841 397.265 282.015 395.756C282.186 394.268 282.423 392.443 282.667 390.64C283.072 387.652 283.497 384.73 283.676 383.496C283.713 383.239 283.74 383.056 283.754 382.959C283.801 382.627 283.794 381.96 283.767 381.204C283.739 380.426 283.687 379.498 283.631 378.608C283.574 377.718 283.512 376.863 283.465 376.231C283.441 375.914 283.421 375.654 283.407 375.472L283.39 375.262L283.386 375.206L283.384 375.192L283.384 375.189L283.384 375.188L283.384 375.187L282.886 375.228L283.384 375.187L283.373 375.05L283.292 374.937L280.958 371.668L280.948 371.655L280.938 371.642C278.521 368.686 276.39 365.508 274.573 362.15C273.111 359.43 272.587 357.746 272.335 356.564C272.246 356.145 272.192 355.796 272.141 355.467C272.118 355.32 272.095 355.177 272.071 355.033C271.995 354.589 271.901 354.164 271.699 353.722C270.879 351.18 270.21 348.592 269.695 345.972L269.391 339.585L270.421 335.3C270.432 335.282 270.445 335.26 270.461 335.233C270.514 335.147 270.6 335.014 270.724 334.834C270.974 334.476 271.379 333.934 271.996 333.217C273.228 331.782 275.303 329.648 278.653 326.883C282.005 324.117 284.474 322.45 286.223 321.404C287.097 320.881 287.793 320.512 288.333 320.238C288.503 320.151 288.663 320.072 288.809 319.999C289.114 319.847 289.365 319.722 289.544 319.617C289.707 319.522 289.97 319.447 290.318 319.404C290.656 319.361 291.032 319.354 291.39 319.364C291.746 319.374 292.074 319.402 292.314 319.427C292.409 319.437 292.489 319.447 292.552 319.455L294.427 321.119L302.748 329.379L302.843 329.473L302.972 329.507L302.973 329.507L302.973 329.508L302.975 329.508L302.985 329.511L303.022 329.521L303.166 329.559C303.289 329.593 303.467 329.641 303.681 329.701C304.109 329.82 304.683 329.983 305.268 330.16L305.279 330.164L305.29 330.167C306.181 330.392 307.114 330.392 308.005 330.167L308.159 330.128L308.262 330.007L309.306 328.788L313.234 331.204L324.426 338.657L324.432 338.661L324.439 338.665L336.955 346.489C336.918 346.579 336.874 346.685 336.824 346.807C336.63 347.277 336.332 347.982 335.917 348.918C335.703 349.391 335.373 349.802 334.96 350.115C334.546 350.429 334.059 350.633 333.546 350.711L333.452 351.677L338.471 353.471L351.608 359.223L351.611 359.224L364.235 364.669L364.238 364.67L364.287 364.695L364.471 364.787C364.63 364.867 364.859 364.981 365.138 365.121C365.695 365.401 366.45 365.78 367.242 366.18C368.832 366.982 370.557 367.859 371.145 368.181C371.359 368.298 371.697 368.604 372.142 369.105C372.573 369.591 373.064 370.214 373.586 370.91C374.288 371.846 375.028 372.893 375.738 373.895C376.086 374.388 376.427 374.869 376.751 375.322L376.756 375.329L376.762 375.336C378.234 377.242 379.975 378.925 381.931 380.33L382.335 380.621L382.628 380.217L383.593 378.884L383.63 378.834L383.653 378.776C384.358 377.007 384.958 375.197 385.449 373.357L385.46 373.315L385.464 373.272C385.508 372.765 385.507 371.185 385.497 369.771C385.492 369.055 385.484 368.369 385.477 367.863C385.477 367.822 385.476 367.782 385.476 367.743L388.821 368.908L388.877 368.927L388.935 368.933L392.475 369.295L393.821 370.197L401.379 375.684L401.451 375.736L401.536 375.76L407.007 377.317L407.015 377.319L413.54 379.06L419.955 382.239C420.195 382.685 420.394 383.152 420.549 383.635C420.559 383.701 420.577 383.752 420.586 383.777C420.608 383.841 420.638 383.906 420.671 383.97C420.738 384.1 420.833 384.255 420.955 384.426C421.2 384.77 421.568 385.201 422.07 385.652C423.076 386.556 424.627 387.549 426.811 388.083C428.932 388.601 430.121 388.695 431.089 388.6C431.568 388.552 431.981 388.46 432.396 388.365L432.438 388.355C432.843 388.263 433.262 388.167 433.792 388.092C434.928 387.931 437.713 387.596 440.221 387.299C441.473 387.151 442.654 387.013 443.522 386.912C443.956 386.862 444.312 386.821 444.559 386.792L444.845 386.759L444.881 386.755L444.952 386.765L445.309 386.815C445.604 386.857 446 386.912 446.401 386.967C446.801 387.022 447.207 387.077 447.522 387.117C447.679 387.137 447.816 387.154 447.919 387.166C447.971 387.171 448.016 387.176 448.053 387.179C448.06 387.18 448.075 387.181 448.095 387.182C448.101 387.184 448.108 387.187 448.116 387.19C448.173 387.21 448.256 387.243 448.369 387.29C448.543 387.362 448.769 387.459 449.041 387.576C449.117 387.609 449.197 387.643 449.28 387.679C450.036 388.003 451.057 388.436 452.172 388.858L452.19 388.866L452.21 388.871C453.684 389.297 455.097 389.911 456.413 390.698L456.42 390.702C457.514 391.333 459.986 393.027 462.207 394.581C463.313 395.354 464.349 396.087 465.109 396.627C465.489 396.897 465.799 397.118 466.015 397.272L466.264 397.45L466.329 397.497L466.34 397.504L466.346 397.509L466.348 397.51L466.38 397.535L466.505 397.632C466.614 397.716 466.775 397.84 466.98 397.999C467.39 398.316 467.977 398.771 468.685 399.322C470.101 400.423 471.999 401.906 473.931 403.433C475.862 404.961 477.825 406.531 479.369 407.808C480.142 408.447 480.807 409.01 481.31 409.456C481.831 409.918 482.136 410.218 482.231 410.346C482.701 410.983 482.962 411.733 483.176 412.561C483.24 412.806 483.3 413.065 483.362 413.33C483.501 413.922 483.646 414.545 483.848 415.116L483.856 415.139L483.867 415.16C484.208 415.892 484.726 416.527 485.374 417.009C486.021 417.491 486.778 417.805 487.577 417.922L487.587 417.923L487.597 417.924C487.596 417.924 487.598 417.924 487.603 417.925C487.608 417.926 487.615 417.928 487.624 417.93C487.633 417.932 487.642 417.934 487.653 417.937C487.668 417.942 487.685 417.947 487.704 417.953C487.771 417.975 487.857 418.007 487.96 418.049C488.167 418.135 488.425 418.255 488.72 418.401C489.31 418.693 490.021 419.076 490.711 419.46C491.4 419.842 492.063 420.223 492.555 420.507C492.8 420.65 493.002 420.768 493.143 420.851L493.306 420.947L493.348 420.972L493.351 420.973C496.489 423.077 499.814 424.889 503.283 426.385C506.217 427.665 507.749 428.506 508.541 429.016C508.925 429.264 509.125 429.428 509.223 429.52V432.546V432.669L509.279 432.777L510.341 434.813L510.482 435.082H510.785H515.048H515.229L515.368 434.965L515.048 434.582L515.368 434.965L515.369 434.965L515.369 434.965L515.371 434.963L515.38 434.955L515.415 434.926L515.547 434.816C515.661 434.721 515.824 434.583 516.024 434.415C516.423 434.08 516.964 433.623 517.535 433.138C518.67 432.174 519.942 431.08 520.423 430.615C520.608 430.436 521.096 430.107 521.786 429.691C522.457 429.286 523.267 428.829 524.053 428.397C524.838 427.966 525.595 427.563 526.155 427.267C526.422 427.126 526.644 427.01 526.804 426.927L530.531 429.656L535.899 439.521L534.546 440.181L528.515 441.433H522.191L517.111 438.934L517.007 438.883H516.891H509.474L495.007 437.943L492.809 437.577L484.426 434.63L484.346 434.602H484.261H466.378H466.352L466.327 434.604L440.479 437.235L440.45 437.238L440.422 437.244L426.714 440.259L426.547 440.296L426.438 440.427L424.911 442.257C424.866 442.28 424.805 442.312 424.726 442.355C424.525 442.463 424.2 442.646 423.695 442.945C422.686 443.542 420.951 444.609 418.039 446.491C412.398 450.138 406.734 449.489 403.31 449.097L403.286 449.094C401.636 448.905 398.404 447.925 395.534 446.97C394.11 446.496 392.793 446.034 391.831 445.69C391.35 445.518 390.959 445.376 390.687 445.277C390.552 445.228 390.446 445.189 390.374 445.163L390.293 445.132L390.273 445.125L390.267 445.123L390.266 445.122L390.266 445.122L390.092 445.591L390.266 445.122L390.076 445.052L389.89 445.133C388.443 445.77 387.035 446.491 385.673 447.294L385.578 447.35C385.499 447.384 385.377 447.43 385.212 447.49C384.882 447.609 384.408 447.768 383.837 447.954C382.694 448.325 381.176 448.798 379.657 449.263C378.139 449.729 376.623 450.187 375.486 450.529C374.918 450.7 374.445 450.841 374.113 450.94L373.729 451.055L373.628 451.085L373.602 451.093L373.595 451.095L373.594 451.096L373.593 451.096L373.585 451.098L338.881 462.072L332.369 462.982L332.269 462.996L332.183 463.047L331.207 463.629L322.205 456.108L321.199 449.832L321.198 449.823L319.866 442.323L319.845 442.205L319.773 442.11L316.481 437.746L325.643 435.839L326.041 435.757V435.35V427.92V427.827L326.007 427.739L323.891 422.285L323.763 421.956L323.411 421.966C321.879 422.009 320.35 421.807 318.882 421.368ZM448.069 387.174C448.07 387.174 448.071 387.174 448.073 387.175C448.06 387.172 448.058 387.171 448.069 387.174ZM385.642 447.321C385.642 447.321 385.642 447.321 385.641 447.321C385.641 447.321 385.641 447.321 385.641 447.321L385.642 447.321Z" fill="#BFE2C8" stroke="white"/>
<path id="district12_4" d="M360.367 268.869L360.18 268.582L362.295 269.219L362.419 269.257L362.546 269.229L362.439 268.741C362.546 269.229 362.546 269.229 362.546 269.229L362.547 269.229L362.547 269.229L362.55 269.228L362.557 269.227L362.585 269.22C362.609 269.215 362.643 269.207 362.686 269.196C362.772 269.175 362.895 269.144 363.043 269.103C363.339 269.021 363.741 268.898 364.163 268.735C364.582 268.572 365.036 268.365 365.427 268.11C365.808 267.861 366.187 267.53 366.376 267.098C366.516 266.777 366.595 266.539 366.651 266.352C366.671 266.285 366.686 266.231 366.699 266.187C366.725 266.097 366.739 266.047 366.762 265.993C366.8 265.902 366.858 265.795 367.39 265.388C367.79 265.081 368.191 264.665 368.57 264.273C368.723 264.115 368.872 263.96 369.016 263.819C369.543 263.299 370.045 262.891 370.595 262.713C372.925 262.288 375.275 261.981 377.636 261.795H380.108C380.132 261.891 380.16 262.004 380.192 262.133C380.306 262.591 380.469 263.252 380.665 264.057C381.057 265.668 381.582 267.86 382.113 270.183C382.643 272.506 383.179 274.957 383.594 277.089C384.011 279.232 384.299 281.018 384.344 282.028C384.442 284.211 385.465 287.861 386.434 290.978C386.824 292.236 387.211 293.422 387.532 294.407C387.612 294.652 387.688 294.884 387.759 295.102C387.937 295.651 388.083 296.106 388.183 296.441C388.233 296.609 388.27 296.741 388.294 296.837C388.306 296.885 388.313 296.919 388.317 296.94C388.317 296.941 388.317 296.941 388.317 296.942C388.312 297.128 388.329 297.479 388.349 297.878C388.353 297.942 388.356 298.008 388.36 298.076C388.38 298.471 388.403 298.925 388.421 299.388C388.441 299.931 388.452 300.476 388.441 300.94C388.428 301.424 388.392 301.758 388.341 301.916C388.299 302.046 388.268 302.169 388.242 302.27L388.241 302.277C388.213 302.386 388.193 302.462 388.171 302.528C388.13 302.646 388.1 302.674 388.065 302.695C388.007 302.732 387.859 302.79 387.498 302.804C387.143 302.817 386.636 302.787 385.903 302.697L385.903 302.697L385.892 302.695C384.575 302.562 383.266 302.353 381.973 302.072L381.587 301.987L381.416 302.343L381.866 302.56C381.416 302.343 381.416 302.343 381.416 302.344L381.415 302.345L381.414 302.347L381.412 302.351L381.408 302.361C381.405 302.368 381.402 302.375 381.398 302.384C381.391 302.401 381.384 302.421 381.377 302.445C381.362 302.492 381.347 302.552 381.335 302.625C381.312 302.773 381.305 302.969 381.341 303.216C381.413 303.71 381.657 304.396 382.277 305.3C382.587 305.752 382.933 306.172 383.263 306.564C383.319 306.63 383.375 306.696 383.43 306.761C383.703 307.083 383.958 307.384 384.185 307.686C384.734 308.415 385.024 309.029 384.947 309.676C384.928 309.834 384.908 309.998 384.887 310.167C384.798 310.882 384.701 311.673 384.665 312.406C384.623 313.281 384.661 314.196 384.99 314.846C385.482 316.004 386.291 316.999 387.326 317.716L387.364 317.742L387.406 317.761C387.707 317.896 388.054 317.926 388.328 317.949C388.35 317.951 388.372 317.953 388.394 317.954C388.67 317.977 388.925 317.999 389.187 318.064C389.7 318.194 390.287 318.507 390.816 319.557L390.824 319.573L390.833 319.588C393.134 323.452 394.782 327.669 395.71 332.069C396.636 336.717 396.757 337.206 397.633 340.756C398 342.244 398.5 344.269 399.247 347.364C400.516 352.616 402.471 360.043 404.108 366.153C404.926 369.209 405.666 371.937 406.2 373.901C406.468 374.883 406.684 375.674 406.833 376.219L406.839 376.238C404.969 375.746 403.135 375.126 401.351 374.381C400.511 373.927 398.46 372.498 396.577 371.149C395.636 370.475 394.748 369.83 394.095 369.353C393.769 369.114 393.502 368.918 393.316 368.781L393.102 368.623L393.046 368.582L393.032 368.571L393.028 368.569L393.027 368.568L393.027 368.568L392.729 368.97L393.027 368.568L392.927 368.494L392.804 368.475L388.768 367.87L384.658 366.409C383.506 365.415 382.3 364.485 381.045 363.624L381.045 363.624L381.036 363.618C380.411 363.209 379.682 362.887 379.016 362.592C378.755 362.477 378.504 362.366 378.273 362.255C377.399 361.839 376.757 361.42 376.43 360.803L376.424 360.79L376.416 360.778C374.879 358.237 372.803 356.065 370.335 354.413C367.39 352.42 360.939 348.556 356.597 347.071L356.594 347.07C353.889 346.165 351.119 345.471 348.307 344.995L339.562 334.003L339.478 333.897L339.352 333.848L332.283 331.094L332.235 331.075L332.184 331.067L328.193 330.401C326.16 328.417 323.99 326.579 321.698 324.901L321.698 324.901L321.691 324.896C319.963 323.675 318.405 323.144 317.265 322.921C316.696 322.809 316.233 322.775 315.907 322.769C315.777 322.767 315.668 322.769 315.583 322.773C313.467 321.19 311.702 319.184 310.402 316.883C309.497 315.253 308.819 313.379 308.118 311.441C307.989 311.084 307.859 310.725 307.727 310.365C306.885 308.073 305.952 305.752 304.525 303.848C303.102 301.951 301.303 300.458 299.616 299.169C299.23 298.874 298.852 298.591 298.487 298.317C297.231 297.377 296.12 296.546 295.311 295.695C294.435 294.775 293.714 294.462 293.163 294.223C292.99 294.148 292.834 294.08 292.695 294.003C292.141 293.696 291.507 293.12 290.487 290.759C289.467 288.396 288.954 286.599 288.696 285.402C288.602 284.963 288.541 284.605 288.503 284.328L304.67 288.97L304.996 289.064L305.204 288.796L311.598 280.536L329.073 281.683L329.184 281.69L329.287 281.649L360.13 269.608L360.703 269.385L360.367 268.869Z" fill="#BFE2C8" stroke="white"/>
<path id="district12_5" d="M443.011 385.937C443.883 385.878 444.758 385.878 445.631 385.937L445.652 385.938L445.673 385.941L445.597 386.436C445.673 385.941 445.673 385.941 445.673 385.941L445.673 385.942L445.674 385.942L445.678 385.942L445.693 385.945L445.747 385.953C445.794 385.961 445.864 385.972 445.953 385.987C446.132 386.018 446.39 386.063 446.709 386.124C447.348 386.245 448.233 386.427 449.22 386.672C451.18 387.157 453.6 387.9 455.282 388.925C456.908 389.915 459.582 391.723 461.84 393.276C462.971 394.054 464.001 394.771 464.748 395.293C465.122 395.554 465.425 395.767 465.635 395.914L465.876 396.084L465.939 396.128L465.956 396.139L465.96 396.142L465.961 396.143L465.961 396.143C465.961 396.143 465.961 396.143 465.902 396.227L465.961 396.143L465.971 396.15L465.98 396.157L480.742 407.66C482.247 408.489 483.414 409.82 484.039 411.421L484.044 411.433L484.049 411.446C484.252 412.061 484.38 412.659 484.486 413.204C484.509 413.323 484.531 413.439 484.552 413.551C484.63 413.962 484.7 414.328 484.79 414.663C484.903 415.087 485.036 415.409 485.219 415.649C485.392 415.879 485.627 416.056 485.989 416.164L486 416.167L486.012 416.171C487.337 416.637 488.616 417.223 489.834 417.921C490.108 418.045 490.885 418.46 491.884 419.007C492.936 419.583 494.27 420.324 495.612 421.078C498.285 422.578 501.029 424.146 501.641 424.551C501.9 424.721 502.457 424.999 503.186 425.332C503.903 425.659 504.751 426.023 505.565 426.364C506.378 426.705 507.155 427.021 507.729 427.253C508.016 427.368 508.251 427.463 508.416 427.528L508.605 427.604L508.655 427.623L508.667 427.628L508.67 427.629L508.671 427.63L508.671 427.63L508.488 428.095L508.671 427.63L508.787 427.676L508.868 427.77L510.187 429.316L510.307 429.456V429.641V432.215L510.87 433.942H514.791L517.042 431.927L517.048 431.922L519.914 429.274L519.941 429.248L519.972 429.227L521.261 428.352L521.295 428.329L521.333 428.311L525.911 426.209C525.568 425.929 525.1 425.546 524.544 425.089C523.346 424.104 521.742 422.778 520.118 421.412C518.494 420.046 516.846 418.637 515.563 417.489C514.921 416.916 514.367 416.403 513.95 415.992C513.742 415.786 513.564 415.602 513.425 415.444C513.295 415.298 513.169 415.142 513.097 415.001C512.913 414.639 512.662 413.904 512.377 413.037C512.299 412.803 512.219 412.556 512.135 412.299C511.901 411.582 511.642 410.79 511.365 409.987C510.99 408.897 510.585 407.802 510.173 406.872C509.754 405.926 509.35 405.206 508.991 404.824C508.111 403.886 506.271 401.199 504.679 398.798C503.877 397.587 503.127 396.432 502.578 395.581C502.303 395.155 502.079 394.804 501.923 394.56C501.845 394.439 501.784 394.343 501.743 394.278L501.696 394.204L501.684 394.185L501.681 394.18L501.68 394.179L501.68 394.179C501.68 394.179 501.68 394.179 502.102 393.911L501.68 394.179L501.589 394.036L501.604 393.867L502.282 386.131L502.298 385.946L502.432 385.816L508.966 379.475V374.755C508.938 374.722 508.906 374.685 508.87 374.643C508.733 374.481 508.536 374.249 508.3 373.965C507.828 373.399 507.196 372.628 506.558 371.811C505.921 370.994 505.272 370.125 504.771 369.364C504.52 368.984 504.301 368.623 504.137 368.304C503.98 367.999 503.847 367.683 503.815 367.406C503.733 366.696 503.51 365.297 503.306 364.064C503.204 363.45 503.107 362.882 503.036 362.466C503 362.259 502.971 362.089 502.951 361.972L502.928 361.837L502.921 361.802L502.92 361.793L502.919 361.79L502.919 361.79L502.919 361.79L503.412 361.704L502.919 361.79L502.908 361.724L502.914 361.658L502.914 361.658L502.914 361.657L502.914 361.653L502.916 361.637L502.922 361.572C502.926 361.514 502.934 361.428 502.942 361.317C502.96 361.095 502.983 360.77 503.008 360.364C503.058 359.551 503.112 358.412 503.13 357.108C503.167 354.492 503.058 351.249 502.491 348.653C502.351 348.01 502.216 347.382 502.084 346.772C501.672 344.857 501.298 343.121 500.925 341.655C500.68 340.689 500.438 339.852 500.19 339.167C499.94 338.476 499.694 337.97 499.453 337.645C498.881 336.877 498.334 336.13 497.929 335.575C497.727 335.298 497.56 335.068 497.444 334.908L497.401 334.848C497.259 334.84 497.054 334.827 496.796 334.81C496.258 334.776 495.484 334.725 494.544 334.66C492.665 334.53 490.116 334.344 487.442 334.116C484.769 333.889 481.967 333.62 479.581 333.326C477.213 333.035 475.205 332.713 474.155 332.37C472.797 331.926 471.297 331.495 469.844 331.077C469.172 330.884 468.51 330.693 467.877 330.506C466.882 330.212 465.958 329.925 465.194 329.649C464.443 329.377 463.798 329.1 463.391 328.815L463.376 328.804L463.361 328.792C462.927 328.434 462.452 328.132 461.944 327.892L461.922 327.888C461.867 327.878 461.786 327.863 461.682 327.844C461.474 327.806 461.174 327.752 460.806 327.689C460.07 327.562 459.065 327.397 457.99 327.245C456.913 327.093 455.771 326.954 454.758 326.879C453.731 326.802 452.884 326.795 452.374 326.885C451.768 326.992 451.185 327.137 450.588 327.286C449.025 327.675 447.361 328.089 444.919 327.911C443.25 327.79 439.159 327.223 435.509 326.692C433.679 326.425 431.952 326.166 430.683 325.973C430.048 325.877 429.528 325.797 429.166 325.742L428.748 325.678L428.639 325.661L428.611 325.656L428.604 325.655L428.602 325.655L428.601 325.655C428.601 325.655 428.601 325.655 428.678 325.161L428.601 325.655L428.572 325.65L428.543 325.642L419.623 323.155L419.622 323.155L415.729 322.061C414.06 321.985 412.393 322.273 410.845 322.904C410.494 323.072 410.007 323.167 409.476 323.224C408.921 323.283 408.264 323.306 407.55 323.303C406.121 323.297 404.429 323.188 402.814 323.047C401.198 322.905 399.651 322.731 398.508 322.591C397.936 322.522 397.465 322.461 397.137 322.418C397.092 322.412 397.05 322.406 397.011 322.401L396.991 322.45C396.89 322.702 396.754 323.045 396.609 323.411C396.317 324.148 395.999 324.964 395.873 325.325L395.863 325.355L395.849 325.382C395.5 326.09 395.412 326.898 395.602 327.664C395.797 328.353 398.915 340.633 401.986 352.75C403.531 358.843 405.066 364.901 406.214 369.435L407.6 374.909L407.988 376.44L408.046 376.671C408.208 376.701 408.426 376.743 408.685 376.793C409.263 376.906 410.045 377.063 410.859 377.242C411.672 377.42 412.523 377.621 413.236 377.821C413.593 377.921 413.921 378.022 414.196 378.122C414.461 378.218 414.713 378.326 414.891 378.446C415.353 378.757 416.839 379.503 418.259 380.191C418.959 380.53 419.627 380.849 420.121 381.082C420.368 381.199 420.571 381.295 420.713 381.361L420.876 381.438L420.919 381.458L420.93 381.463L420.932 381.464L420.933 381.464L420.933 381.464L420.722 381.918L420.933 381.465L421.339 381.654L421.197 382.074L421.196 382.075L421.196 382.076L421.196 382.077L421.192 382.09C421.189 382.101 421.185 382.117 421.18 382.138C421.178 382.147 421.175 382.157 421.173 382.168C421.157 382.24 421.137 382.35 421.127 382.489C421.106 382.766 421.122 383.153 421.272 383.584C421.561 384.418 422.398 385.544 424.796 386.322C425.221 386.459 425.606 386.585 425.956 386.699C427.699 387.266 428.583 387.554 429.168 387.676C429.499 387.745 429.706 387.755 429.906 387.736C430.097 387.718 430.288 387.674 430.592 387.605C430.64 387.594 430.69 387.583 430.744 387.571C431.525 387.395 434.225 387.009 436.883 386.659C439.544 386.308 442.234 385.984 443.011 385.937ZM443.011 385.937C443.011 385.937 443.012 385.937 443.012 385.937L443.043 386.436L443.009 385.937C443.009 385.937 443.01 385.937 443.011 385.937Z" fill="#BFE2C8" stroke="white"/>
<path id="district12_6" d="M396.328 321.27H396.668H397.205H397.237L397.269 321.274L397.205 321.77L397.269 321.274L397.27 321.274L397.271 321.274L397.276 321.275L397.297 321.278L397.379 321.288C397.451 321.298 397.557 321.311 397.692 321.328C397.963 321.363 398.353 321.411 398.827 321.469C399.775 321.585 401.058 321.736 402.403 321.88C403.748 322.023 405.15 322.158 406.335 322.242C407.541 322.326 408.469 322.353 408.9 322.297C409.316 322.243 409.744 322.075 410.316 321.847L410.319 321.846C410.874 321.624 411.531 321.362 412.33 321.185C413.952 320.826 416.096 320.83 419.279 322.025C425.041 324.187 429.446 324.86 434.974 325.705C435.355 325.763 435.741 325.822 436.134 325.883C439.175 326.351 441.95 326.752 444.2 326.944C445.324 327.04 446.307 327.082 447.12 327.056C447.942 327.03 448.549 326.934 448.946 326.778C449.154 326.696 449.344 326.619 449.522 326.546C450.119 326.302 450.581 326.113 451.176 326C451.947 325.852 452.946 325.826 454.842 325.877L454.854 325.877L454.854 325.878C457.522 326.015 460.164 326.462 462.727 327.21L462.791 327.228L462.848 327.263C465.957 329.157 469.41 330.42 473.008 330.978L473.013 330.978C474.714 331.26 476.24 331.53 477.641 331.778C481.468 332.455 484.35 332.965 487.263 333.081C489.295 333.163 491.943 333.449 494.072 333.712C495.139 333.844 496.079 333.971 496.753 334.065C497.09 334.112 497.361 334.151 497.547 334.178C497.64 334.191 497.712 334.202 497.761 334.209L497.817 334.217L497.831 334.22L497.835 334.22L497.836 334.22L497.836 334.22C497.836 334.22 497.836 334.22 497.832 334.252L497.836 334.22L498.022 334.248L498.144 334.392L497.762 334.715C498.144 334.392 498.144 334.392 498.144 334.392L498.144 334.392L498.145 334.392L498.147 334.395L498.154 334.403L498.181 334.436C498.204 334.464 498.239 334.505 498.282 334.558C498.369 334.664 498.494 334.817 498.644 335.006C498.945 335.384 499.35 335.91 499.767 336.498C500.184 337.086 500.619 337.742 500.974 338.382C501.325 339.012 501.621 339.663 501.731 340.232C501.816 340.67 501.967 341.367 502.154 342.231C502.781 345.134 503.815 349.92 504.124 353.099L504.125 353.111L504.125 353.111C504.315 355.766 504.236 358.433 503.89 361.07C504.147 360.989 504.462 360.89 504.821 360.777C505.842 360.456 507.217 360.026 508.632 359.592C510.046 359.157 511.503 358.716 512.687 358.374C513.847 358.038 514.8 357.78 515.167 357.732C515.792 357.651 516.482 357.531 517.018 357.431C517.286 357.381 517.514 357.336 517.675 357.303C517.691 357.3 517.705 357.297 517.72 357.294L522.616 349.376L522.866 339.477C520.725 337.107 518.708 334.627 516.825 332.048L516.82 332.041L516.815 332.034C515.798 330.539 514.786 329.367 513.924 328.55C513.492 328.142 513.104 327.827 512.775 327.605C512.438 327.378 512.197 327.272 512.057 327.242C511.586 327.14 510.684 326.927 509.906 326.741C509.515 326.647 509.154 326.56 508.89 326.496L508.576 326.42L508.49 326.399L508.468 326.393L508.462 326.392L508.461 326.392L508.46 326.392L508.579 325.906L508.46 326.392L507.935 326.264L508.103 325.75L509.255 322.231L509.337 321.98L509.591 321.907C511.31 321.407 512.992 320.784 514.622 320.045C515.663 319.203 516.582 318.221 517.351 317.126V316.176C517.32 316.175 517.288 316.175 517.255 316.175C516.895 316.171 516.406 316.166 515.889 316.163C514.845 316.157 513.711 316.157 513.269 316.181C513.092 316.19 512.815 316.246 512.449 316.337C512.214 316.396 511.963 316.464 511.701 316.535C511.561 316.573 511.418 316.612 511.273 316.65C510.861 316.76 510.435 316.867 510.05 316.937C509.679 317.004 509.287 317.048 508.967 316.995L508.913 316.986L508.862 316.966C507.466 316.405 506.131 315.704 504.877 314.873L504.618 314.701L504.658 314.392C504.863 312.813 505.404 311.297 506.245 309.945L506.25 309.936L506.256 309.927C507.277 308.43 508.399 307.004 509.616 305.661C508.894 302.192 508.407 298.679 508.159 295.144L508.158 295.133L508.158 295.121C508.108 293.097 508.239 291.073 508.55 289.073L508.593 288.799L508.848 288.69L515.009 286.051L513.611 283.612L510.736 282.961L506.17 286.041L505.769 286.311L505.485 285.919L503.51 283.19L503.416 283.059V282.897V280.492C502.401 280.582 501.376 280.416 500.437 280.003L500.413 279.992L500.391 279.979C499.604 279.531 498.952 278.879 498.504 278.092L498.438 277.977V277.845V273.119H496.326C494.364 274.254 492.167 274.925 489.904 275.078C488.554 275.247 487.193 275.318 485.833 275.292L485.711 275.29L485.604 275.231L485.843 274.792L485.604 275.231L485.604 275.231L485.603 275.231L485.6 275.229L485.587 275.222L485.537 275.195L485.347 275.091C485.183 275.002 484.947 274.873 484.661 274.716C484.089 274.402 483.315 273.975 482.506 273.522C480.909 272.627 479.12 271.599 478.542 271.164C478.103 270.833 477.763 270.539 477.502 270.313C477.431 270.251 477.365 270.194 477.305 270.143C477.161 270.02 477.059 269.941 476.978 269.889C476.907 269.844 476.877 269.838 476.875 269.838C476.855 269.836 476.829 269.833 476.797 269.829C476.493 269.792 475.664 269.693 474.662 269.763C473.546 269.842 472.285 270.129 471.325 270.889L471.318 270.895L471.318 270.895C470.636 271.414 470.083 272.082 469.698 272.847C469.314 273.613 469.109 274.456 469.1 275.312L469.099 275.336L469.097 275.359C469.028 276.008 468.859 277.204 468.648 278.323C468.542 278.883 468.424 279.432 468.301 279.888C468.24 280.116 468.175 280.327 468.108 280.508C468.043 280.681 467.966 280.857 467.87 280.994C467.712 281.219 467.432 281.487 467.12 281.747C466.798 282.016 466.406 282.305 465.993 282.575C465.581 282.843 465.139 283.097 464.719 283.29C464.308 283.479 463.876 283.63 463.493 283.655C462.929 283.691 461.943 283.807 461.084 283.916C460.702 283.964 460.349 284.011 460.076 284.048C460.211 284.363 460.5 284.861 461.112 285.526C461.787 286.259 462.47 287.059 462.993 287.79C463.254 288.155 463.482 288.513 463.65 288.842C463.806 289.149 463.932 289.474 463.958 289.779C464.008 290.047 463.993 290.324 463.913 290.586C463.829 290.859 463.677 291.106 463.472 291.305C463.266 291.504 463.013 291.647 462.738 291.721C462.474 291.793 462.197 291.799 461.93 291.74C461.581 291.699 461.059 291.53 460.519 291.332C459.937 291.118 459.269 290.843 458.636 290.571C458.001 290.299 457.397 290.029 456.941 289.822C456.713 289.719 456.523 289.631 456.384 289.567L456.218 289.491L456.168 289.468C456.168 289.468 456.168 289.468 456.167 289.468C456.165 289.467 456.163 289.466 456.16 289.466C456.139 289.46 456.107 289.452 456.065 289.442C455.982 289.422 455.868 289.397 455.732 289.368C455.461 289.31 455.113 289.238 454.769 289.168C454.424 289.098 454.085 289.031 453.832 288.98L453.526 288.92L453.441 288.903L453.421 288.899C453.419 288.899 453.418 288.899 453.416 288.898M396.328 321.27L449.918 287.346C451.071 287.834 452.275 288.19 453.508 288.407L453.411 288.897L453.412 288.897L453.412 288.897L453.413 288.898L453.416 288.898M396.328 321.27L396.203 321.587L394.816 325.122M396.328 321.27L394.816 325.122M453.416 288.898C452.148 288.675 450.909 288.308 449.723 287.806L449.694 287.794L449.666 287.777C447.297 286.393 445.03 284.842 442.88 283.137L442.842 283.107L442.81 283.071C442.693 282.933 442.601 282.805 442.512 282.683C442.312 282.406 442.132 282.158 441.732 281.897C441.182 281.538 440.209 281.187 438.28 281.11C434.427 280.958 431.956 281.851 430.047 283.284C429.607 283.613 429.145 283.978 428.67 284.352C428.607 284.402 428.544 284.452 428.48 284.502C427.941 284.926 427.389 285.359 426.851 285.752C426.313 286.144 425.78 286.505 425.279 286.784C424.784 287.059 424.285 287.274 423.821 287.344L423.797 287.348L423.773 287.349C421.635 287.46 419.497 287.127 417.494 286.37L417.475 286.362L417.456 286.353C417.331 286.294 417.191 286.229 417.039 286.16C416.469 285.899 415.743 285.567 415.08 285.138C414.235 284.591 413.404 283.834 413.057 282.748C413.029 282.658 413 282.568 412.971 282.478C412.699 281.62 412.416 280.73 412.055 279.951C411.651 279.081 411.192 278.448 410.637 278.151L410.616 278.139L410.596 278.126C408.049 276.424 405.98 274.098 404.589 271.369C403.017 268.576 401.183 265.94 399.109 263.496C397.837 262.268 396.334 261.305 394.686 260.664L394.676 260.66L394.667 260.656C394.45 260.561 394.019 260.452 393.414 260.326C393.065 260.253 392.683 260.179 392.281 260.102C391.998 260.047 391.704 259.991 391.404 259.931C390.688 259.788 389.952 259.631 389.304 259.452C388.67 259.276 388.07 259.067 387.661 258.804C386.972 258.362 386.124 257.783 385.41 257.215C385.054 256.931 384.723 256.643 384.46 256.37C384.21 256.111 383.971 255.815 383.868 255.515L383.863 255.503L383.86 255.49C383.787 255.236 383.648 255.007 383.457 254.826H380.128L380.998 261.467L383.94 274.015L383.943 274.025L383.454 274.129L383.943 274.025L383.943 274.026L383.943 274.027L383.944 274.031L383.947 274.046L383.96 274.105L384.007 274.33C384.048 274.525 384.106 274.805 384.176 275.146C384.316 275.826 384.504 276.751 384.694 277.722C385.069 279.64 385.466 281.812 385.504 282.618C385.585 284.066 385.84 285.5 386.262 286.888C386.352 287.107 386.562 287.752 386.817 288.555C387.092 289.423 387.435 290.522 387.768 291.602C388.102 292.682 388.427 293.743 388.669 294.534C388.79 294.929 388.89 295.257 388.96 295.487L389.041 295.752L389.063 295.822L389.068 295.84L389.069 295.845L389.07 295.846L389.07 295.846C389.07 295.846 389.07 295.846 388.592 295.992L389.07 295.846L389.077 295.87L389.082 295.895L389.357 297.287L389.365 297.325L389.366 297.364L389.496 300.688L389.497 300.718L389.495 300.747L389.365 302.397L389.36 302.46L389.339 302.52C389.196 302.939 388.914 303.295 388.541 303.531C388.174 303.763 387.741 303.866 387.31 303.823C386.621 303.809 385.21 303.61 384.005 303.422C383.387 303.325 382.809 303.229 382.386 303.157C382.36 303.153 382.335 303.148 382.31 303.144C382.351 303.45 382.43 303.751 382.547 304.039C382.733 304.498 383.012 304.916 383.364 305.265C384.495 306.116 385.359 307.273 385.854 308.599L385.876 308.659L385.883 308.722C385.997 309.82 385.997 310.927 385.883 312.026L385.88 312.05L385.875 312.074C385.664 313.103 385.836 314.174 386.358 315.085L386.358 315.086C386.745 315.76 387.044 316.243 387.265 316.553C387.356 316.682 387.427 316.771 387.478 316.828C387.591 316.825 387.755 316.823 387.91 316.826C388.233 316.833 388.661 316.863 389.114 316.957C390.001 317.14 391.112 317.598 391.606 318.749C392.214 320.165 393.279 322.165 393.93 323.389C394.12 323.745 394.274 324.036 394.372 324.227C394.518 324.511 394.674 324.828 394.816 325.122M453.416 288.898L394.816 325.122M405.03 271.133C406.382 273.789 408.395 276.054 410.874 277.71C412.21 278.427 412.876 280.527 413.447 282.324C413.476 282.416 413.505 282.506 413.533 282.596C414.06 284.247 415.935 285.105 417.229 285.697C417.386 285.769 417.535 285.837 417.671 285.902C419.609 286.635 421.678 286.957 423.747 286.85C424.919 286.673 426.685 285.281 428.361 283.96C428.835 283.586 429.302 283.217 429.747 282.884C431.761 281.373 434.349 280.455 438.3 280.611C441.728 280.746 442.445 281.734 442.96 282.444C443.038 282.552 443.112 282.654 443.19 282.746L405.03 271.133ZM405.03 271.133C403.437 268.302 401.577 265.63 399.475 263.154L405.03 271.133Z" fill="#BFE2C8" stroke="white"/>
<path id="district12_8" d="M359.825 267.326L359.62 267.265L353.812 253.542L353.744 253.381L353.59 253.297L335.962 243.744L335.962 243.743C335.921 243.64 335.866 243.5 335.81 243.354C335.691 243.051 335.577 242.752 335.55 242.668L335.55 242.667L328.425 220.309L328.401 220.233L328.354 220.169L304.385 186.88L310.451 132.123L310.465 131.997L310.418 131.88L303.415 114.627L309.601 108.762L309.892 108.486L309.685 108.142L303.254 97.4316L303.118 97.2051L302.855 97.1898L276.604 95.6678V87.6244L311.77 89.1956C312.539 90.6738 313.378 92.1143 314.284 93.5126L314.681 94.1247L315.076 93.5793C315.086 93.5713 315.098 93.5614 315.114 93.5495C315.172 93.505 315.256 93.4419 315.366 93.3613C315.585 93.2007 315.894 92.9776 316.267 92.7103C317.013 92.1759 318.01 91.4688 319.041 90.7395C319.673 90.2919 320.319 89.8356 320.927 89.406C322.297 88.4379 323.476 87.6051 323.881 87.3116C324.136 87.1269 324.732 86.7945 325.523 86.3847C326.301 85.9819 327.232 85.5221 328.13 85.0872C329.027 84.6526 329.889 84.2442 330.526 83.9443C330.647 83.8871 330.761 83.8339 330.865 83.7852V84.3208V84.7486L331.287 84.8148L333.464 85.1558V90.5117V90.6358L333.523 90.7455L335.355 94.2084L335.441 94.3709L335.611 94.439L339.439 95.9664L339.614 96.0362L339.792 95.9731L339.625 95.502L339.792 95.973L339.792 95.973L339.793 95.9726L339.797 95.9713L339.812 95.966L339.87 95.9454L340.09 95.8672C340.28 95.7998 340.552 95.7035 340.878 95.5879C341.531 95.3568 342.403 95.0486 343.28 94.7405C344.157 94.4324 345.039 94.1246 345.711 93.8939C346.048 93.7785 346.33 93.6831 346.532 93.6167C346.622 93.5872 346.694 93.5642 346.747 93.548C346.792 93.5581 346.851 93.5719 346.923 93.5892C347.098 93.6313 347.341 93.692 347.63 93.7654C348.208 93.912 348.964 94.1077 349.716 94.3037C350.468 94.4996 351.214 94.6955 351.773 94.8425L352.447 95.0201L352.56 95.0501L354.809 97.4968L354.122 99.4887L343.977 102.656L343.791 102.714L343.694 102.882L341.969 105.864L341.901 105.981V106.115V110.155V110.279L341.96 110.389L345.847 117.727L346.069 118.146L346.499 117.946L347.299 117.575L347.357 117.548L347.407 117.507L352.115 113.618L358.617 123.682L358.688 123.793L358.806 123.854L363.86 126.477L372.018 131.429L374.497 139.205C374.45 140.036 374.35 140.862 374.197 141.68C374.081 142.158 373.635 144.054 373.216 145.835C373.005 146.734 372.801 147.605 372.649 148.251L372.467 149.027L372.417 149.243L372.403 149.299L372.4 149.314L372.399 149.317L372.399 149.318L372.399 149.318L372.885 149.433L372.399 149.318L372.32 149.656L372.608 149.849C373.386 150.367 374.211 150.812 375.072 151.175L375.264 151.257L375.451 151.18C375.449 151.18 375.449 151.18 375.452 151.18C375.46 151.178 375.485 151.171 375.536 151.159C375.606 151.142 375.698 151.122 375.809 151.099C375.918 151.075 376.043 151.05 376.177 151.022C376.31 150.995 376.451 150.966 376.593 150.936C376.876 150.876 377.168 150.812 377.407 150.75C377.526 150.72 377.638 150.688 377.734 150.656C377.81 150.631 377.936 150.586 378.036 150.514C378.178 150.412 379.168 149.584 380.089 148.811C380.557 148.418 381.017 148.03 381.36 147.741L381.632 147.512L384.165 149.336L384.166 149.458C384.167 149.685 384.169 149.992 384.17 150.309C384.171 150.841 384.171 151.383 384.167 151.644C384.159 151.653 384.149 151.663 384.139 151.674C384.05 151.765 383.915 151.888 383.741 152.039C383.394 152.337 382.927 152.711 382.447 153.09C382.291 153.212 382.134 153.336 381.98 153.457C381.662 153.706 381.357 153.946 381.103 154.15C380.914 154.302 380.747 154.44 380.62 154.55C380.557 154.606 380.499 154.658 380.451 154.706C380.416 154.74 380.345 154.812 380.296 154.898L380.239 154.999L380.231 155.114C380.143 156.539 380.143 157.967 380.231 159.392L380.278 160.136L380.949 159.811L382.451 159.082H388.25L389.464 159.792L389.484 159.804L389.505 159.814L395.385 162.563L395.414 162.576L395.445 162.586L401.062 164.375L417.334 171.019L417.386 171.212C417.46 171.486 417.567 171.879 417.697 172.353C417.956 173.302 418.305 174.574 418.665 175.869C419.025 177.164 419.396 178.484 419.7 179.527C419.852 180.048 419.987 180.502 420.096 180.851C420.2 181.181 420.291 181.458 420.354 181.589C420.427 181.741 420.563 181.865 420.651 181.941C420.76 182.034 420.898 182.138 421.055 182.249C421.371 182.471 421.796 182.74 422.289 183.037C423.277 183.632 424.567 184.354 425.872 185.055C427.178 185.756 428.505 186.439 429.569 186.956C430.101 187.214 430.571 187.433 430.942 187.592C431.127 187.671 431.292 187.737 431.43 187.787C431.557 187.833 431.697 187.877 431.816 187.893C432.336 187.96 433.933 188.019 435.359 188.061C436.081 188.083 436.773 188.1 437.284 188.112C437.494 188.117 437.675 188.121 437.813 188.124L443.714 200.81L446.809 216.964C446.48 216.827 446.067 216.653 445.592 216.453C444.334 215.922 442.636 215.202 440.875 214.44C439.114 213.678 437.293 212.876 435.789 212.184C434.269 211.484 433.112 210.915 432.649 210.611C432.266 210.361 431.94 209.902 431.674 209.287C431.412 208.679 431.231 207.968 431.108 207.277C430.985 206.589 430.922 205.937 430.89 205.457C430.874 205.217 430.866 205.021 430.862 204.886C430.861 204.842 430.86 204.804 430.859 204.773C430.859 204.757 430.858 204.743 430.858 204.731L430.858 204.692L430.858 204.683L430.858 204.681V204.681L430.856 204.226L430.403 204.185C429.262 204.081 428.128 203.917 427.005 203.693C426.984 203.682 426.933 203.643 426.866 203.502C426.783 203.328 426.717 203.08 426.654 202.761C426.623 202.605 426.595 202.441 426.566 202.27C426.537 202.1 426.506 201.923 426.473 201.748C426.408 201.411 426.326 201.054 426.197 200.741C425.881 199.772 425.343 198.889 424.626 198.163L424.578 198.115L424.519 198.081C424.068 197.823 423.633 197.536 423.219 197.223L423.202 197.211L423.184 197.2C423.112 197.154 422.942 197.059 422.749 196.951C422.633 196.886 422.508 196.816 422.392 196.75C422.228 196.657 422.072 196.565 421.949 196.489C421.887 196.45 421.839 196.419 421.804 196.394C421.787 196.382 421.778 196.375 421.774 196.372C421.706 196.303 421.634 196.268 421.613 196.257C421.577 196.239 421.541 196.226 421.512 196.216C421.454 196.195 421.386 196.176 421.317 196.159C421.178 196.123 420.995 196.084 420.788 196.043C420.372 195.962 419.831 195.869 419.287 195.779C418.322 195.621 417.331 195.473 416.971 195.42C415.51 194.488 414.262 193.259 413.307 191.813C412.918 191.104 412.643 190.013 412.37 188.836C412.347 188.736 412.324 188.637 412.3 188.536C412.058 187.487 411.807 186.396 411.454 185.648C411.227 185.169 410.816 184.746 410.377 184.392C409.931 184.032 409.417 183.71 408.939 183.444C408.458 183.177 408.002 182.959 407.667 182.809C407.5 182.733 407.361 182.674 407.264 182.634C407.216 182.614 407.177 182.598 407.151 182.588L407.12 182.575L407.112 182.572L407.109 182.571L407.109 182.571L407.108 182.571C407.108 182.571 407.108 182.571 406.927 183.037L407.108 182.571L407.032 182.541L406.95 182.537L406.949 182.537L406.945 182.537L406.933 182.536L406.884 182.534L406.695 182.525L406 182.494C405.414 182.467 404.603 182.43 403.707 182.391C401.916 182.311 399.782 182.219 398.415 182.17C397.028 182.12 396.251 182.325 395.829 182.674C395.602 182.862 395.491 183.081 395.452 183.281C395.434 183.376 395.433 183.46 395.439 183.524C395.439 183.526 395.439 183.528 395.439 183.53L395.438 183.546C395.431 183.598 395.422 183.676 395.41 183.777C395.386 183.978 395.351 184.272 395.305 184.64C395.212 185.375 395.077 186.406 394.906 187.588C394.676 189.177 394.164 189.803 393.485 190.634C393.215 190.964 392.919 191.326 392.604 191.793C392.254 192.312 391.547 192.56 390.313 192.455C389.098 192.351 387.544 191.916 385.749 191.291C383.944 190.664 382.97 190.371 382.442 190.234C382.179 190.166 382.014 190.134 381.907 190.12C381.853 190.113 381.803 190.109 381.756 190.11C381.745 190.11 381.734 190.111 381.722 190.112C381.706 190.113 381.689 190.115 381.672 190.118C381.656 190.12 381.638 190.124 381.618 190.129C381.608 190.132 381.598 190.135 381.587 190.139C381.582 190.141 381.576 190.143 381.57 190.145L381.562 190.148L381.557 190.15C381.555 190.151 381.553 190.152 381.75 190.612L381.553 190.152L381.25 190.282V190.612V190.879C381.101 191.552 381.004 192.236 380.959 192.924L380.958 192.94V192.957C380.958 193.355 381.03 193.589 381.141 193.951C381.152 193.986 381.163 194.021 381.174 194.058C381.304 194.484 381.507 195.179 381.797 196.596C382.279 199.105 382.102 201.695 381.283 204.114C381.031 204.658 380.503 205.004 379.966 205.217C379.7 205.322 379.451 205.387 379.269 205.425C379.178 205.444 379.104 205.457 379.055 205.464C379.044 205.466 379.035 205.467 379.026 205.469L371.217 204.936L371.2 204.935H371.182H369.951H369.683L369.535 205.157L368.795 206.266L368.695 206.416L368.713 206.594L368.913 208.564L368.915 208.588L368.92 208.611L371.927 223.698L371.929 223.711L375.46 244.254L375.467 244.293L375.48 244.332L378.913 254.317L379.746 260.793L379.398 260.792L379.376 260.792L379.355 260.794L379.396 261.292L379.355 260.794L379.355 260.794L379.354 260.794L379.35 260.794L379.336 260.795L379.28 260.8L379.066 260.818L378.291 260.883C377.645 260.937 376.769 261.011 375.852 261.089C374.027 261.244 372.03 261.417 371.353 261.486C370.509 261.548 369.705 261.87 369.051 262.406L369.03 262.423L369.011 262.443L366.464 265.04L366.081 265.366L366.009 265.426L365.965 265.509L365.269 266.796L363.715 267.795C363.225 267.925 362.724 268.015 362.218 268.064C362.194 268.055 362.167 268.046 362.138 268.036C362.044 268.004 361.92 267.965 361.78 267.92C361.499 267.831 361.139 267.722 360.787 267.615C360.433 267.508 360.085 267.404 359.825 267.326Z" fill="#BFE2C8" stroke="white"/>
<path id="district12_7" d="M380.5 255H384.5L386 257L389 259L394 260.5L398 262L404 268.5L409 276L413 280L415 284L418 286L422 287L426.5 286L429 283.5L433.5 281.5L439 281L442.5 282.5L446 285L451.5 288L456.5 289.5L461.5 291.5H463L462 288L460 287L459 284.5L466 282.5L467.5 281L468.5 274.5L469.5 272.5L472 270.5L477 269.5L478.5 270.5L485 274.5L487 275H490.5L493 274L496.5 273H500L499.5 278.5L500.5 279.5L503.5 280.5L510 278L509 274L508 271.5L500 264L503 257.5L498 254L489 254.5H484.5H481.5L479.5 254L478.5 253V252L481 248L484 244.5H480L477.5 245L474 245.5L471.5 245L466 243L466.5 240L467.5 236L467 232L466 226.5L457.5 220L448 219.5L437 215L433 213L431 211.5L430.5 206.5L428 206L426.5 205.5L426 204.5L425 201.5L424 199.5L421.5 198.5L417 197.5L413.5 194.5L412.5 192.5L411 187.5L407.5 184.5L402.5 184H397L396 189.5L395.5 191L394.5 192L393 194L391 194.5L388.5 194L382.5 192L382 193.5L382.5 195L383.5 197.5V200.5L383 204.5L382 206.5L380.5 207L378 207.5L371 207L370 207.5L374 230L377 245.5L379.5 252.5L380.5 255Z" fill="#BFE2C8" stroke="white"/>
</g>
<g id="titles">
<text id="Sardoba tumani" fill="white" xml:space="preserve" style="white-space: pre" font-family="Inter" font-size="12" letter-spacing="0em"><tspan x="172" y="379.864">Sardoba tumani</tspan></text>
<text id="Xovos tumani" fill="white" xml:space="preserve" style="white-space: pre" font-family="Inter" font-size="12" letter-spacing="0em"><tspan x="327" y="406.864">Xovos tumani</tspan></text>
<text id="Boyovut tumani" transform="translate(426.879 332) rotate(36.2938)" fill="white" xml:space="preserve" style="white-space: pre" font-family="Inter" font-size="12" letter-spacing="0em"><tspan x="0" y="11.8636">Boyovut tumani</tspan></text>
<text id="Guliston tumani" transform="translate(407.644 297.097) rotate(4.58465)" fill="white" xml:space="preserve" style="white-space: pre" font-family="Inter" font-size="12" letter-spacing="0em"><tspan x="0" y="11.8636">Guliston tumani</tspan></text>
<text id="Sayxunobod tumani" transform="translate(379.674 213) rotate(22.2247)" fill="white" xml:space="preserve" style="white-space: pre" font-family="Inter" font-size="11" letter-spacing="0em"><tspan x="0" y="10.5">Sayxunobod tumani</tspan></text>
<text id="Sirdaryo shahar" transform="translate(321.713 110) rotate(51.342)" fill="white" xml:space="preserve" style="white-space: pre" font-family="Inter" font-size="12" letter-spacing="0em"><tspan x="0" y="11.8636">Sirdaryo shahar</tspan></text>
<text id="Mirzaobod tumani" transform="translate(332.062 289) rotate(42.2115)" fill="white" xml:space="preserve" style="white-space: pre" font-family="Inter" font-size="10" letter-spacing="0em"><tspan x="0" y="9.63636">Mirzaobod tumani</tspan></text>
<text id="Oqoltin tumani" fill="white" xml:space="preserve" style="white-space: pre" font-family="Inter" font-size="12" letter-spacing="0em"><tspan x="187" y="298.864">Oqoltin tumani</tspan></text>
</g>
<g id="tooltips">
<g id="tooltip12_1">
<path id="Vector 1" d="M267 269H208V356" stroke="#0091FF" stroke-opacity="0.76" stroke-width="2" stroke-dasharray="4 4"/>
<ellipse id="Ellipse 1" cx="208.229" cy="360.553" rx="5.22892" ry="4.55317" fill="#0091FF"/>
<g id="Group 11">
<g id="Rectangle 7" filter="url(#filter1_d_163_141)">
<rect x="267" y="232" width="289" height="84" rx="12" fill="#0091FF" fill-opacity="0.76" shape-rendering="crispEdges"/>
<rect x="267.5" y="232.5" width="288" height="83" rx="11.5" stroke="#0091FF" stroke-opacity="0.76" shape-rendering="crispEdges"/>
</g>
<g id="Rectangle 8">
<g filter="url(#filter2_i_163_141)">
<rect x="271" y="219" width="282.361" height="26.4084" rx="12" fill="#1FA2F4"/>
</g>
<rect x="271.5" y="219.5" width="281.361" height="25.4084" rx="11.5" stroke="#0091FF" stroke-opacity="0.76"/>
</g>
<text id="Tuman nomi" fill="black" xml:space="preserve" style="white-space: pre" font-family="Roboto" font-size="18" font-weight="600" letter-spacing="0em"><tspan x="352.077" y="237.652">Tuman nomi</tspan></text>
<text id="Shaharlar soni: 204" fill="white" xml:space="preserve" style="white-space: pre" font-family="Roboto" font-size="18" font-weight="600" letter-spacing="0em"><tspan x="330" y="271.652">Shaharlar soni: 204</tspan></text>
<text id="Qishloqlar soni: 507" fill="white" xml:space="preserve" style="white-space: pre" font-family="Roboto" font-size="18" font-weight="600" letter-spacing="0em"><tspan x="329" y="296.652">Qishloqlar soni: 507</tspan></text>
</g>
</g>
<g id="tooltip12_2">
<path id="Vector 1_2" d="M293 194H234V281" stroke="#0091FF" stroke-opacity="0.76" stroke-width="2" stroke-dasharray="4 4"/>
<ellipse id="Ellipse 1_2" cx="234.229" cy="285.553" rx="5.22892" ry="4.55317" fill="#0091FF"/>
<g id="Group 11_2">
<g id="Rectangle 7_2" filter="url(#filter3_d_163_141)">
<rect x="293" y="157" width="289" height="84" rx="12" fill="#0091FF" fill-opacity="0.76" shape-rendering="crispEdges"/>
<rect x="293.5" y="157.5" width="288" height="83" rx="11.5" stroke="#0091FF" stroke-opacity="0.76" shape-rendering="crispEdges"/>
</g>
<g id="Rectangle 8_2">
<g filter="url(#filter4_i_163_141)">
<rect x="297" y="144" width="282.361" height="26.4084" rx="12" fill="#1FA2F4"/>
</g>
<rect x="297.5" y="144.5" width="281.361" height="25.4084" rx="11.5" stroke="#0091FF" stroke-opacity="0.76"/>
</g>
<text id="Tuman nomi_2" fill="black" xml:space="preserve" style="white-space: pre" font-family="Roboto" font-size="18" font-weight="600" letter-spacing="0em"><tspan x="378.077" y="162.652">Tuman nomi</tspan></text>
<text id="Shaharlar soni: 204_2" fill="white" xml:space="preserve" style="white-space: pre" font-family="Roboto" font-size="18" font-weight="600" letter-spacing="0em"><tspan x="356" y="196.652">Shaharlar soni: 204</tspan></text>
<text id="Qishloqlar soni: 507_2" fill="white" xml:space="preserve" style="white-space: pre" font-family="Roboto" font-size="18" font-weight="600" letter-spacing="0em"><tspan x="355" y="221.652">Qishloqlar soni: 507</tspan></text>
</g>
</g>
<g id="tooltip12_3">
<path id="Vector 1_3" d="M374 296H315V383" stroke="#0091FF" stroke-opacity="0.76" stroke-width="2" stroke-dasharray="4 4"/>
<ellipse id="Ellipse 1_3" cx="315.229" cy="387.553" rx="5.22892" ry="4.55317" fill="#0091FF"/>
<g id="Group 11_3">
<g id="Rectangle 7_3" filter="url(#filter5_d_163_141)">
<rect x="374" y="259" width="289" height="84" rx="12" fill="#0091FF" fill-opacity="0.76" shape-rendering="crispEdges"/>
<rect x="374.5" y="259.5" width="288" height="83" rx="11.5" stroke="#0091FF" stroke-opacity="0.76" shape-rendering="crispEdges"/>
</g>
<g id="Rectangle 8_3">
<g filter="url(#filter6_i_163_141)">
<rect x="378" y="246" width="282.361" height="26.4084" rx="12" fill="#1FA2F4"/>
</g>
<rect x="378.5" y="246.5" width="281.361" height="25.4084" rx="11.5" stroke="#0091FF" stroke-opacity="0.76"/>
</g>
<text id="Tuman nomi_3" fill="black" xml:space="preserve" style="white-space: pre" font-family="Roboto" font-size="18" font-weight="600" letter-spacing="0em"><tspan x="459.077" y="264.652">Tuman nomi</tspan></text>
<text id="Shaharlar soni: 204_3" fill="white" xml:space="preserve" style="white-space: pre" font-family="Roboto" font-size="18" font-weight="600" letter-spacing="0em"><tspan x="437" y="298.652">Shaharlar soni: 204</tspan></text>
<text id="Qishloqlar soni: 507_3" fill="white" xml:space="preserve" style="white-space: pre" font-family="Roboto" font-size="18" font-weight="600" letter-spacing="0em"><tspan x="436" y="323.652">Qishloqlar soni: 507</tspan></text>
</g>
</g>
<g id="tooltip12_4">
<path id="Vector 1_4" d="M301 224H360V311" stroke="#0091FF" stroke-opacity="0.76" stroke-width="2" stroke-dasharray="4 4"/>
<ellipse id="Ellipse 1_4" cx="360.229" cy="315.553" rx="5.22892" ry="4.55317" fill="#0091FF"/>
<g id="Group 11_4">
<g id="Rectangle 7_4" filter="url(#filter7_d_163_141)">
<rect x="12" y="183" width="289" height="84" rx="12" fill="#0091FF" fill-opacity="0.76" shape-rendering="crispEdges"/>
<rect x="12.5" y="183.5" width="288" height="83" rx="11.5" stroke="#0091FF" stroke-opacity="0.76" shape-rendering="crispEdges"/>
</g>
<g id="Rectangle 8_4">
<g filter="url(#filter8_i_163_141)">
<rect x="16" y="170" width="282.361" height="26.4084" rx="12" fill="#1FA2F4"/>
</g>
<rect x="16.5" y="170.5" width="281.361" height="25.4084" rx="11.5" stroke="#0091FF" stroke-opacity="0.76"/>
</g>
<text id="Tuman nomi_4" fill="black" xml:space="preserve" style="white-space: pre" font-family="Roboto" font-size="18" font-weight="600" letter-spacing="0em"><tspan x="97.0771" y="188.652">Tuman nomi</tspan></text>
<text id="Shaharlar soni: 204_4" fill="white" xml:space="preserve" style="white-space: pre" font-family="Roboto" font-size="18" font-weight="600" letter-spacing="0em"><tspan x="75" y="222.652">Shaharlar soni: 204</tspan></text>
<text id="Qishloqlar soni: 507_4" fill="white" xml:space="preserve" style="white-space: pre" font-family="Roboto" font-size="18" font-weight="600" letter-spacing="0em"><tspan x="74" y="247.652">Qishloqlar soni: 507</tspan></text>
</g>
</g>
<g id="tooltip12_5">
<path id="Vector 1_5" d="M407 265H466V352" stroke="#0091FF" stroke-opacity="0.76" stroke-width="2" stroke-dasharray="4 4"/>
<ellipse id="Ellipse 1_5" cx="466.229" cy="356.553" rx="5.22892" ry="4.55317" fill="#0091FF"/>
<g id="Group 11_5">
<g id="Rectangle 7_5" filter="url(#filter9_d_163_141)">
<rect x="118" y="224" width="289" height="84" rx="12" fill="#0091FF" fill-opacity="0.76" shape-rendering="crispEdges"/>
<rect x="118.5" y="224.5" width="288" height="83" rx="11.5" stroke="#0091FF" stroke-opacity="0.76" shape-rendering="crispEdges"/>
</g>
<g id="Rectangle 8_5">
<g filter="url(#filter10_i_163_141)">
<rect x="122" y="211" width="282.361" height="26.4084" rx="12" fill="#1FA2F4"/>
</g>
<rect x="122.5" y="211.5" width="281.361" height="25.4084" rx="11.5" stroke="#0091FF" stroke-opacity="0.76"/>
</g>
<text id="Tuman nomi_5" fill="black" xml:space="preserve" style="white-space: pre" font-family="Roboto" font-size="18" font-weight="600" letter-spacing="0em"><tspan x="203.077" y="229.652">Tuman nomi</tspan></text>
<text id="Shaharlar soni: 204_5" fill="white" xml:space="preserve" style="white-space: pre" font-family="Roboto" font-size="18" font-weight="600" letter-spacing="0em"><tspan x="181" y="263.652">Shaharlar soni: 204</tspan></text>
<text id="Qishloqlar soni: 507_5" fill="white" xml:space="preserve" style="white-space: pre" font-family="Roboto" font-size="18" font-weight="600" letter-spacing="0em"><tspan x="180" y="288.652">Qishloqlar soni: 507</tspan></text>
</g>
</g>
<g id="tooltip12_6">
<path id="Vector 1_6" d="M417 209H476V296" stroke="#0091FF" stroke-opacity="0.76" stroke-width="2" stroke-dasharray="4 4"/>
<ellipse id="Ellipse 1_6" cx="476.229" cy="300.553" rx="5.22892" ry="4.55317" fill="#0091FF"/>
<g id="Group 11_6">
<g id="Rectangle 7_6" filter="url(#filter11_d_163_141)">
<rect x="128" y="168" width="289" height="84" rx="12" fill="#0091FF" fill-opacity="0.76" shape-rendering="crispEdges"/>
<rect x="128.5" y="168.5" width="288" height="83" rx="11.5" stroke="#0091FF" stroke-opacity="0.76" shape-rendering="crispEdges"/>
</g>
<g id="Rectangle 8_6">
<g filter="url(#filter12_i_163_141)">
<rect x="132" y="155" width="282.361" height="26.4084" rx="12" fill="#1FA2F4"/>
</g>
<rect x="132.5" y="155.5" width="281.361" height="25.4084" rx="11.5" stroke="#0091FF" stroke-opacity="0.76"/>
</g>
<text id="Tuman nomi_6" fill="black" xml:space="preserve" style="white-space: pre" font-family="Roboto" font-size="18" font-weight="600" letter-spacing="0em"><tspan x="213.077" y="173.652">Tuman nomi</tspan></text>
<text id="Shaharlar soni: 204_6" fill="white" xml:space="preserve" style="white-space: pre" font-family="Roboto" font-size="18" font-weight="600" letter-spacing="0em"><tspan x="191" y="207.652">Shaharlar soni: 204</tspan></text>
<text id="Qishloqlar soni: 507_6" fill="white" xml:space="preserve" style="white-space: pre" font-family="Roboto" font-size="18" font-weight="600" letter-spacing="0em"><tspan x="190" y="232.652">Qishloqlar soni: 507</tspan></text>
</g>
</g>
<g id="tooltip12_7">
<path id="Vector 1_7" d="M373 139H432V226" stroke="#0091FF" stroke-opacity="0.76" stroke-width="2" stroke-dasharray="4 4"/>
<ellipse id="Ellipse 1_7" cx="432.229" cy="230.553" rx="5.22892" ry="4.55317" fill="#0091FF"/>
<g id="Group 11_7">
<g id="Rectangle 7_7" filter="url(#filter13_d_163_141)">
<rect x="84" y="98" width="289" height="84" rx="12" fill="#0091FF" fill-opacity="0.76" shape-rendering="crispEdges"/>
<rect x="84.5" y="98.5" width="288" height="83" rx="11.5" stroke="#0091FF" stroke-opacity="0.76" shape-rendering="crispEdges"/>
</g>
<g id="Rectangle 8_7">
<g filter="url(#filter14_i_163_141)">
<rect x="88" y="85" width="282.361" height="26.4084" rx="12" fill="#1FA2F4"/>
</g>
<rect x="88.5" y="85.5" width="281.361" height="25.4084" rx="11.5" stroke="#0091FF" stroke-opacity="0.76"/>
</g>
<text id="Tuman nomi_7" fill="black" xml:space="preserve" style="white-space: pre" font-family="Roboto" font-size="18" font-weight="600" letter-spacing="0em"><tspan x="169.077" y="103.652">Tuman nomi</tspan></text>
<text id="Shaharlar soni: 204_7" fill="white" xml:space="preserve" style="white-space: pre" font-family="Roboto" font-size="18" font-weight="600" letter-spacing="0em"><tspan x="147" y="137.652">Shaharlar soni: 204</tspan></text>
<text id="Qishloqlar soni: 507_7" fill="white" xml:space="preserve" style="white-space: pre" font-family="Roboto" font-size="18" font-weight="600" letter-spacing="0em"><tspan x="146" y="162.652">Qishloqlar soni: 507</tspan></text>
</g>
</g>
<g id="tooltip12_8">
<path id="Vector 1_8" d="M293 54H352V141" stroke="#0091FF" stroke-opacity="0.76" stroke-width="2" stroke-dasharray="4 4"/>
<ellipse id="Ellipse 1_8" cx="352.229" cy="145.553" rx="5.22892" ry="4.55317" fill="#0091FF"/>
<g id="Group 11_8">
<g id="Rectangle 7_8" filter="url(#filter15_d_163_141)">
<rect x="4" y="13" width="289" height="84" rx="12" fill="#0091FF" fill-opacity="0.76" shape-rendering="crispEdges"/>
<rect x="4.5" y="13.5" width="288" height="83" rx="11.5" stroke="#0091FF" stroke-opacity="0.76" shape-rendering="crispEdges"/>
</g>
<g id="Rectangle 8_8">
<g filter="url(#filter16_i_163_141)">
<rect x="8" width="282.361" height="26.4084" rx="12" fill="#1FA2F4"/>
</g>
<rect x="8.5" y="0.5" width="281.361" height="25.4084" rx="11.5" stroke="#0091FF" stroke-opacity="0.76"/>
</g>
<text id="Tuman nomi_8" fill="black" xml:space="preserve" style="white-space: pre" font-family="Roboto" font-size="18" font-weight="600" letter-spacing="0em"><tspan x="89.0771" y="18.6523">Tuman nomi</tspan></text>
<text id="Shaharlar soni: 204_8" fill="white" xml:space="preserve" style="white-space: pre" font-family="Roboto" font-size="18" font-weight="600" letter-spacing="0em"><tspan x="67" y="52.6523">Shaharlar soni: 204</tspan></text>
<text id="Qishloqlar soni: 507_8" fill="white" xml:space="preserve" style="white-space: pre" font-family="Roboto" font-size="18" font-weight="600" letter-spacing="0em"><tspan x="66" y="77.6523">Qishloqlar soni: 507</tspan></text>
</g>
</g>
</g>
</g>
<defs>
<filter id="filter0_d_163_141" x="136" y="83" width="408.588" height="383.24" filterUnits="userSpaceOnUse" color-interpolation-filters="sRGB">
<feFlood flood-opacity="0" result="BackgroundImageFix"/>
<feColorMatrix in="SourceAlpha" type="matrix" values="0 0 0 0 0 0 0 0 0 0 0 0 0 0 0 0 0 0 127 0" result="hardAlpha"/>
<feOffset dx="8" dy="2"/>
<feComposite in2="hardAlpha" operator="out"/>
<feColorMatrix type="matrix" values="0 0 0 0 1 0 0 0 0 1 0 0 0 0 1 0 0 0 1 0"/>
<feBlend mode="normal" in2="BackgroundImageFix" result="effect1_dropShadow_163_141"/>
<feBlend mode="normal" in="SourceGraphic" in2="effect1_dropShadow_163_141" result="shape"/>
</filter>
<filter id="filter1_d_163_141" x="263" y="232" width="297" height="92" filterUnits="userSpaceOnUse" color-interpolation-filters="sRGB">
<feFlood flood-opacity="0" result="BackgroundImageFix"/>
<feColorMatrix in="SourceAlpha" type="matrix" values="0 0 0 0 0 0 0 0 0 0 0 0 0 0 0 0 0 0 127 0" result="hardAlpha"/>
<feOffset dy="4"/>
<feGaussianBlur stdDeviation="2"/>
<feComposite in2="hardAlpha" operator="out"/>
<feColorMatrix type="matrix" values="0 0 0 0 0 0 0 0 0 0 0 0 0 0 0 0 0 0 0.25 0"/>
<feBlend mode="normal" in2="BackgroundImageFix" result="effect1_dropShadow_163_141"/>
<feBlend mode="normal" in="SourceGraphic" in2="effect1_dropShadow_163_141" result="shape"/>
</filter>
<filter id="filter2_i_163_141" x="271" y="219" width="282.361" height="30.4084" filterUnits="userSpaceOnUse" color-interpolation-filters="sRGB">
<feFlood flood-opacity="0" result="BackgroundImageFix"/>
<feBlend mode="normal" in="SourceGraphic" in2="BackgroundImageFix" result="shape"/>
<feColorMatrix in="SourceAlpha" type="matrix" values="0 0 0 0 0 0 0 0 0 0 0 0 0 0 0 0 0 0 127 0" result="hardAlpha"/>
<feOffset dy="4"/>
<feGaussianBlur stdDeviation="2"/>
<feComposite in2="hardAlpha" operator="arithmetic" k2="-1" k3="1"/>
<feColorMatrix type="matrix" values="0 0 0 0 0 0 0 0 0 0 0 0 0 0 0 0 0 0 0.25 0"/>
<feBlend mode="normal" in2="shape" result="effect1_innerShadow_163_141"/>
</filter>
<filter id="filter3_d_163_141" x="289" y="157" width="297" height="92" filterUnits="userSpaceOnUse" color-interpolation-filters="sRGB">
<feFlood flood-opacity="0" result="BackgroundImageFix"/>
<feColorMatrix in="SourceAlpha" type="matrix" values="0 0 0 0 0 0 0 0 0 0 0 0 0 0 0 0 0 0 127 0" result="hardAlpha"/>
<feOffset dy="4"/>
<feGaussianBlur stdDeviation="2"/>
<feComposite in2="hardAlpha" operator="out"/>
<feColorMatrix type="matrix" values="0 0 0 0 0 0 0 0 0 0 0 0 0 0 0 0 0 0 0.25 0"/>
<feBlend mode="normal" in2="BackgroundImageFix" result="effect1_dropShadow_163_141"/>
<feBlend mode="normal" in="SourceGraphic" in2="effect1_dropShadow_163_141" result="shape"/>
</filter>
<filter id="filter4_i_163_141" x="297" y="144" width="282.361" height="30.4084" filterUnits="userSpaceOnUse" color-interpolation-filters="sRGB">
<feFlood flood-opacity="0" result="BackgroundImageFix"/>
<feBlend mode="normal" in="SourceGraphic" in2="BackgroundImageFix" result="shape"/>
<feColorMatrix in="SourceAlpha" type="matrix" values="0 0 0 0 0 0 0 0 0 0 0 0 0 0 0 0 0 0 127 0" result="hardAlpha"/>
<feOffset dy="4"/>
<feGaussianBlur stdDeviation="2"/>
<feComposite in2="hardAlpha" operator="arithmetic" k2="-1" k3="1"/>
<feColorMatrix type="matrix" values="0 0 0 0 0 0 0 0 0 0 0 0 0 0 0 0 0 0 0.25 0"/>
<feBlend mode="normal" in2="shape" result="effect1_innerShadow_163_141"/>
</filter>
<filter id="filter5_d_163_141" x="370" y="259" width="297" height="92" filterUnits="userSpaceOnUse" color-interpolation-filters="sRGB">
<feFlood flood-opacity="0" result="BackgroundImageFix"/>
<feColorMatrix in="SourceAlpha" type="matrix" values="0 0 0 0 0 0 0 0 0 0 0 0 0 0 0 0 0 0 127 0" result="hardAlpha"/>
<feOffset dy="4"/>
<feGaussianBlur stdDeviation="2"/>
<feComposite in2="hardAlpha" operator="out"/>
<feColorMatrix type="matrix" values="0 0 0 0 0 0 0 0 0 0 0 0 0 0 0 0 0 0 0.25 0"/>
<feBlend mode="normal" in2="BackgroundImageFix" result="effect1_dropShadow_163_141"/>
<feBlend mode="normal" in="SourceGraphic" in2="effect1_dropShadow_163_141" result="shape"/>
</filter>
<filter id="filter6_i_163_141" x="378" y="246" width="282.361" height="30.4084" filterUnits="userSpaceOnUse" color-interpolation-filters="sRGB">
<feFlood flood-opacity="0" result="BackgroundImageFix"/>
<feBlend mode="normal" in="SourceGraphic" in2="BackgroundImageFix" result="shape"/>
<feColorMatrix in="SourceAlpha" type="matrix" values="0 0 0 0 0 0 0 0 0 0 0 0 0 0 0 0 0 0 127 0" result="hardAlpha"/>
<feOffset dy="4"/>
<feGaussianBlur stdDeviation="2"/>
<feComposite in2="hardAlpha" operator="arithmetic" k2="-1" k3="1"/>
<feColorMatrix type="matrix" values="0 0 0 0 0 0 0 0 0 0 0 0 0 0 0 0 0 0 0.25 0"/>
<feBlend mode="normal" in2="shape" result="effect1_innerShadow_163_141"/>
</filter>
<filter id="filter7_d_163_141" x="8" y="183" width="297" height="92" filterUnits="userSpaceOnUse" color-interpolation-filters="sRGB">
<feFlood flood-opacity="0" result="BackgroundImageFix"/>
<feColorMatrix in="SourceAlpha" type="matrix" values="0 0 0 0 0 0 0 0 0 0 0 0 0 0 0 0 0 0 127 0" result="hardAlpha"/>
<feOffset dy="4"/>
<feGaussianBlur stdDeviation="2"/>
<feComposite in2="hardAlpha" operator="out"/>
<feColorMatrix type="matrix" values="0 0 0 0 0 0 0 0 0 0 0 0 0 0 0 0 0 0 0.25 0"/>
<feBlend mode="normal" in2="BackgroundImageFix" result="effect1_dropShadow_163_141"/>
<feBlend mode="normal" in="SourceGraphic" in2="effect1_dropShadow_163_141" result="shape"/>
</filter>
<filter id="filter8_i_163_141" x="16" y="170" width="282.361" height="30.4084" filterUnits="userSpaceOnUse" color-interpolation-filters="sRGB">
<feFlood flood-opacity="0" result="BackgroundImageFix"/>
<feBlend mode="normal" in="SourceGraphic" in2="BackgroundImageFix" result="shape"/>
<feColorMatrix in="SourceAlpha" type="matrix" values="0 0 0 0 0 0 0 0 0 0 0 0 0 0 0 0 0 0 127 0" result="hardAlpha"/>
<feOffset dy="4"/>
<feGaussianBlur stdDeviation="2"/>
<feComposite in2="hardAlpha" operator="arithmetic" k2="-1" k3="1"/>
<feColorMatrix type="matrix" values="0 0 0 0 0 0 0 0 0 0 0 0 0 0 0 0 0 0 0.25 0"/>
<feBlend mode="normal" in2="shape" result="effect1_innerShadow_163_141"/>
</filter>
<filter id="filter9_d_163_141" x="114" y="224" width="297" height="92" filterUnits="userSpaceOnUse" color-interpolation-filters="sRGB">
<feFlood flood-opacity="0" result="BackgroundImageFix"/>
<feColorMatrix in="SourceAlpha" type="matrix" values="0 0 0 0 0 0 0 0 0 0 0 0 0 0 0 0 0 0 127 0" result="hardAlpha"/>
<feOffset dy="4"/>
<feGaussianBlur stdDeviation="2"/>
<feComposite in2="hardAlpha" operator="out"/>
<feColorMatrix type="matrix" values="0 0 0 0 0 0 0 0 0 0 0 0 0 0 0 0 0 0 0.25 0"/>
<feBlend mode="normal" in2="BackgroundImageFix" result="effect1_dropShadow_163_141"/>
<feBlend mode="normal" in="SourceGraphic" in2="effect1_dropShadow_163_141" result="shape"/>
</filter>
<filter id="filter10_i_163_141" x="122" y="211" width="282.361" height="30.4084" filterUnits="userSpaceOnUse" color-interpolation-filters="sRGB">
<feFlood flood-opacity="0" result="BackgroundImageFix"/>
<feBlend mode="normal" in="SourceGraphic" in2="BackgroundImageFix" result="shape"/>
<feColorMatrix in="SourceAlpha" type="matrix" values="0 0 0 0 0 0 0 0 0 0 0 0 0 0 0 0 0 0 127 0" result="hardAlpha"/>
<feOffset dy="4"/>
<feGaussianBlur stdDeviation="2"/>
<feComposite in2="hardAlpha" operator="arithmetic" k2="-1" k3="1"/>
<feColorMatrix type="matrix" values="0 0 0 0 0 0 0 0 0 0 0 0 0 0 0 0 0 0 0.25 0"/>
<feBlend mode="normal" in2="shape" result="effect1_innerShadow_163_141"/>
</filter>
<filter id="filter11_d_163_141" x="124" y="168" width="297" height="92" filterUnits="userSpaceOnUse" color-interpolation-filters="sRGB">
<feFlood flood-opacity="0" result="BackgroundImageFix"/>
<feColorMatrix in="SourceAlpha" type="matrix" values="0 0 0 0 0 0 0 0 0 0 0 0 0 0 0 0 0 0 127 0" result="hardAlpha"/>
<feOffset dy="4"/>
<feGaussianBlur stdDeviation="2"/>
<feComposite in2="hardAlpha" operator="out"/>
<feColorMatrix type="matrix" values="0 0 0 0 0 0 0 0 0 0 0 0 0 0 0 0 0 0 0.25 0"/>
<feBlend mode="normal" in2="BackgroundImageFix" result="effect1_dropShadow_163_141"/>
<feBlend mode="normal" in="SourceGraphic" in2="effect1_dropShadow_163_141" result="shape"/>
</filter>
<filter id="filter12_i_163_141" x="132" y="155" width="282.361" height="30.4084" filterUnits="userSpaceOnUse" color-interpolation-filters="sRGB">
<feFlood flood-opacity="0" result="BackgroundImageFix"/>
<feBlend mode="normal" in="SourceGraphic" in2="BackgroundImageFix" result="shape"/>
<feColorMatrix in="SourceAlpha" type="matrix" values="0 0 0 0 0 0 0 0 0 0 0 0 0 0 0 0 0 0 127 0" result="hardAlpha"/>
<feOffset dy="4"/>
<feGaussianBlur stdDeviation="2"/>
<feComposite in2="hardAlpha" operator="arithmetic" k2="-1" k3="1"/>
<feColorMatrix type="matrix" values="0 0 0 0 0 0 0 0 0 0 0 0 0 0 0 0 0 0 0.25 0"/>
<feBlend mode="normal" in2="shape" result="effect1_innerShadow_163_141"/>
</filter>
<filter id="filter13_d_163_141" x="80" y="98" width="297" height="92" filterUnits="userSpaceOnUse" color-interpolation-filters="sRGB">
<feFlood flood-opacity="0" result="BackgroundImageFix"/>
<feColorMatrix in="SourceAlpha" type="matrix" values="0 0 0 0 0 0 0 0 0 0 0 0 0 0 0 0 0 0 127 0" result="hardAlpha"/>
<feOffset dy="4"/>
<feGaussianBlur stdDeviation="2"/>
<feComposite in2="hardAlpha" operator="out"/>
<feColorMatrix type="matrix" values="0 0 0 0 0 0 0 0 0 0 0 0 0 0 0 0 0 0 0.25 0"/>
<feBlend mode="normal" in2="BackgroundImageFix" result="effect1_dropShadow_163_141"/>
<feBlend mode="normal" in="SourceGraphic" in2="effect1_dropShadow_163_141" result="shape"/>
</filter>
<filter id="filter14_i_163_141" x="88" y="85" width="282.361" height="30.4084" filterUnits="userSpaceOnUse" color-interpolation-filters="sRGB">
<feFlood flood-opacity="0" result="BackgroundImageFix"/>
<feBlend mode="normal" in="SourceGraphic" in2="BackgroundImageFix" result="shape"/>
<feColorMatrix in="SourceAlpha" type="matrix" values="0 0 0 0 0 0 0 0 0 0 0 0 0 0 0 0 0 0 127 0" result="hardAlpha"/>
<feOffset dy="4"/>
<feGaussianBlur stdDeviation="2"/>
<feComposite in2="hardAlpha" operator="arithmetic" k2="-1" k3="1"/>
<feColorMatrix type="matrix" values="0 0 0 0 0 0 0 0 0 0 0 0 0 0 0 0 0 0 0.25 0"/>
<feBlend mode="normal" in2="shape" result="effect1_innerShadow_163_141"/>
</filter>
<filter id="filter15_d_163_141" x="0" y="13" width="297" height="92" filterUnits="userSpaceOnUse" color-interpolation-filters="sRGB">
<feFlood flood-opacity="0" result="BackgroundImageFix"/>
<feColorMatrix in="SourceAlpha" type="matrix" values="0 0 0 0 0 0 0 0 0 0 0 0 0 0 0 0 0 0 127 0" result="hardAlpha"/>
<feOffset dy="4"/>
<feGaussianBlur stdDeviation="2"/>
<feComposite in2="hardAlpha" operator="out"/>
<feColorMatrix type="matrix" values="0 0 0 0 0 0 0 0 0 0 0 0 0 0 0 0 0 0 0.25 0"/>
<feBlend mode="normal" in2="BackgroundImageFix" result="effect1_dropShadow_163_141"/>
<feBlend mode="normal" in="SourceGraphic" in2="effect1_dropShadow_163_141" result="shape"/>
</filter>
<filter id="filter16_i_163_141" x="8" y="0" width="282.361" height="30.4084" filterUnits="userSpaceOnUse" color-interpolation-filters="sRGB">
<feFlood flood-opacity="0" result="BackgroundImageFix"/>
<feBlend mode="normal" in="SourceGraphic" in2="BackgroundImageFix" result="shape"/>
<feColorMatrix in="SourceAlpha" type="matrix" values="0 0 0 0 0 0 0 0 0 0 0 0 0 0 0 0 0 0 127 0" result="hardAlpha"/>
<feOffset dy="4"/>
<feGaussianBlur stdDeviation="2"/>
<feComposite in2="hardAlpha" operator="arithmetic" k2="-1" k3="1"/>
<feColorMatrix type="matrix" values="0 0 0 0 0 0 0 0 0 0 0 0 0 0 0 0 0 0 0.25 0"/>
<feBlend mode="normal" in2="shape" result="effect1_innerShadow_163_141"/>
</filter>
</defs>
</svg>
