<svg width="741" height="790" viewBox="0 0 741 790" fill="none" xmlns="http://www.w3.org/2000/svg">
<rect width="741" height="790" fill="#1E1E1E"/>
<g id="tashkent_region_container">
<g id="Group">
<g id="Vector">
<mask id="path-1-inside-1_0_1" fill="white">
<path d="M139.317 603.04C139.317 603.04 141.088 607.221 140.118 611.06C139.149 614.899 136.082 627.178 137.102 628.193C138.122 629.209 168.665 645.38 168.665 645.38C168.665 645.38 173.397 641.622 172.224 640.536C171.051 639.451 168.674 637.622 168.665 635.111C168.655 632.6 171.031 628.715 171.331 628.192C171.695 627.219 171.994 626.223 172.224 625.209C172.224 625.209 173.548 619.843 172.224 619.391C170.899 618.939 168.268 614.153 168.665 612.824C169.061 611.495 172.418 606.398 172.224 605.794C172.029 605.19 188.379 593.063 188.318 588.898C188.257 584.733 189.081 583.036 189 581.825C188.919 580.614 188.091 579.116 189 578.309C189.978 577.555 191.071 576.964 192.237 576.558C192.981 576.288 194.326 576.136 194.566 575.532C194.898 574.592 195.175 573.633 195.396 572.661C195.719 571.78 196.12 570.93 196.596 570.122C197.051 569.309 197.553 568.523 198.098 567.767L199.837 565.895L201.158 564.565C201.158 564.565 202.51 562.131 202.025 560.855C201.54 559.58 203.94 557.861 205.165 557.651C206.389 557.442 209.569 555.204 209.569 554.48V551.158C209.106 550.434 208.474 549.833 207.726 549.407C206.49 548.712 204.868 548.288 205.165 547.562C205.463 546.836 204.635 545.473 206.602 544.96C208.569 544.447 210.4 544.007 210.997 543.459C211.594 542.912 213.037 542.426 213.276 540.674C213.418 539.564 213.418 538.44 213.276 537.329C213.276 537.329 212.992 535.254 214.597 535.634C216.691 536.379 218.733 537.264 220.708 538.284L237.505 518.032H243.585L244.741 502.83H250.019V524.032C250.019 524.032 239.062 537.455 236.629 540.677C234.197 543.899 214.597 580.196 214.597 580.196L219.42 598.586L178.252 663.803L184.137 669.455L206.602 670.175L212.961 686.675L172.222 707.106L152.202 743.29L187.186 740.312C187.186 740.312 196.178 729.929 197.078 726.971C197.977 724.012 211.268 720.065 211.268 720.065L294.52 712.558L289.242 729.332C289.242 729.332 289.905 737.94 289.242 738.66C288.578 739.38 271.543 761.369 271.543 761.369L297.685 788.954L303.104 781.801H356.043C356.043 781.801 366.94 745.536 364.562 738.663C362.185 731.791 357.633 717.043 354.592 714.243C351.55 711.444 351.609 709.63 351.609 709.63C351.609 709.63 376.254 688.839 376.734 688.293C377.214 687.748 403.439 672.397 403.439 672.397L401.724 663.91V660.666L406.996 653.855C406.996 653.855 413.575 645.101 411.893 638.143C410.989 634.736 410.37 631.26 410.044 627.751L420.154 617.339L404.971 620.872L402.468 629.231C402.468 629.231 390.735 633.415 389.648 633.655C388.561 633.895 365.613 601.438 364.948 601.737C364.283 602.035 320.271 630.929 319.83 629.23C319.388 627.531 313.444 558.053 313.444 558.053H284.749C284.749 558.053 286.532 566.692 284.749 567.78C282.966 568.868 281.853 568.973 280.343 570.135C279.809 570.491 279.388 570.994 279.131 571.583C278.874 572.171 278.791 572.821 278.893 573.455C278.955 574.493 278.955 575.533 278.893 576.57C278.769 577.954 280.048 579.467 278.893 580.211C277.331 581.395 275.625 582.376 273.816 583.132C270.657 584.498 270.933 584.583 270.265 586.143C269.598 587.702 268.509 587.36 268.509 588.911V597.266C268.509 597.266 267.255 600.415 264.513 600.269C261.772 600.122 245.675 565.488 243.577 560.875C241.48 556.262 243.213 530.188 266.628 531.047C290.043 531.907 467.605 530.473 467.605 530.473V503.047C467.605 503.047 470.367 500.382 469.791 498.608C469.215 496.834 466.387 490.277 466.387 490.277V488.082L483.311 476.757L492.528 473.634L482.49 458.317C482.49 458.317 476.55 466.588 474.11 467.054C471.67 467.52 456.363 467.054 456.363 467.054V462.632H449.895L425.821 437.832L409.172 439.533L299.317 466.999L241.294 500.653L190.463 541.969L164.44 566.917L139.317 603.04Z"/>
</mask>
<path d="M139.317 603.04C139.317 603.04 141.088 607.221 140.118 611.06C139.149 614.899 136.082 627.178 137.102 628.193C138.122 629.209 168.665 645.38 168.665 645.38C168.665 645.38 173.397 641.622 172.224 640.536C171.051 639.451 168.674 637.622 168.665 635.111C168.655 632.6 171.031 628.715 171.331 628.192C171.695 627.219 171.994 626.223 172.224 625.209C172.224 625.209 173.548 619.843 172.224 619.391C170.899 618.939 168.268 614.153 168.665 612.824C169.061 611.495 172.418 606.398 172.224 605.794C172.029 605.19 188.379 593.063 188.318 588.898C188.257 584.733 189.081 583.036 189 581.825C188.919 580.614 188.091 579.116 189 578.309C189.978 577.555 191.071 576.964 192.237 576.558C192.981 576.288 194.326 576.136 194.566 575.532C194.898 574.592 195.175 573.633 195.396 572.661C195.719 571.78 196.12 570.93 196.596 570.122C197.051 569.309 197.553 568.523 198.098 567.767L199.837 565.895L201.158 564.565C201.158 564.565 202.51 562.131 202.025 560.855C201.54 559.58 203.94 557.861 205.165 557.651C206.389 557.442 209.569 555.204 209.569 554.48V551.158C209.106 550.434 208.474 549.833 207.726 549.407C206.49 548.712 204.868 548.288 205.165 547.562C205.463 546.836 204.635 545.473 206.602 544.96C208.569 544.447 210.4 544.007 210.997 543.459C211.594 542.912 213.037 542.426 213.276 540.674C213.418 539.564 213.418 538.44 213.276 537.329C213.276 537.329 212.992 535.254 214.597 535.634C216.691 536.379 218.733 537.264 220.708 538.284L237.505 518.032H243.585L244.741 502.83H250.019V524.032C250.019 524.032 239.062 537.455 236.629 540.677C234.197 543.899 214.597 580.196 214.597 580.196L219.42 598.586L178.252 663.803L184.137 669.455L206.602 670.175L212.961 686.675L172.222 707.106L152.202 743.29L187.186 740.312C187.186 740.312 196.178 729.929 197.078 726.971C197.977 724.012 211.268 720.065 211.268 720.065L294.52 712.558L289.242 729.332C289.242 729.332 289.905 737.94 289.242 738.66C288.578 739.38 271.543 761.369 271.543 761.369L297.685 788.954L303.104 781.801H356.043C356.043 781.801 366.94 745.536 364.562 738.663C362.185 731.791 357.633 717.043 354.592 714.243C351.55 711.444 351.609 709.63 351.609 709.63C351.609 709.63 376.254 688.839 376.734 688.293C377.214 687.748 403.439 672.397 403.439 672.397L401.724 663.91V660.666L406.996 653.855C406.996 653.855 413.575 645.101 411.893 638.143C410.989 634.736 410.37 631.26 410.044 627.751L420.154 617.339L404.971 620.872L402.468 629.231C402.468 629.231 390.735 633.415 389.648 633.655C388.561 633.895 365.613 601.438 364.948 601.737C364.283 602.035 320.271 630.929 319.83 629.23C319.388 627.531 313.444 558.053 313.444 558.053H284.749C284.749 558.053 286.532 566.692 284.749 567.78C282.966 568.868 281.853 568.973 280.343 570.135C279.809 570.491 279.388 570.994 279.131 571.583C278.874 572.171 278.791 572.821 278.893 573.455C278.955 574.493 278.955 575.533 278.893 576.57C278.769 577.954 280.048 579.467 278.893 580.211C277.331 581.395 275.625 582.376 273.816 583.132C270.657 584.498 270.933 584.583 270.265 586.143C269.598 587.702 268.509 587.36 268.509 588.911V597.266C268.509 597.266 267.255 600.415 264.513 600.269C261.772 600.122 245.675 565.488 243.577 560.875C241.48 556.262 243.213 530.188 266.628 531.047C290.043 531.907 467.605 530.473 467.605 530.473V503.047C467.605 503.047 470.367 500.382 469.791 498.608C469.215 496.834 466.387 490.277 466.387 490.277V488.082L483.311 476.757L492.528 473.634L482.49 458.317C482.49 458.317 476.55 466.588 474.11 467.054C471.67 467.52 456.363 467.054 456.363 467.054V462.632H449.895L425.821 437.832L409.172 439.533L299.317 466.999L241.294 500.653L190.463 541.969L164.44 566.917L139.317 603.04Z" fill="#BFE2C8" stroke="white" stroke-width="4" mask="url(#path-1-inside-1_0_1)"/>
</g>
<path id="Vector_2" d="M456.466 314.75C456.482 314.673 456.499 314.592 456.517 314.507C456.654 313.856 456.843 312.971 457.05 312.037C457.456 310.203 457.951 308.072 458.255 307.212L458.255 307.212C458.562 306.346 459.56 304.338 460.436 302.627C460.883 301.753 461.312 300.929 461.629 300.324C461.788 300.022 461.918 299.773 462.01 299.601L462.115 299.401L462.143 299.349L462.15 299.335L462.152 299.332L462.153 299.331L462.153 299.331C462.153 299.331 462.153 299.33 463.036 299.8L462.153 299.33L462.303 299.048L462.589 298.905L466.177 297.114L466.643 296.882L467.1 297.13L472.572 300.093C476.59 297.548 480.102 294.277 482.927 290.445C485.201 287.291 486.6 283.177 487.429 279.79C487.841 278.106 488.107 276.625 488.27 275.566C488.351 275.036 488.407 274.614 488.442 274.325C488.459 274.181 488.471 274.07 488.479 273.997C488.483 273.96 488.486 273.932 488.488 273.915L488.49 273.895L488.49 273.891L488.49 273.891L456.466 314.75ZM456.466 314.75C455.974 314.731 455.284 314.701 454.445 314.655C452.687 314.561 450.281 314.399 447.682 314.134C445.08 313.868 442.3 313.499 439.791 312.991C437.262 312.479 435.089 311.842 433.654 311.071C430.523 309.389 425.683 306.714 421.622 304.456C419.592 303.328 417.759 302.305 416.432 301.564C416.079 301.367 415.762 301.19 415.487 301.036L424.598 292.596L425.316 291.931L424.668 291.199L423.919 291.862C424.668 291.199 424.667 291.199 424.667 291.199L424.667 291.199L424.667 291.198L424.664 291.196L424.656 291.186L424.623 291.149L424.5 291.01C424.393 290.891 424.241 290.72 424.057 290.515C423.689 290.107 423.194 289.56 422.687 289.013C422.182 288.468 421.657 287.914 421.232 287.492C421.122 287.383 421.016 287.279 420.915 287.185C421.029 286.95 421.177 286.659 421.352 286.322C421.865 285.335 422.586 284.014 423.322 282.684C424.057 281.357 424.804 280.028 425.367 279.031C425.633 278.56 425.858 278.163 426.021 277.876H440.036H441.036V276.876V260.626H444.451H445.515L445.449 259.565L445.449 259.565L445.449 259.565L445.449 259.564L445.449 259.558L445.447 259.521C445.445 259.487 445.444 259.435 445.442 259.366C445.439 259.228 445.438 259.025 445.446 258.776C445.461 258.275 445.513 257.602 445.651 256.896C445.943 255.408 446.55 254.134 447.631 253.651L447.631 253.651C447.941 253.512 448.311 253.357 448.723 253.184C450.249 252.543 452.343 251.664 454.054 250.522C455.153 249.788 456.189 248.89 456.85 247.784C457.532 246.644 457.797 245.31 457.368 243.825C456.665 241.394 455.16 239.639 454.172 238.488C454.091 238.394 454.013 238.303 453.94 238.217C453.723 237.961 453.555 237.756 453.431 237.584C453.438 237.582 453.446 237.58 453.453 237.578C454.046 237.419 454.967 237.373 456.211 237.311L456.302 237.307C457.528 237.246 458.972 237.166 460.36 236.886C461.747 236.607 463.167 236.111 464.305 235.156C465.472 234.176 466.265 232.776 466.481 230.854C466.687 229.017 466.432 227.611 465.914 226.496C465.399 225.39 464.662 224.651 464.051 224.105C463.901 223.971 463.777 223.864 463.665 223.768C463.524 223.647 463.402 223.542 463.273 223.421C463.06 223.223 462.966 223.103 462.925 223.026C462.903 222.987 462.905 222.98 462.908 222.962L462.909 222.957C462.92 222.901 462.972 222.74 463.203 222.443L462.414 221.829L463.203 222.443C464.321 221.006 465.81 219.217 467.024 217.782C467.63 217.065 468.166 216.439 468.55 215.993C468.613 215.919 468.672 215.851 468.727 215.788C468.791 215.713 468.849 215.646 468.9 215.587L489.593 213.88C489.602 213.901 489.611 213.923 489.621 213.944C489.819 214.409 490.104 215.072 490.449 215.866C491.14 217.452 492.077 219.562 493.057 221.653C494.034 223.739 495.064 225.828 495.941 227.361C496.376 228.121 496.796 228.785 497.171 229.249C497.353 229.474 497.569 229.709 497.811 229.877C498.008 230.014 498.546 230.323 499.147 230.02L499.148 230.019C499.869 229.655 502.295 228.27 504.365 226.388C505.399 225.448 506.395 224.338 507.028 223.124C507.668 221.898 507.974 220.487 507.468 219.046L507.468 219.046C507.017 217.763 506.279 216.816 505.542 216.029C505.255 215.723 504.957 215.429 504.679 215.155C504.605 215.083 504.532 215.011 504.462 214.942C504.117 214.599 503.808 214.283 503.537 213.955C503.009 213.316 502.649 212.663 502.542 211.81C502.431 210.937 502.572 209.748 503.253 208.029C503.937 206.301 505.897 202.745 508.512 198.306C511.109 193.897 514.306 188.692 517.416 183.709C520.525 178.726 523.545 173.97 525.788 170.459C526.91 168.704 527.837 167.26 528.483 166.255C528.787 165.783 529.029 165.407 529.2 165.142M456.466 314.75L529.2 165.142M597.789 288.462C597.55 288.652 595.723 290.316 594.018 291.873C593.15 292.665 592.295 293.448 591.657 294.033L590.888 294.738L590.673 294.934L590.616 294.986L590.602 294.999L590.598 295.003L590.597 295.004L590.597 295.004C590.597 295.004 590.597 295.004 591.273 295.741L590.597 295.004L590.471 295.119L590.391 295.27L579.716 315.247L565.545 317.517L538.811 289.117L538.564 288.855L538.207 288.811L514.252 285.819L489.95 273.098L488.629 272.407L488.49 273.89L630.062 124.362C631.722 124.315 633.729 124.65 635.938 125.203C638.139 125.753 640.472 126.5 642.78 127.245L643.054 127.334C645.253 128.044 647.429 128.747 649.378 129.238C651.381 129.744 653.28 130.064 654.782 129.875L654.782 129.875C655.539 129.78 656.64 129.472 657.933 129.046C659.249 128.614 660.834 128.035 662.589 127.364C666.041 126.043 670.192 124.348 674.315 122.664L674.522 122.579C678.72 120.865 682.875 119.169 686.252 117.886C687.942 117.244 689.424 116.71 690.613 116.329C691.838 115.937 692.651 115.742 693.054 115.718C695.117 115.595 698.436 115.879 701.378 117.073C704.309 118.262 706.708 120.278 707.336 123.55C708.024 127.139 707.908 133.944 707.601 140.077C707.448 143.119 707.251 145.957 707.091 148.091C707.03 148.911 706.975 149.626 706.929 150.21C706.916 150.386 706.903 150.549 706.891 150.701C706.844 151.319 706.808 151.79 706.808 151.949V153.88V155.632L708.316 154.741L716.052 150.174L738.165 187.982L708.379 204.878L701.637 195.454L701.146 194.767L700.386 195.137L686.605 201.841C686.558 201.637 686.499 201.42 686.424 201.198C686.029 200.033 685.152 198.625 683.289 198.036L682.988 198.99C680.064 198.067 674.307 198.026 673.593 198.107L673.482 197.113C673.481 197.113 673.481 197.113 673.48 197.113C673.029 197.164 672.064 197.41 671.307 197.612C670.907 197.719 670.53 197.823 670.253 197.9C670.115 197.939 670.001 197.971 669.922 197.993L669.831 198.019L669.806 198.026L669.8 198.028L669.798 198.028L669.798 198.028L669.798 198.029L670.073 198.99L669.798 198.029L669.356 198.155L669.165 198.572L669.164 198.572L669.164 198.574L669.161 198.58L669.149 198.606L669.102 198.706C669.062 198.792 669.005 198.916 668.935 199.067C668.794 199.369 668.603 199.776 668.402 200.2C667.978 201.091 667.562 201.933 667.429 202.138C667.243 202.425 667.179 202.677 667.148 202.873C667.144 202.892 667.142 202.909 667.14 202.923C667.13 202.932 667.119 202.943 667.105 202.955C666.993 203.052 666.782 203.205 666.393 203.435C666.274 203.505 666.16 203.573 666.049 203.638C665.419 204.009 664.916 204.306 664.549 204.57C664.085 204.903 663.706 205.274 663.488 205.832L663.488 205.833C663.145 206.713 663.199 207.432 663.423 209.359C663.505 210.89 663.678 212.414 663.941 213.924L663.951 213.982L663.968 214.04C664.042 214.286 664.171 214.647 664.308 215.033L664.355 215.166C664.515 215.618 664.693 216.123 664.851 216.621C665.01 217.124 665.141 217.592 665.214 217.973C665.25 218.163 665.268 218.309 665.271 218.413C665.273 218.454 665.272 218.48 665.271 218.494L665.266 218.507L665.253 218.558C665.082 219.237 665.046 219.942 665.146 220.632L629.475 260.242L629.426 260.286L629.164 260.52L628.167 261.408L624.608 264.582C621.66 267.21 617.726 270.717 613.78 274.234C609.833 277.751 605.875 281.277 602.878 283.944C601.379 285.278 600.122 286.396 599.226 287.191C598.778 287.588 598.422 287.904 598.171 288.126C597.96 288.312 597.844 288.414 597.805 288.448C597.794 288.458 597.789 288.462 597.789 288.462ZM597.789 288.462C597.79 288.461 597.79 288.461 597.79 288.461L598.411 289.245L597.789 288.462ZM529.2 165.142H549.514H549.879L550.159 164.906L571.893 146.556C571.944 146.562 571.998 146.57 572.057 146.577C572.445 146.628 573.008 146.702 573.709 146.796C575.109 146.985 577.058 147.255 579.249 147.58C583.639 148.231 588.975 149.097 592.832 149.965L592.928 149.986C596.72 150.84 600.167 151.616 603.278 150.956C606.54 150.264 609.259 148.056 611.784 143.448C614.213 139.015 617.158 134.237 620.36 130.555C623.606 126.825 626.919 124.449 630.062 124.362L529.2 165.142ZM420.681 287.705C420.678 287.715 420.677 287.717 420.68 287.709C420.68 287.708 420.681 287.706 420.681 287.705Z" fill="#BFE2C8" stroke="white" stroke-width="2"/>
<path id="Vector_3" d="M541.307 552.838C542.053 553.503 542.053 553.503 542.054 553.503L542.054 553.502L542.056 553.5L542.066 553.49L542.102 553.449L542.242 553.292L542.776 552.693C543.237 552.176 543.897 551.438 544.692 550.548C546.282 548.769 548.413 546.388 550.579 543.979C552.746 541.57 554.945 539.135 556.671 537.246C557.535 536.302 558.278 535.497 558.838 534.901C559.118 534.603 559.35 534.361 559.526 534.181C559.615 534.091 559.686 534.02 559.742 533.967C559.802 533.908 559.826 533.888 559.825 533.889C560.004 533.744 560.585 533.412 561.488 532.952C562.347 532.515 563.396 532.011 564.417 531.531C565.438 531.053 566.424 530.602 567.156 530.27C567.522 530.104 567.824 529.969 568.034 529.874L568.242 529.781C568.284 529.774 568.335 529.766 568.394 529.756C568.579 529.725 568.848 529.678 569.193 529.612C569.883 529.48 570.874 529.275 572.094 528.978C574.532 528.385 577.886 527.426 581.559 525.959C588.877 523.034 597.593 518.038 602.735 509.771C607.738 501.727 614.805 488.221 620.608 476.757C623.512 471.019 626.105 465.781 627.972 461.979C628.905 460.077 629.657 458.534 630.176 457.466C630.436 456.932 630.637 456.517 630.773 456.236L630.928 455.915L630.93 455.91L634.967 450.93H639.853H640.268L640.561 450.636L661.196 429.929C661.198 429.928 661.199 429.927 661.201 429.925C661.212 429.917 661.226 429.907 661.241 429.896C661.304 429.849 661.402 429.778 661.528 429.691C661.781 429.516 662.15 429.276 662.602 429.019C663.517 428.5 664.729 427.94 666.003 427.696C667.27 427.453 668.521 427.535 669.616 428.194C670.71 428.851 671.811 430.182 672.579 432.77C675.102 441.273 672.95 446.791 671.473 450.581C671.104 451.526 670.778 452.364 670.576 453.113M541.307 552.838L526.617 553.288L526.341 553.84H525.723H515.203L503.299 557.114M541.307 552.838L542.053 553.503M541.307 552.838L542.053 553.503M670.576 453.113C670.576 453.113 670.576 453.113 670.576 453.113L671.542 453.373L670.576 453.113ZM670.576 453.113C670.088 454.925 669.726 457.762 670.38 459.948C670.714 461.065 671.354 462.138 672.506 462.721C673.656 463.303 675.094 463.284 676.777 462.709C677.815 462.355 678.989 461.935 680.257 461.483C682.811 460.571 685.74 459.526 688.676 458.608C693.097 457.226 697.299 456.215 700.024 456.369C702.824 456.528 706.78 457.501 710.059 458.64C711.694 459.209 713.119 459.804 714.119 460.337C714.554 460.569 714.88 460.774 715.101 460.944M715.101 460.944C714.852 461.242 714.478 461.654 713.984 462.169C712.985 463.211 711.549 464.626 709.814 466.292C706.348 469.622 701.721 473.922 697.089 478.179C692.458 482.435 687.826 486.643 684.352 489.788C682.616 491.36 681.168 492.666 680.155 493.579C679.649 494.036 679.251 494.394 678.979 494.638L678.67 494.917L678.59 494.988L678.57 495.006L678.565 495.011L678.564 495.012C678.564 495.012 678.564 495.012 679.232 495.756M715.101 460.944C715.136 460.971 715.168 460.997 715.198 461.022C715.306 461.112 715.349 461.166 715.359 461.181C715.348 461.163 715.299 461.073 715.299 460.923C715.299 460.731 715.361 460.606 715.361 460.605C715.372 460.582 715.374 460.582 715.354 460.614C715.314 460.675 715.238 460.778 715.112 460.93C715.108 460.934 715.104 460.939 715.101 460.944ZM679.232 495.756L678.564 495.012L677.739 495.753L678.561 496.497L679.232 495.756ZM679.232 495.756C678.561 496.497 678.561 496.497 678.561 496.497L678.561 496.498L678.564 496.5L678.575 496.51L678.618 496.549L678.785 496.701C678.932 496.834 679.147 497.029 679.421 497.278C679.968 497.775 680.751 498.486 681.69 499.343C683.569 501.055 686.074 503.346 688.581 505.661C691.089 507.976 693.594 510.311 695.475 512.114C696.416 513.016 697.194 513.778 697.736 514.335C698.008 514.615 698.21 514.832 698.34 514.984C698.356 515.002 698.37 515.019 698.382 515.033M679.232 495.756C679.903 495.015 679.903 495.015 679.903 495.015L679.904 495.016L679.907 495.018L679.918 495.028L679.961 495.067L679.979 495.084C685.224 490.362 716.299 462.329 716.299 460.923C716.299 459.387 705.942 455.704 700.081 455.371C695.184 455.093 686.278 458.272 679.89 460.552C678.63 461.002 677.468 461.417 676.454 461.763L679.976 496.431M679.232 495.756C679.9 496.5 679.9 496.5 679.901 496.5L679.902 496.498L679.907 496.494L679.927 496.476L679.976 496.431M698.382 515.033C698.396 515.108 698.413 515.184 698.428 515.256C698.472 515.464 698.533 515.741 698.609 516.075C698.762 516.743 698.975 517.653 699.229 518.721C699.736 520.856 700.406 523.63 701.074 526.378C701.742 529.127 702.407 531.851 702.906 533.889C703.066 534.544 703.21 535.128 703.33 535.618L703.508 536.347L703.581 536.64M698.382 515.033C698.421 515.081 698.443 515.109 698.452 515.123C698.459 515.132 698.448 515.118 698.431 515.085L698.43 515.083C698.422 515.068 698.358 514.948 698.34 514.769M698.382 515.033C698.363 514.935 698.347 514.841 698.34 514.769M703.581 536.64L688.392 548.228M703.581 536.64L704.101 536.243L704.708 537.038M703.581 536.64L703.677 537.034L703.721 537.215L703.733 537.261L703.736 537.273L703.737 537.276L703.737 537.276C703.737 537.277 703.737 537.277 704.708 537.038M688.392 548.228L675.711 534.361L675.374 533.993L674.878 534.041L674.973 535.036M688.392 548.228L689.009 548.903L688.271 549.578M688.392 548.228L687.664 548.783L688.271 549.578M674.973 535.036C674.878 534.041 674.878 534.041 674.877 534.041L674.877 534.041L674.874 534.041L674.864 534.042L674.825 534.046L674.673 534.06L674.094 534.116C673.595 534.164 672.881 534.233 672.022 534.317C670.305 534.484 668.006 534.71 665.683 534.945C663.361 535.179 661.012 535.421 659.193 535.622C658.285 535.723 657.504 535.813 656.925 535.887C656.636 535.924 656.391 535.957 656.202 535.987C656.065 536.008 655.871 536.039 655.725 536.084M674.973 535.036C674.973 535.036 656.788 536.777 656.015 537.041M674.973 535.036L688.271 549.578M655.725 536.084C655.684 536.068 655.601 536.005 655.498 535.796C655.244 535.277 655.017 534.028 655.514 531.423M655.725 536.084C655.726 536.085 655.727 536.085 655.729 536.085M655.725 536.084C655.713 536.087 655.702 536.091 655.692 536.095L656.015 537.041M655.514 531.423C656.209 528.196 655.843 524.83 654.471 521.826L654.36 521.583L654.142 521.428L651.343 519.432L650.641 518.931L650.043 519.552L638.646 531.375M655.514 531.423C655.513 531.427 655.512 531.431 655.511 531.435L654.534 531.224M655.514 531.423C655.515 531.419 655.515 531.416 655.516 531.412L654.534 531.224M638.646 531.375L628.352 532.886L628.02 532.934L627.784 533.173L590.045 571.492L589.778 571.763L589.759 572.143L588.612 594.717M638.646 531.375L638.984 531.326L639.129 532.315M638.646 531.375L638.409 531.621L639.129 532.315M588.612 594.717L583.58 597.241M588.612 594.717L589.133 594.456L589.581 595.35M588.612 594.717L588.582 595.299L589.581 595.35M583.58 597.241C583.256 596.864 582.794 596.326 582.237 595.68C581.123 594.388 579.63 592.665 578.116 590.941C576.604 589.218 575.066 587.489 573.863 586.188C573.263 585.54 572.738 584.988 572.337 584.594C572.138 584.399 571.956 584.229 571.802 584.101C571.727 584.039 571.638 583.97 571.545 583.911C571.499 583.881 571.432 583.842 571.351 583.807C571.285 583.779 571.126 583.716 570.918 583.716C570.921 583.716 570.922 583.716 570.922 583.716C570.922 583.716 570.907 583.715 570.867 583.711C570.82 583.706 570.76 583.699 570.679 583.688L570.622 583.681C570.473 583.662 570.282 583.637 570.069 583.616C569.582 583.567 568.949 583.532 568.252 583.6C566.841 583.739 565.142 584.311 563.863 586.039M583.58 597.241C583.58 597.241 583.58 597.242 583.581 597.242C583.681 597.358 583.767 597.459 583.839 597.543C583.884 597.595 583.923 597.641 583.956 597.68L584.055 597.795L584.08 597.825L584.087 597.833L584.088 597.835L584.089 597.835C584.089 597.835 584.089 597.835 583.329 598.485M583.58 597.241L582.881 597.591L583.329 598.485M563.863 586.039C563.255 586.86 562.81 587.811 562.419 588.743C562.275 589.087 562.141 589.422 562.008 589.752C561.765 590.356 561.528 590.946 561.249 591.548C560.417 593.342 559.365 594.876 557.373 595.759M563.863 586.039C563.863 586.039 563.863 586.039 563.863 586.039L564.667 586.634M563.863 586.039L564.667 586.634M557.373 595.759C555.335 596.599 553.398 597.66 551.596 598.923M557.373 595.759C557.377 595.758 557.381 595.756 557.385 595.754L557.766 596.679M557.373 595.759C557.37 595.761 557.366 595.762 557.362 595.764L557.766 596.679M551.596 598.923C551.519 598.474 551.428 597.97 551.327 597.463C551.173 596.684 550.991 595.87 550.796 595.227C550.699 594.91 550.588 594.596 550.46 594.338C550.397 594.211 550.312 594.062 550.199 593.925C550.1 593.805 549.893 593.587 549.557 593.495L549.556 593.494C549.336 593.434 549.09 593.415 548.832 593.479C548.592 593.538 548.418 593.653 548.329 593.715C548.256 593.766 548.214 593.797 548.187 593.817C548.141 593.852 548.137 593.854 548.096 593.87C547.973 593.915 547.407 594.05 545.51 593.499L545.51 593.499C543.516 592.919 542.028 592.703 541.017 592.637C540.511 592.604 540.125 592.608 539.856 592.622C539.721 592.629 539.616 592.638 539.539 592.647C539.5 592.651 539.469 592.655 539.445 592.659L539.414 592.663L539.403 592.665L539.398 592.666L539.396 592.667L539.395 592.667C539.395 592.667 539.394 592.667 539.42 592.813C539.442 592.944 539.485 593.189 539.566 593.652M551.596 598.923C551.29 599.136 550.989 599.356 550.692 599.581C550.403 597.819 549.808 594.6 549.293 594.459C549.081 594.401 548.978 594.478 548.834 594.584C548.497 594.834 547.939 595.247 545.231 594.459C541.371 593.337 539.566 593.652 539.566 593.652M551.596 598.923C551.637 599.168 551.675 599.397 551.708 599.601C551.733 599.757 551.756 599.899 551.775 600.023C553.632 598.676 555.642 597.553 557.766 596.679M539.566 593.652L539.394 592.667L538.566 592.811V593.652V599.709M539.566 593.652V599.709H538.566M538.566 599.709H531.489H531.061L530.765 600.019L520.128 611.178M538.566 599.709V600.709H531.489L520.523 612.213L520.128 611.178M520.128 611.178L515.996 600.352L515.188 598.234L514.169 600.26L515.062 600.709M520.128 611.178L519.364 611.98L515.541 601.965C515.554 601.94 515.567 601.916 515.579 601.893C515.7 601.659 515.793 601.476 515.857 601.352L515.93 601.209L515.948 601.172L515.953 601.162L515.955 601.159L515.955 601.159C515.955 601.158 515.955 601.158 515.062 600.709M515.062 600.709L514.168 600.26L514.168 600.26L514.167 600.262L514.163 600.27L514.146 600.305L514.076 600.443C514.014 600.564 513.922 600.743 513.803 600.972C513.565 601.431 513.219 602.091 512.788 602.893C511.924 604.499 510.72 606.671 509.355 608.941C507.989 611.213 506.471 613.568 504.98 615.546C503.466 617.554 502.059 619.065 500.928 619.763C498.25 621.414 495.494 623.681 493.173 625.663C492.684 626.081 492.218 626.483 491.775 626.865C491.154 627.4 490.579 627.896 490.051 628.34C489.137 629.109 488.446 629.652 487.993 629.925M515.062 600.709L514.128 601.066L514.447 601.901C512.418 605.777 505.819 617.922 501.453 620.614C498.306 622.554 495.016 625.39 492.435 627.616C490.74 629.077 489.351 630.275 488.509 630.782M487.993 629.925C487.545 630.195 486.34 630.721 484.64 631.409C483.034 632.06 481.072 632.822 479.085 633.594L478.868 633.679C476.811 634.478 474.739 635.284 473.038 635.977C471.372 636.655 469.97 637.261 469.318 637.653M487.993 629.925L488.509 630.782M487.993 629.925C487.993 629.925 487.993 629.925 487.993 629.925L488.509 630.782M469.318 637.653C468.111 638.38 464.368 641.159 460.832 644.004C459.054 645.435 457.303 646.903 455.925 648.161C455.237 648.789 454.631 649.375 454.157 649.885C453.708 650.367 453.297 650.865 453.091 651.304C452.555 652.449 452.048 653.52 451.6 654.304C451.382 654.685 451.201 654.957 451.061 655.127M469.318 637.653L469.834 638.51M469.318 637.653C469.318 637.653 469.318 637.653 469.318 637.653L469.834 638.51M451.061 655.127C451.048 655.124 451.034 655.121 451.02 655.118C450.824 655.073 450.565 655.007 450.261 654.925C449.653 654.76 448.897 654.54 448.153 654.317C447.411 654.094 446.688 653.871 446.15 653.704C445.881 653.62 445.659 653.551 445.504 653.502L445.325 653.446L445.278 653.431L445.266 653.427L445.263 653.426L445.262 653.426L445.262 653.426L444.96 654.379M451.061 655.127C451.055 655.133 451.05 655.14 451.044 655.146C450.983 655.218 450.949 655.246 450.944 655.25C450.943 655.251 450.943 655.251 450.943 655.251C450.948 655.248 450.975 655.229 451.024 655.211C451.074 655.192 451.153 655.17 451.255 655.17C451.267 655.17 451.274 655.17 451.274 655.17C451.274 655.168 451.214 655.16 451.061 655.127ZM444.96 654.379L445.262 653.426L444.711 653.251L444.284 653.642L437.345 659.997M444.96 654.379L437.874 660.869M444.96 654.379C444.96 654.379 450.611 656.17 451.255 656.17C451.898 656.17 452.933 653.998 453.997 651.729C455.061 649.46 467.553 639.883 469.834 638.51M437.345 659.997L417.416 667.24M437.345 659.997L437.532 659.929L437.874 660.869M437.345 659.997L437.198 660.132L437.874 660.869M417.416 667.24L414.184 663.823M417.416 667.24L417.867 667.717L417.141 668.404M417.416 667.24L416.799 667.464L417.141 668.404M414.184 663.823C414.21 663.753 414.238 663.678 414.269 663.597C414.464 663.077 414.745 662.33 415.086 661.421C415.766 659.603 416.685 657.135 417.639 654.535C419.534 649.365 421.597 643.589 422.157 641.433L422.157 641.433C422.776 639.043 422.157 636.207 421.475 634.1C421.126 633.021 420.742 632.081 420.446 631.411C420.375 631.25 420.309 631.105 420.249 630.977M414.184 663.823L413.753 663.368L413.027 664.055M414.184 663.823C414.125 663.977 414.078 664.102 414.042 664.198L413.983 664.355L413.967 664.395L413.963 664.406L413.962 664.408L413.962 664.409C413.962 664.409 413.962 664.409 413.027 664.055M420.249 630.977L426.027 625.085L426.166 624.943L426.24 624.759L431.419 611.933M420.249 630.977C420.184 630.836 420.127 630.716 420.079 630.618C420.034 630.524 419.998 630.451 419.972 630.4L419.942 630.341L419.934 630.325L419.931 630.32L419.93 630.318L419.93 630.318C419.93 630.317 419.93 630.317 419.043 630.779M420.249 630.977L419.757 631.479L419.043 630.779M431.419 611.933L465.812 583.197M431.419 611.933L431.227 612.093L430.586 611.326M431.419 611.933L431.513 611.7L430.586 611.326M465.812 583.197L481.285 575.562L481.436 575.487L481.553 575.369M465.812 583.197L465.705 583.25L465.263 582.353M465.812 583.197L465.904 583.12L465.263 582.353M481.553 575.369L481.554 575.368C481.554 575.368 481.554 575.368 481.457 575.272L481.554 575.368L481.554 575.368L481.56 575.362L481.587 575.335C481.611 575.312 481.648 575.276 481.696 575.229C481.793 575.136 481.935 575.001 482.115 574.837C482.475 574.51 482.98 574.074 483.558 573.636C484.138 573.196 484.775 572.768 485.401 572.447C486.04 572.119 486.597 571.939 487.033 571.918L487.071 571.916L487.109 571.911C489.481 571.613 491.814 571.057 494.064 570.253L494.37 570.144L494.553 569.876L503.299 557.114M481.553 575.369C481.553 575.369 481.553 575.369 481.553 575.369V575.369ZM503.299 557.114L502.946 557.211L502.681 556.247L503.506 556.812L503.299 557.114ZM465.263 582.353L430.586 611.326M465.263 582.353L480.843 574.665C480.843 574.665 484.425 571.044 486.984 570.919C489.284 570.63 491.546 570.091 493.728 569.311L430.586 611.326M430.586 611.326L425.313 624.385M430.586 611.326L425.313 624.385M413.027 664.055L417.141 668.404M413.027 664.055L679.976 496.431M413.027 664.055C413.027 664.055 420.101 645.375 421.189 641.182C422.276 636.989 419.043 630.779 419.043 630.779M413.027 664.055L425.313 624.385M417.141 668.404L437.874 660.869M469.834 638.51C470.995 637.811 475.26 636.154 479.449 634.526C483.492 632.954 487.465 631.411 488.509 630.782M557.766 596.679C560.848 595.319 561.939 592.604 562.95 590.09C563.461 588.819 563.951 587.6 564.667 586.634M564.667 586.634C566.5 584.157 569.328 584.522 570.493 584.673C570.682 584.697 570.828 584.716 570.918 584.716C571.562 584.716 583.329 598.485 583.329 598.485M583.329 598.485L589.581 595.35M589.581 595.35L590.758 572.194L628.497 533.875L639.129 532.315M639.129 532.315L650.763 520.246L653.562 522.242C654.846 525.053 655.187 528.204 654.534 531.224M654.534 531.224C653.511 536.571 655.241 537.305 656.015 537.041M656.015 537.041L655.692 536.095C655.707 536.089 655.719 536.087 655.729 536.085M688.271 549.578L704.708 537.038M704.708 537.038C704.708 537.038 699.4 515.438 699.335 514.671C699.278 513.993 683.607 499.727 679.976 496.431M655.729 536.085C655.742 536.09 655.75 536.09 655.751 536.088C655.752 536.086 655.745 536.083 655.729 536.085ZM419.043 630.779L425.313 624.385M698.34 514.769C698.339 514.764 698.339 514.759 698.338 514.754L698.338 514.755C698.339 514.76 698.339 514.765 698.34 514.769ZM541.151 554.516L540.451 553.354L534.76 543.92C534.678 543.96 534.591 544.003 534.499 544.047C533.83 544.373 532.911 544.814 531.91 545.271C531.822 545.311 531.646 545.431 531.385 545.693C531.135 545.944 530.854 546.275 530.553 546.673C529.951 547.468 529.314 548.464 528.724 549.453C528.137 550.438 527.61 551.398 527.228 552.114C527.038 552.471 526.884 552.766 526.779 552.971C526.726 553.073 526.685 553.153 526.658 553.207L526.627 553.268L526.619 553.283L526.618 553.287L526.617 553.287L526.617 553.288L541.151 554.516ZM541.151 554.516L542.053 553.503M541.151 554.516L542.053 553.503" fill="#BFE2C8" stroke="white" stroke-width="2"/>
<path id="Vector_4" d="M375.637 327.856C374.647 327.995 374.647 327.995 374.647 327.995L374.647 327.996L374.647 327.999L374.649 328.013L374.657 328.069L374.687 328.286L374.803 329.112C374.902 329.823 375.044 330.841 375.214 332.064C375.555 334.512 376.008 337.783 376.462 341.082C376.916 344.38 377.37 347.705 377.71 350.257C377.88 351.533 378.022 352.615 378.121 353.403C378.17 353.797 378.209 354.115 378.234 354.345C378.264 354.61 378.269 354.693 378.269 354.676C378.269 354.896 378.335 355.073 378.368 355.156C378.41 355.258 378.46 355.353 378.507 355.434C378.601 355.597 378.724 355.777 378.86 355.961C379.133 356.333 379.512 356.798 379.949 357.312C380.827 358.345 381.992 359.632 383.148 360.883C384.305 362.136 385.462 363.361 386.329 364.272C386.642 364.601 386.917 364.889 387.141 365.123C387.056 365.223 386.963 365.331 386.864 365.448C386.328 366.079 385.601 366.955 384.832 367.938C383.326 369.861 381.555 372.322 380.86 374.13L380.86 374.13C380.225 375.783 379.821 376.696 379.497 377.24C379.208 377.725 379.029 377.842 378.825 377.942C378.377 378.163 377.102 378.916 375.995 379.578C375.428 379.917 374.887 380.243 374.487 380.485C374.288 380.606 374.123 380.705 374.009 380.775L373.876 380.855L373.841 380.876L373.833 380.882L373.83 380.883L373.83 380.884L373.829 380.884L374.349 381.738L373.829 380.884L373.173 381.283L373.389 382.018L373.389 382.019L373.389 382.019L373.389 382.019L373.389 382.019L373.391 382.025L373.4 382.056C373.408 382.085 373.42 382.131 373.435 382.191C373.465 382.311 373.507 382.488 373.552 382.709C373.641 383.153 373.738 383.759 373.771 384.417C373.842 385.811 373.613 387.096 372.865 387.793C372.864 387.793 372.864 387.794 372.864 387.794L373.545 388.526L375.637 327.856ZM375.637 327.856L374.647 327.995M375.637 327.856L374.647 327.995M292.191 404.413C292.191 404.413 279.47 412.323 278.679 413.187C277.887 414.051 270.662 422.875 270.397 423.738L292.191 404.413ZM292.191 404.413C291.857 405.356 291.859 405.356 291.86 405.357L291.863 405.358L291.869 405.36L291.881 405.364L291.884 405.365C291.892 405.367 291.9 405.37 291.909 405.373C291.929 405.379 291.952 405.385 291.978 405.391C292.03 405.404 292.094 405.417 292.168 405.426C292.246 405.435 292.338 405.44 292.439 405.437M292.191 404.413L279.417 413.862L279.416 413.863C279.411 413.868 279.412 413.868 279.42 413.861C279.436 413.847 279.482 413.808 279.572 413.738C279.693 413.645 279.857 413.525 280.063 413.379C280.475 413.088 281.027 412.715 281.676 412.285C282.972 411.428 284.63 410.362 286.268 409.32C287.905 408.279 289.518 407.264 290.722 406.51C291.324 406.133 291.823 405.821 292.172 405.603L292.439 405.437M292.191 404.413C292.719 405.262 292.719 405.262 292.719 405.262L292.719 405.263L292.717 405.264L292.71 405.268L292.683 405.285L292.577 405.351L292.439 405.437M292.191 404.413C292.191 404.413 294.438 405.208 293.95 397.777M292.439 405.437C292.53 405.433 292.63 405.422 292.735 405.401C293.21 405.304 293.692 405.01 294.078 404.447C294.786 403.415 295.193 401.448 294.948 397.712M294.948 397.712C294.948 397.712 294.948 397.712 294.948 397.712L293.95 397.777M294.948 397.712C294.899 396.958 294.85 396.253 294.804 395.593C294.622 392.951 294.489 391.024 294.556 389.535C294.638 387.718 295.013 386.826 295.759 386.192L295.759 386.191C296.869 385.246 298.658 383.355 300.132 381.747C300.878 380.933 301.557 380.176 302.049 379.623C302.295 379.346 302.495 379.12 302.633 378.963L302.793 378.782L302.835 378.734L302.846 378.722L302.849 378.719L302.849 378.718L302.85 378.718C302.85 378.718 302.85 378.717 302.097 378.059M294.948 397.712L302.097 378.059M293.95 397.777C293.902 397.042 293.854 396.349 293.809 395.695C293.397 389.742 293.211 387.047 295.111 385.43L293.95 397.777ZM302.097 378.059L302.85 378.717L303.121 378.407L303.095 377.996L302.097 378.059ZM302.097 378.059L303.095 377.996L303.095 377.996L303.095 377.995L303.095 377.989L303.093 377.966L303.088 377.877L303.084 377.82C303.08 377.746 303.074 377.65 303.067 377.534C303.05 377.238 303.027 376.813 303 376.3C302.947 375.273 302.884 373.895 302.842 372.485C302.799 371.072 302.779 369.642 302.81 368.506C302.825 367.937 302.854 367.46 302.895 367.105C302.916 366.927 302.938 366.798 302.958 366.711C302.962 366.695 302.966 366.682 302.968 366.672C302.972 366.667 302.975 366.663 302.979 366.658C303.004 366.624 303.038 366.582 303.081 366.529C303.167 366.424 303.281 366.292 303.421 366.134C303.701 365.819 304.069 365.42 304.497 364.965C305.354 364.055 306.436 362.937 307.5 361.849C308.563 360.762 309.606 359.707 310.383 358.924C310.772 358.533 311.094 358.209 311.318 357.984L311.579 357.723L311.647 357.654L311.664 357.637L311.669 357.633L311.67 357.632L311.67 357.631C311.67 357.631 311.67 357.631 310.963 356.924L311.67 357.631L312.119 357.183L311.904 356.586L311.904 356.586L311.904 356.586L311.904 356.586L311.903 356.584L311.899 356.572L311.881 356.521C311.866 356.475 311.842 356.406 311.813 356.318C311.754 356.14 311.672 355.883 311.581 355.571C311.397 354.945 311.18 354.111 311.037 353.259C310.891 352.392 310.835 351.581 310.926 350.97C311.02 350.339 311.217 350.201 311.321 350.161L311.321 350.161C311.714 350.01 312.379 349.648 313.175 349.185C314 348.705 315.039 348.073 316.22 347.339C318.581 345.87 321.527 343.977 324.482 342.046C330.367 338.199 336.368 334.144 337.831 332.978C339.263 331.837 340.83 330.498 342.047 329.262C342.654 328.646 343.198 328.034 343.596 327.468C343.958 326.953 344.337 326.292 344.337 325.623C344.337 325.219 344.252 324.722 344.178 324.284C344.172 324.248 344.165 324.212 344.159 324.176C344.074 323.669 343.991 323.157 343.966 322.648C343.915 321.619 344.106 320.829 344.763 320.295C345.868 319.397 348.139 316.888 350.064 314.695C351.043 313.579 351.958 312.517 352.627 311.733C352.962 311.342 353.236 311.019 353.426 310.795C353.521 310.683 353.595 310.595 353.646 310.535L353.703 310.467L353.718 310.449L353.722 310.445L353.723 310.443L353.723 310.443C353.723 310.443 353.723 310.443 352.958 309.799L353.723 310.443L353.746 310.416L353.767 310.387L359.697 302.237H367.442L381.769 308.699L374.701 327.504L374.611 327.742M302.097 378.059L374.611 327.742M374.611 327.742L374.647 327.995M374.611 327.742L374.647 327.995" fill="#BFE2C8" stroke="white" stroke-width="2"/>
<path id="Vector_5" d="M68.3941 401.887L69.3938 401.913L69.4746 398.781L67.5943 401.287L68.3941 401.887ZM68.3941 401.887C69.3938 401.913 69.3938 401.913 69.3938 401.913L69.3937 401.914L69.3936 401.919L69.3931 401.937L69.3913 402.009L69.3841 402.292C69.3778 402.54 69.3685 402.908 69.3567 403.383C69.333 404.332 69.2991 405.71 69.2582 407.425C69.1764 410.855 69.0667 415.632 68.9548 421.018C68.7311 431.792 68.499 445 68.465 454.751C68.4311 464.485 69.4613 468.876 70.3903 470.806C70.8338 471.728 71.2114 471.999 71.3513 472.072L102.881 455.02L111.436 445.237L111.97 444.627L112.677 445.022L120.953 449.649L130.11 440.934L131.023 440.064L131.661 441.152L134.174 445.433L145.156 433.449L145.357 433.229L145.646 433.155L190.58 421.719L198.785 410.983L189.117 402.917L188.774 402.631L188.759 402.184L186.313 332.123L186.312 332.112L184.345 248.81C183.899 248.785 183.301 248.751 182.568 248.709C180.851 248.611 178.399 248.471 175.456 248.3C169.571 247.959 161.727 247.499 153.888 247.02C146.05 246.541 138.215 246.043 132.35 245.629C129.419 245.422 126.975 245.235 125.266 245.082C124.415 245.005 123.734 244.936 123.265 244.875C123.035 244.846 122.832 244.815 122.679 244.783C122.611 244.769 122.504 244.744 122.398 244.703C122.357 244.687 122.23 244.637 122.101 244.533C122.009 244.458 121.605 244.085 121.75 243.509C121.751 243.495 121.753 243.473 121.755 243.443C121.76 243.349 121.764 243.21 121.764 243.029C121.764 242.667 121.749 242.169 121.711 241.579C121.634 240.398 121.465 238.88 121.149 237.389C120.829 235.883 120.374 234.477 119.76 233.469C119.145 232.46 118.494 232.031 117.797 232.024L117.797 232.024C117.388 232.02 116.811 232.147 116.065 232.443C115.332 232.733 114.502 233.161 113.607 233.693C111.818 234.756 109.846 236.192 107.999 237.647C106.156 239.099 104.457 240.554 103.219 241.648C102.6 242.194 102.097 242.65 101.749 242.968C101.575 243.127 101.44 243.251 101.349 243.336L101.246 243.432L101.22 243.456L101.214 243.462L101.212 243.464L101.212 243.464L100.527 242.735M68.3941 401.887C67.5943 401.287 67.5943 401.287 67.5942 401.287L67.5939 401.287L67.5924 401.289L67.5862 401.298L67.5612 401.331L67.4612 401.463C67.4234 401.513 67.3779 401.573 67.3247 401.643C67.2535 401.737 67.1687 401.848 67.0709 401.976C66.7295 402.423 66.2303 403.072 65.6004 403.879C64.3406 405.494 62.5591 407.738 60.4735 410.26C56.2943 415.312 50.9231 421.438 46.0902 425.831C41.6979 429.823 39.4214 432.714 37.5823 435.049C37.3465 435.349 37.1178 435.639 36.8928 435.921C34.9577 438.35 33.2955 440.191 29.4751 442.355L29.968 443.225L29.475 442.355C26.2186 444.2 23.8179 446.215 21.8241 447.888C21.3313 448.302 20.8634 448.695 20.4136 449.059C18.1133 450.921 16.3423 451.992 13.9819 451.88L13.9817 451.88C11.2349 451.75 9.56701 451.774 8.55667 451.952C8.0534 452.041 7.5832 452.188 7.21966 452.479C6.79865 452.816 6.64401 453.242 6.59511 453.607C6.55478 453.908 6.22276 455.35 5.8754 456.809C5.7719 457.244 5.66952 457.67 5.5773 458.052L2.09173 455.338C2.21962 455.018 2.38707 454.6 2.58422 454.11C3.05357 452.944 3.69075 451.373 4.36267 449.751C5.03505 448.127 5.74007 446.457 6.34556 445.092C6.96925 443.686 7.44379 442.705 7.66473 442.376C7.75932 442.235 7.97705 442.073 8.53227 441.858C8.67704 441.802 8.86341 441.737 9.07197 441.664C9.5025 441.513 10.0276 441.33 10.4764 441.125C11.2129 440.79 11.9966 440.306 12.6348 439.501C13.2766 438.692 13.7152 437.63 13.8792 436.226C13.9342 435.756 14.1678 435.024 14.604 434.041C15.0309 433.08 15.6185 431.951 16.3215 430.712C17.7268 428.237 19.5617 425.376 21.412 422.625C25.111 417.126 28.8332 412.123 29.2046 411.63C29.4397 411.317 29.884 410.574 30.3909 409.687C30.9137 408.772 31.5424 407.633 32.162 406.474C32.7812 405.315 33.3947 404.131 33.8858 403.128C34.3619 402.155 34.7638 401.271 34.9143 400.757C35.182 399.841 35.5077 397.845 35.7591 396.159C35.8875 395.299 36.0004 394.492 36.0812 393.9C36.1216 393.604 36.154 393.361 36.1763 393.193L36.202 392.998L36.2087 392.946L36.2104 392.933L36.2109 392.93L36.211 392.929L36.211 392.928C36.211 392.928 36.211 392.928 35.2193 392.8L36.211 392.928L36.3067 392.189L35.6253 391.886L35.6252 391.886L35.6249 391.886L35.6217 391.885L35.6058 391.877C35.591 391.871 35.568 391.86 35.5375 391.846C35.4763 391.818 35.3848 391.775 35.2675 391.718C35.0327 391.605 34.6957 391.436 34.293 391.22C33.4847 390.785 32.4261 390.164 31.4038 389.412C30.3731 388.654 29.4272 387.796 28.8005 386.901C28.1758 386.008 27.9337 385.177 28.0955 384.396C28.277 383.52 28.9316 382.482 29.9838 381.347C31.0162 380.232 32.3362 379.124 33.6844 378.099C34.9492 377.139 36.2124 376.272 37.2553 375.556L37.4517 375.421C37.9858 375.055 38.4643 374.724 38.8362 374.45C39.0223 374.313 39.1928 374.182 39.336 374.062C39.4669 373.951 39.6237 373.81 39.7442 373.652C40.0646 373.234 41.2987 371.772 42.688 370.125C43.0133 369.74 43.347 369.344 43.6796 368.95C44.5473 367.92 45.3985 366.907 46.0455 366.122C46.3685 365.73 46.6446 365.391 46.8477 365.133C46.9487 365.004 47.0367 364.89 47.1051 364.796C47.1455 364.741 47.2552 364.594 47.3199 364.447L47.381 364.308L47.3981 364.157C47.9143 359.609 49.5349 355.255 52.1187 351.476C54.3566 348.36 59.0536 341.59 63.1869 335.605C65.2569 332.607 67.1876 329.804 68.6007 327.75C69.3073 326.723 69.8845 325.883 70.2851 325.3L70.7476 324.627L70.8684 324.451L70.8993 324.406L70.9071 324.395L70.9091 324.392L70.9096 324.391C70.9097 324.391 70.9097 324.391 70.0853 323.825L70.9097 324.391L71.0853 324.135V323.825V319.311V319.283L71.0837 319.254L69.4754 291.038L86.5776 260.721L86.7111 260.485L86.7065 260.213L86.7064 260.212L86.7064 260.208L86.7061 260.189L86.7052 260.114C86.7045 260.047 86.7036 259.947 86.7032 259.819C86.7023 259.563 86.703 259.192 86.7093 258.736C86.722 257.825 86.7571 256.581 86.8468 255.247C86.9368 253.91 87.0804 252.499 87.3064 251.249C87.5375 249.972 87.8371 248.968 88.1876 248.374C89.0448 246.921 89.7227 246.1 90.158 245.657C90.2708 245.542 90.367 245.453 90.4455 245.385C90.5129 245.4 90.5867 245.417 90.666 245.435C91.0683 245.525 91.6142 245.647 92.1868 245.768C92.7581 245.889 93.3622 246.011 93.8792 246.104C94.3596 246.19 94.8632 246.27 95.1739 246.27C95.4597 246.27 95.7613 246.176 95.9631 246.107C96.203 246.025 96.476 245.914 96.7584 245.789C97.3254 245.54 97.9893 245.213 98.6137 244.892C99.2409 244.571 99.8406 244.25 100.283 244.01C100.504 243.89 100.686 243.79 100.814 243.719L100.962 243.638L101.001 243.616L101.011 243.61L101.014 243.609L101.015 243.608L101.015 243.608C101.015 243.608 101.015 243.608 100.527 242.735M100.527 242.735L101.015 243.608L101.122 243.548L101.212 243.464L100.527 242.735ZM123.67 244.062C123.684 244.021 123.695 243.979 123.705 243.937C123.696 243.977 123.685 244.019 123.67 244.062Z" fill="#BFE2C8" stroke="white" stroke-width="2"/>
<path id="Vector_6" d="M494.589 530.357L494.589 530.357C494.015 530.083 493.148 529.926 492.209 529.82C491.229 529.709 490.032 529.641 488.712 529.605C486.068 529.531 482.864 529.58 479.778 529.678C476.688 529.775 473.702 529.921 471.489 530.042C470.408 530.102 469.511 530.155 468.876 530.195C468.863 529.547 468.845 528.627 468.825 527.516C468.784 525.262 468.735 522.225 468.703 519.089C468.672 515.951 468.656 512.72 468.682 510.076C468.708 507.389 468.777 505.415 468.894 504.714C469.106 503.447 469.469 502.688 469.841 501.91C469.89 501.808 469.939 501.705 469.988 501.601C470.438 500.642 470.823 499.635 470.714 497.964C470.657 497.088 470.343 496.065 469.973 495.08C469.596 494.078 469.121 493.019 468.691 492.058C468.251 491.076 467.865 490.214 467.628 489.543C467.529 489.265 467.469 489.054 467.439 488.904C467.557 488.807 467.717 488.682 467.916 488.532C468.339 488.212 468.914 487.796 469.593 487.316C470.949 486.357 472.696 485.157 474.427 483.982C476.156 482.807 477.864 481.659 479.139 480.805C479.777 480.378 480.307 480.024 480.677 479.777L481.106 479.492L481.157 479.458L493.299 475.077L494.444 474.664L493.817 473.621L484.069 457.4L483.283 456.092L482.397 457.335C481.844 458.112 481.109 458.742 480.256 459.17L480.222 459.187L480.19 459.206C479.58 459.572 478.952 460.135 478.34 460.735C477.941 461.127 477.513 461.571 477.077 462.023C476.843 462.265 476.607 462.51 476.372 462.75C474.977 464.174 473.528 465.533 472.036 466.272L472.036 466.272C471.444 466.566 470.265 466.717 468.628 466.69C467.048 466.665 465.223 466.481 463.475 466.242C461.731 466.004 460.087 465.715 458.877 465.485C458.409 465.396 458.007 465.316 457.69 465.251V461.735V460.735H456.69H450.452L427.811 436.762L427.476 436.408L426.991 436.453L413.169 437.744L413.096 437.751L413.024 437.769L369.309 448.469L392.778 415.149L393.26 414.464L392.67 413.869L371.828 392.849C371.921 392.646 372.038 392.405 372.175 392.151C372.575 391.413 373.065 390.722 373.548 390.395C374.553 389.716 375.028 388.536 375.299 387.617C375.441 387.134 375.545 386.656 375.629 386.259L375.644 386.189C375.726 385.803 375.782 385.538 375.839 385.357L375.867 385.269L375.878 385.178C376.024 384.004 376.049 382.819 375.952 381.642C376.073 381.583 376.207 381.518 376.353 381.447C376.973 381.145 377.803 380.734 378.635 380.304C379.463 379.877 380.308 379.422 380.954 379.034C381.273 378.841 381.569 378.65 381.796 378.474C381.906 378.389 382.031 378.284 382.138 378.164C382.191 378.104 382.261 378.018 382.322 377.908C382.376 377.81 382.459 377.63 382.466 377.393C382.466 377.398 382.465 377.401 382.466 377.401C382.467 377.401 382.475 377.344 382.512 377.198C382.555 377.025 382.621 376.793 382.708 376.513C382.88 375.955 383.125 375.24 383.408 374.496C383.69 373.75 384.006 372.988 384.32 372.332C384.644 371.655 384.932 371.162 385.148 370.902C385.727 370.208 386.871 368.97 387.891 367.886C388.396 367.349 388.865 366.856 389.207 366.497C389.378 366.318 389.517 366.172 389.614 366.071L389.725 365.955L389.754 365.925L389.761 365.918L389.763 365.916L389.764 365.915L389.764 365.915L389.043 365.222L389.764 365.915L390.489 365.161L389.703 364.471L389.703 364.471L389.702 364.47L389.698 364.467L389.681 364.452L389.611 364.389C389.55 364.334 389.458 364.251 389.34 364.144C389.105 363.929 388.767 363.615 388.358 363.223C387.541 362.438 386.449 361.344 385.344 360.106C384.236 358.865 383.132 357.498 382.279 356.164C381.412 354.808 380.873 353.588 380.773 352.626L380.773 352.626C380.52 350.213 379.693 343.957 378.932 338.325C378.55 335.504 378.185 332.834 377.915 330.868C377.78 329.885 377.668 329.079 377.591 328.518L377.502 327.874L383.874 308.886L384.165 308.02L383.328 307.652L367.74 300.809L367.636 300.764L367.524 300.742L367.524 300.742L367.524 300.742L367.523 300.742L367.519 300.742L367.505 300.739L367.448 300.728C367.397 300.718 367.322 300.704 367.227 300.685C367.036 300.647 366.764 300.592 366.438 300.524C365.786 300.388 364.926 300.199 364.085 299.989C363.234 299.776 362.443 299.55 361.908 299.342C361.9 299.339 361.892 299.336 361.885 299.333C361.913 299.18 361.929 299.033 361.938 298.905C361.968 298.503 361.947 298.079 361.913 297.711C361.901 297.582 361.887 297.456 361.872 297.337L367.528 296.24L367.977 296.153L368.205 295.757L374.133 285.466L409.878 300.852L406.916 303.354L406.137 304.012L406.81 304.778L424.414 324.816L424.422 324.827L424.505 324.935L424.83 325.356C425.115 325.725 425.534 326.267 426.068 326.959C427.138 328.344 428.672 330.329 430.531 332.733C434.25 337.54 439.27 344.019 444.473 350.708C454.865 364.068 466.028 378.318 468.986 381.703C471.74 384.855 473.367 389.859 474.442 394.78C474.974 397.219 475.362 399.591 475.691 401.646C475.714 401.788 475.737 401.929 475.759 402.069C476.054 403.919 476.312 405.533 476.594 406.614C477.784 411.176 479.111 414.338 485.792 425.354L486.647 424.835L485.792 425.354C487.41 428.021 491.247 436.705 496.065 448.359C500.865 459.97 506.599 474.431 511.998 488.568C517.398 502.706 522.458 516.509 525.912 526.808C527.641 531.961 528.96 536.216 529.72 539.191C530.102 540.687 530.331 541.817 530.408 542.561C530.422 542.697 530.43 542.81 530.434 542.904C529.342 543.228 528.505 543.987 527.88 544.851C527.149 545.859 526.637 547.101 526.277 548.259C525.913 549.426 525.686 550.566 525.55 551.408C525.521 551.592 525.495 551.763 525.473 551.917H517.097L507.09 540.578C506.568 539.986 504.285 537.837 501.767 535.673C500.497 534.582 499.147 533.469 497.904 532.527C496.678 531.597 495.5 530.792 494.589 530.357ZM467.417 488.717C467.417 488.718 467.418 488.727 467.416 488.742C467.415 488.725 467.416 488.717 467.417 488.717ZM361.462 299.133C361.455 299.129 361.457 299.129 361.465 299.136C361.464 299.135 361.463 299.134 361.462 299.133ZM530.417 543.26C530.417 543.26 530.418 543.255 530.421 543.245C530.418 543.256 530.417 543.26 530.417 543.26ZM531.018 542.777C531.018 542.777 531.019 542.777 531.02 542.777L531.018 542.777Z" fill="#BFE2C8" stroke="white" stroke-width="2"/>
<path id="Vector_7" d="M103.443 232.705L103.443 232.705C109.194 230.687 114.348 224.429 114.348 210.571C114.348 203.777 114.51 193.466 114.671 184.848C114.752 180.54 114.833 176.657 114.894 173.851C114.9 173.56 114.906 173.28 114.912 173.013C115.281 173.473 115.717 173.945 116.229 174.405C118.765 176.679 123.037 178.532 129.992 177.443C136.699 176.393 148.661 174.245 158.936 172.361C164.075 171.419 168.797 170.542 172.233 169.901C173.951 169.58 175.348 169.318 176.316 169.137L177.431 168.927L177.534 168.908L221.583 186.572L214.59 201.521L214.244 202.262L214.901 202.749L284.89 254.556L285.624 255.099L286.232 254.417L297.459 241.803L328.87 243.001L329.416 243.022L329.729 242.573L366.277 190.061L395.905 211.826C395.834 211.992 395.754 212.183 395.665 212.393C395.335 213.179 394.894 214.242 394.452 215.347C394.011 216.45 393.566 217.605 393.229 218.57C393.061 219.052 392.916 219.499 392.812 219.875C392.718 220.215 392.625 220.605 392.625 220.919C392.625 221.306 392.616 221.662 392.607 222.03C392.587 222.808 392.566 223.637 392.626 224.911L392.626 224.912C392.641 225.229 392.538 226.024 392.294 227.189C392.06 228.309 391.719 229.666 391.319 231.04C390.918 232.416 390.463 233.793 390.003 234.96C389.532 236.154 389.09 237.034 388.739 237.483L389.528 238.098L388.739 237.483C388.555 237.72 388.366 238.076 388.185 238.451C387.992 238.85 387.769 239.354 387.524 239.94C387.032 241.114 386.433 242.654 385.768 244.427C384.437 247.974 382.833 252.482 381.287 256.913C379.74 261.345 378.249 265.705 377.145 268.957C376.593 270.583 376.138 271.932 375.821 272.874C375.662 273.346 375.538 273.715 375.453 273.967L375.357 274.255L375.332 274.329L375.33 274.336L375.326 274.347L375.324 274.352L375.324 274.353L371.289 285.701L367.062 294.033L359.556 295.411L358.643 295.578L358.743 296.502L359.125 300.028L310.805 297.218L310.162 297.18L309.862 297.751L287.86 339.588L263.975 330.698L263.501 330.522L263.078 330.799L253.989 336.754H204.596L191.137 327.275L190.878 327.092H190.561H188.116L186.64 247.931L186.623 247.011L185.703 246.952L123.838 243.013C123.835 242.662 123.828 242.228 123.812 241.734C123.767 240.403 123.652 238.619 123.369 236.836C123.09 235.073 122.634 233.222 121.861 231.811C121.087 230.396 119.846 229.189 117.988 229.329C116.483 229.442 114.789 230.134 113.164 231.013C111.517 231.904 109.838 233.045 108.343 234.159C106.845 235.274 105.513 236.376 104.556 237.197C104.077 237.608 103.692 237.951 103.424 238.191C103.291 238.311 103.187 238.405 103.116 238.47L103.035 238.545L103.013 238.565L103.008 238.57L103.006 238.572L103.005 238.572C103.005 238.572 103.005 238.573 103.687 239.304L103.005 238.573L102.989 238.587L102.974 238.602L100.516 241.099C100.453 240.279 100.421 239.289 100.491 238.27C100.578 237.01 100.816 235.767 101.297 234.761C101.769 233.773 102.451 233.052 103.443 232.705ZM376.272 274.671L372.21 286.096L376.272 274.671Z" fill="#BFE2C8" stroke="white" stroke-width="2"/>
<path id="Vector_8" d="M283.52 26.8247L283.523 26.829L283.567 26.9127L283.739 27.2401C283.891 27.5274 284.114 27.9497 284.4 28.4894C284.971 29.5687 285.793 31.1175 286.795 32.9945C288.799 36.7489 291.522 41.8157 294.401 47.0668C297.28 52.3191 300.313 57.7505 302.935 62.2359C305.576 66.7551 307.752 70.2257 308.933 71.6277C311.392 74.5468 330.34 93.6291 348.744 112.049C357.931 121.244 366.962 130.254 373.696 136.965C377.063 140.32 379.856 143.101 381.808 145.043C382.783 146.014 383.548 146.775 384.069 147.294L384.664 147.885L384.816 148.037L384.855 148.075L384.865 148.085L384.867 148.087C384.868 148.088 384.868 148.088 384.163 148.797L384.868 148.088L385.51 148.727L384.938 149.429L365.087 173.786L371.681 181.889L372.199 182.527L371.674 183.159L367.176 188.573L397.634 210.73L398.203 211.144L398.006 211.819L397.45 213.725L397.426 213.808L397.388 213.886C396.577 215.536 395.889 217.244 395.33 218.995C395.138 219.854 394.672 223.414 394.243 226.882C394.028 228.617 393.825 230.299 393.677 231.548C393.65 231.772 393.625 231.982 393.602 232.176C393.561 232.522 393.526 232.817 393.499 233.047L393.45 233.463L393.437 233.572L393.434 233.6L393.433 233.607L393.433 233.609L393.433 233.61C393.433 233.61 393.433 233.61 392.44 233.494M283.52 26.8247L497.244 49.1212C497.508 49.1999 497.824 49.2735 498.185 49.3576C499.709 49.7123 502.037 50.2544 504.662 52.1586C507.876 54.4911 511.555 58.9273 514.166 67.743C516.828 76.7282 519.088 83.9722 520.868 89.2292C521.758 91.8568 522.531 93.9976 523.176 95.6153C523.807 97.1961 524.354 98.3754 524.802 98.9985C524.935 99.1829 525.238 99.526 525.625 99.951C526.032 100.398 526.583 100.99 527.255 101.704C528.598 103.133 530.435 105.061 532.596 107.314C536.918 111.82 542.542 117.637 548.12 123.39C553.697 129.142 559.229 134.831 563.366 139.082C565.435 141.207 567.155 142.973 568.358 144.207L569.507 145.386L549.096 163.082H528.454H527.925L527.627 163.52L528.454 164.082C527.627 163.52 527.627 163.52 527.627 163.52L527.626 163.521L527.623 163.525L527.613 163.54L527.571 163.602L527.409 163.841C527.267 164.05 527.058 164.358 526.791 164.753C526.258 165.542 525.492 166.677 524.565 168.059C522.711 170.823 520.209 174.578 517.617 178.543C515.026 182.507 512.342 186.685 510.125 190.292C507.923 193.875 506.142 196.961 505.394 198.708L506.314 199.101L505.394 198.708C504.816 200.061 504.193 201.378 503.584 202.665C503.453 202.944 503.322 203.221 503.192 203.497C502.469 205.034 501.783 206.532 501.279 207.935C500.3 210.658 499.841 213.466 501.722 215.554C502.463 216.377 503.119 217.11 503.641 217.83C504.16 218.547 504.499 219.191 504.643 219.815C504.904 220.939 504.605 222.358 502.434 224.451C500.479 226.335 499.388 227.116 498.827 227.42L490.737 212.006L490.428 211.417L489.764 211.475L467.968 213.388L467.563 213.423L467.297 213.732L467.42 213.838C467.297 213.732 467.297 213.733 467.297 213.733L467.297 213.733L467.296 213.734L467.293 213.738L467.28 213.752L467.231 213.81C467.188 213.86 467.125 213.933 467.045 214.027C466.885 214.214 466.656 214.484 466.38 214.81C465.828 215.463 465.086 216.348 464.328 217.271C463.571 218.193 462.792 219.161 462.169 219.978C461.858 220.387 461.58 220.765 461.361 221.087C461.158 221.384 460.955 221.704 460.848 221.968C460.557 222.688 460.797 223.358 461.055 223.818C461.314 224.277 461.703 224.726 462.053 225.117C462.13 225.202 462.205 225.286 462.28 225.368C462.964 226.127 463.549 226.776 463.805 227.456C464.128 228.319 464.415 229.73 464.335 231.036C464.254 232.376 463.82 233.289 463.049 233.677C462.554 233.927 461.729 234.16 460.665 234.371C459.624 234.578 458.441 234.748 457.278 234.904C456.982 234.943 456.685 234.982 456.393 235.02C455.554 235.13 454.75 235.235 454.074 235.343C453.617 235.415 453.195 235.492 452.843 235.578C452.528 235.654 452.144 235.765 451.854 235.953C451.602 236.117 451.408 236.36 451.314 236.663C451.227 236.942 451.246 237.203 451.284 237.397C451.357 237.761 451.547 238.116 451.717 238.398C451.958 238.795 452.311 239.284 452.675 239.787C452.836 240.009 452.998 240.234 453.154 240.456C453.695 241.222 454.223 242.034 454.598 242.857C454.975 243.684 455.162 244.45 455.101 245.137L455.101 245.138C454.975 246.557 453.928 247.885 452.341 249.048C450.782 250.189 448.883 251.033 447.448 251.521C446.395 251.879 445.67 252.668 445.176 253.51C444.683 254.352 444.372 255.325 444.171 256.209C443.969 257.101 443.869 257.95 443.819 258.573C443.817 258.592 443.816 258.61 443.814 258.629H439.768H438.768V259.629V276.126H425.56H424.99L424.699 276.617L418.576 286.962L418.164 287.657L418.759 288.206L422.187 291.37L413.165 299.517L374.669 283.165L374.931 282.372C375.282 281.311 375.783 279.795 376.386 277.975C377.593 274.334 379.208 269.476 380.838 264.609C382.469 259.742 384.115 254.867 385.385 251.191C386.021 249.352 386.56 247.818 386.956 246.736C387.155 246.194 387.314 245.774 387.43 245.488C387.473 245.381 387.508 245.3 387.533 245.243C387.547 245.228 387.557 245.215 387.564 245.207C387.618 245.143 387.668 245.074 387.711 245.013C387.797 244.887 387.893 244.731 387.994 244.56C388.196 244.215 388.45 243.751 388.731 243.218C389.296 242.149 389.997 240.759 390.679 239.385C391.361 238.01 392.026 236.646 392.521 235.625C392.769 235.115 392.974 234.69 393.117 234.393L393.283 234.049L393.326 233.958L393.338 233.934L393.341 233.928L393.341 233.927L393.342 233.926C393.342 233.926 393.342 233.926 392.44 233.494M283.52 26.8247L277.518 13.7418C277.542 13.724 277.566 13.7056 277.591 13.6869C278.045 13.3444 278.706 12.8537 279.532 12.2642C281.185 11.0846 283.493 9.51293 286.115 7.9429C288.739 6.37129 291.66 4.81141 294.542 3.64694C297.436 2.47704 300.22 1.7356 302.59 1.7356C307.669 1.7356 320.441 2.23589 332.537 2.94205C338.581 3.29492 344.444 3.69847 349.08 4.11535C351.399 4.32386 353.403 4.53496 354.965 4.74367C356.563 4.95713 357.607 5.1571 358.072 5.32141C358.526 5.48215 359.313 5.91495 360.405 6.6239C361.472 7.31689 362.76 8.22696 364.19 9.28468C367.049 11.3991 370.443 14.077 373.714 16.7271C376.983 19.3758 380.123 21.9906 382.473 23.9759C383.648 24.9686 384.624 25.8028 385.32 26.4043C385.668 26.7054 385.943 26.9464 386.138 27.1191C386.235 27.2058 386.309 27.2726 386.36 27.3199C386.394 27.3511 386.409 27.3658 386.412 27.3686C386.485 27.4481 386.573 27.5219 386.612 27.5546L386.619 27.5604C386.69 27.6203 386.783 27.6953 386.892 27.7824C387.111 27.9574 387.416 28.1953 387.792 28.4858C388.545 29.0675 389.598 29.8697 390.854 30.8208C393.366 32.7236 396.7 35.2283 400.102 37.7706C406.886 42.8402 413.997 48.1016 415.351 48.997L415.903 48.1629L415.351 48.9971C415.582 49.1496 415.805 49.3183 416.076 49.5237C416.155 49.5833 416.237 49.6459 416.325 49.7121C416.705 49.9969 417.147 50.3182 417.695 50.6513C418.799 51.322 420.282 52.0108 422.545 52.6179C427.042 53.8245 434.658 54.7191 448.589 54.4979C462.553 54.2761 474.233 52.7531 482.721 51.3787C485.486 50.931 487.928 50.4962 489.988 50.1295C491.078 49.9354 492.061 49.7604 492.928 49.6128C494.192 49.3973 495.205 49.2405 495.971 49.1592C496.354 49.1186 496.657 49.0989 496.888 49.0979C497.002 49.0973 497.09 49.1015 497.155 49.1079C497.214 49.1138 497.241 49.1203 497.244 49.1211L283.52 26.8247ZM392.44 233.494L393.342 233.926L393.414 233.776L393.433 233.61L392.44 233.494ZM386.385 27.3379C386.386 27.3396 386.388 27.3413 386.389 27.343C386.388 27.3414 386.386 27.3397 386.385 27.3379ZM498.458 227.578C498.458 227.578 498.461 227.578 498.466 227.577C498.461 227.578 498.459 227.578 498.458 227.578Z" fill="#BFE2C8" stroke="white" stroke-width="2"/>
<path id="Vector_9" d="M140.631 173.531L140.593 173.539L140.556 173.549L140.556 173.549L140.556 173.549L140.554 173.55L140.545 173.553L140.504 173.564C140.467 173.574 140.412 173.59 140.34 173.609C140.194 173.649 139.979 173.706 139.702 173.777C139.149 173.92 138.35 174.116 137.376 174.33C135.425 174.758 132.783 175.256 130.003 175.539C127.213 175.824 124.335 175.886 121.893 175.472C119.425 175.053 117.595 174.182 116.632 172.774L115.807 173.339L116.632 172.774C115.652 171.343 115.396 169.115 115.726 166.357C116.051 163.639 116.92 160.605 117.953 157.741C118.984 154.884 120.164 152.236 121.087 150.299C121.549 149.332 121.945 148.544 122.226 148C122.366 147.728 122.477 147.516 122.553 147.374C122.574 147.335 122.592 147.301 122.607 147.272L133.561 135.641L161.347 111.366L228.764 54.3492L228.94 54.2004L229.033 53.9897L234.284 42.1027L245.105 40.9546L245.408 40.9225L245.641 40.7275L275.977 15.3787L276.576 16.5269C277.324 17.9617 278.395 20.0155 279.686 22.4918C282.27 27.4444 285.739 34.0871 289.276 40.8475C296.339 54.3448 303.711 68.3724 304.838 70.2817C305.037 70.619 305.538 71.2134 306.186 71.9435C306.868 72.7106 307.796 73.7184 308.933 74.9283C311.206 77.3492 314.33 80.5979 318.011 84.3861C325.374 91.9634 334.981 101.712 344.517 111.341C354.054 120.971 363.52 130.482 370.603 137.587C374.145 141.139 377.09 144.089 379.15 146.151C379.652 146.654 380.101 147.104 380.494 147.497C380.907 147.91 381.257 148.26 381.54 148.543L381.756 148.759L361.906 173.891L361.362 174.58L361.974 175.208L369.187 182.618L328.732 240.509L296.809 239.706L296.317 239.694L296.007 240.076L286.165 252.212L216.958 200.932L223.989 186.489L224.445 185.552L223.49 185.135L223.09 186.051C223.49 185.135 223.49 185.135 223.49 185.134L223.488 185.134L223.483 185.131L223.46 185.121L223.371 185.083L223.025 184.932C222.721 184.799 222.275 184.605 221.706 184.359C220.568 183.865 218.938 183.16 216.969 182.313C213.031 180.621 207.735 178.363 202.305 176.102C196.877 173.842 191.307 171.576 186.825 169.87C184.585 169.018 182.607 168.301 181.048 167.793C180.27 167.54 179.585 167.335 179.019 167.192C178.476 167.054 177.969 166.953 177.578 166.946C176.959 166.936 175.914 167.043 174.628 167.217C173.317 167.393 171.688 167.649 169.861 167.956C166.208 168.57 161.741 169.394 157.413 170.22C153.084 171.045 148.889 171.873 145.776 172.495C144.22 172.805 142.933 173.064 142.036 173.246C141.588 173.337 141.237 173.408 140.997 173.457L140.724 173.512L140.654 173.526L140.637 173.53L140.632 173.531L140.631 173.531C140.631 173.531 140.631 173.531 140.831 174.511L140.631 173.531Z" fill="#BFE2C8" stroke="white" stroke-width="2"/>
<path id="Vector_10" d="M482.73 417.449L483.543 416.866C484.357 418.002 485.784 420.842 487.623 424.81C489.483 428.821 491.808 434.088 494.426 440.165C499.664 452.322 506.086 467.745 512.319 482.903C518.552 498.062 524.599 512.961 529.087 524.069C531.331 529.623 533.186 534.23 534.479 537.449C535.126 539.058 535.632 540.32 535.977 541.18L536.371 542.161L536.471 542.412L536.479 542.432L541.228 550.687C541.561 550.337 541.975 549.903 542.451 549.401C543.762 548.022 545.547 546.136 547.447 544.108C551.259 540.04 555.491 535.444 557.295 533.213C559.254 530.789 561.113 529.459 564.758 528.029C567.326 527.021 570.849 525.938 576.002 524.354C577.987 523.743 580.214 523.059 582.721 522.275C591.657 519.483 595.57 516.384 597.835 513.339C598.985 511.794 599.741 510.224 600.517 508.583L600.585 508.439C601.333 506.859 602.116 505.203 603.289 503.595L604.097 504.184L603.289 503.595C604.383 502.096 606.679 498.014 609.565 492.625C612.434 487.27 615.842 480.708 619.143 474.313C620.227 472.214 621.299 470.133 622.337 468.119C624.458 464.002 626.435 460.165 628.069 457.03C629.285 454.697 630.314 452.746 631.074 451.354C631.453 450.66 631.77 450.096 632.012 449.691C632.131 449.49 632.24 449.315 632.333 449.18C632.378 449.112 632.429 449.042 632.481 448.978C632.514 448.938 632.617 448.811 632.77 448.709M482.73 417.449L633.322 449.543M482.73 417.449L483.543 416.866C480.698 412.9 479.611 408.029 478.455 402.479C478.419 402.306 478.383 402.133 478.347 401.959C477.234 396.603 476.009 390.711 472.921 384.87C471.322 381.843 467.159 375.958 461.882 368.905C456.585 361.823 450.109 353.49 443.831 345.529C437.553 337.568 431.47 329.976 426.956 324.374C424.699 321.573 422.835 319.269 421.534 317.666C420.884 316.864 420.375 316.237 420.028 315.811L419.633 315.325L419.531 315.2L419.506 315.169L419.499 315.161L419.498 315.159C419.497 315.158 419.497 315.158 418.722 315.79L419.497 315.158L419.477 315.134L419.456 315.111L409.375 304.197L412.166 302.162C412.242 302.208 412.324 302.258 412.413 302.312C412.94 302.631 413.701 303.087 414.641 303.64C416.522 304.744 419.122 306.234 421.999 307.771C424.874 309.308 428.034 310.898 431.035 312.201C434.019 313.497 436.906 314.537 439.215 314.935L439.215 314.936L439.224 314.937C445.183 315.906 451.194 316.522 457.225 316.784L458.093 316.822L458.251 315.967L457.268 315.785L458.251 315.967L458.251 315.967L458.251 315.966L458.252 315.962L458.255 315.947L458.266 315.885C458.277 315.831 458.292 315.751 458.311 315.649C458.35 315.444 458.406 315.151 458.475 314.795C458.614 314.084 458.806 313.126 459.016 312.139C459.227 311.15 459.456 310.142 459.668 309.325C459.774 308.915 459.874 308.565 459.963 308.295C460.007 308.16 460.046 308.054 460.078 307.974C460.108 307.901 460.124 307.873 460.124 307.873C460.124 307.873 460.124 307.873 460.124 307.873C460.331 307.547 460.642 306.866 460.967 306.137C461.085 305.874 461.208 305.595 461.337 305.305C461.588 304.737 461.858 304.128 462.135 303.518C462.554 302.598 462.976 301.711 463.352 301.022C463.541 300.676 463.708 300.4 463.848 300.201C463.967 300.032 464.027 299.976 464.028 299.972C464.5 299.69 465.33 299.29 466.087 298.942C466.43 298.784 466.747 298.642 466.99 298.535L472.321 301.812L472.864 302.146L473.396 301.794L472.845 300.96C473.396 301.794 473.396 301.794 473.397 301.794L473.397 301.794L473.399 301.793L473.405 301.789L473.426 301.775L473.504 301.722C473.572 301.676 473.671 301.609 473.797 301.522C474.049 301.347 474.412 301.092 474.857 300.768C475.745 300.12 476.965 299.192 478.293 298.072C480.924 295.851 484.07 292.796 485.836 289.611L485.836 289.611C487.567 286.486 488.828 282.64 489.653 279.613C490.068 278.092 490.376 276.763 490.581 275.813C490.597 275.741 490.612 275.67 490.626 275.602L514.264 287.822L514.419 287.902L514.592 287.925L537.903 291.01L564.74 319.318L565.115 319.713L565.65 319.613L580.87 316.769L581.322 316.684L581.552 316.285L590.538 300.692L591.619 314.032L591.68 314.779L592.415 314.93L614.748 319.523C614.832 319.664 614.938 319.844 615.059 320.057C615.381 320.624 615.807 321.42 616.226 322.338C617.083 324.216 617.835 326.447 617.742 328.249C617.717 328.738 617.883 329.267 618.077 329.738C618.284 330.241 618.582 330.815 618.946 331.438C619.676 332.687 620.717 334.215 621.952 335.907C624.425 339.295 627.733 343.411 631.036 347.385C634.342 351.361 637.653 355.208 640.137 358.059C641.379 359.485 642.415 360.663 643.14 361.484C643.503 361.895 643.788 362.216 643.983 362.436L644.205 362.686L644.262 362.75L644.277 362.766L644.281 362.77L644.281 362.771C644.282 362.772 644.282 362.772 645.028 362.106L644.282 362.772L644.486 363L644.782 363.075L644.783 363.076L644.786 363.076L644.799 363.08L644.853 363.094C644.901 363.106 644.972 363.125 645.063 363.149C645.245 363.198 645.507 363.27 645.822 363.361C646.453 363.544 647.291 363.802 648.129 364.105C648.975 364.411 649.781 364.749 650.367 365.084C650.663 365.253 650.862 365.399 650.978 365.511C650.999 365.532 651.015 365.548 651.026 365.562C651.078 366.213 651.05 366.878 651.016 367.673L651.015 367.694C650.98 368.521 650.943 369.46 651.016 370.532L651.016 370.532C651.113 371.927 652.003 373.04 652.812 373.763C653.232 374.137 653.671 374.445 654.061 374.671C654.425 374.883 654.826 375.072 655.164 375.139L655.165 375.14C655.452 375.197 655.993 375.211 656.506 375.218C657.069 375.224 657.748 375.22 658.398 375.211C659.018 375.203 659.618 375.19 660.076 375.18L662.494 386.871L648.076 391.731L647.252 392.009L647.412 392.863L648.395 392.679M482.73 417.449L648.395 392.679M632.77 448.709L633.322 449.543M632.77 448.709C632.77 448.709 632.769 448.709 632.769 448.709L633.322 449.543M632.77 448.709C633.085 448.5 633.479 448.409 633.781 448.357C634.118 448.299 634.506 448.267 634.907 448.249C635.712 448.215 636.662 448.238 637.555 448.282C638.453 448.327 639.315 448.393 639.95 448.449C640.099 448.461 640.235 448.474 640.356 448.485C640.41 448.49 640.461 448.495 640.508 448.499M633.322 449.543C634.375 448.845 640.9 449.543 640.9 449.543M640.508 448.499L640.171 448.858L640.9 449.543M640.508 448.499L659.571 428.211M640.508 448.499C640.585 448.507 640.655 448.513 640.715 448.519C640.77 448.525 640.819 448.529 640.859 448.533L640.929 448.541L640.986 448.546L641.001 448.548L641.005 448.548L641.006 448.549L641.006 448.549C641.006 448.549 641.006 448.549 640.9 449.543M640.9 449.543L659.571 428.211M659.571 428.211C659.674 428.345 659.765 428.462 659.84 428.559C659.923 428.664 659.987 428.747 660.031 428.803L660.081 428.867L660.094 428.883L660.097 428.888L660.098 428.889L660.098 428.889C660.098 428.889 660.098 428.889 660.885 428.272L660.156 427.587L659.571 428.211ZM659.571 428.211C659.449 428.053 659.31 427.872 659.155 427.671C658.584 426.927 657.809 425.907 656.999 424.808C656.188 423.71 655.338 422.527 654.615 421.458C653.904 420.406 653.279 419.408 652.956 418.7C652.771 418.296 652.558 417.577 652.334 416.72C652.103 415.833 651.837 414.713 651.553 413.45C650.984 410.921 650.334 407.79 649.721 404.743C649.108 401.694 648.531 398.725 648.107 396.517C647.895 395.414 647.721 394.5 647.601 393.863C647.54 393.544 647.493 393.294 647.461 393.124L647.425 392.93L647.415 392.88L647.413 392.867L647.412 392.864L647.412 392.863C647.412 392.863 647.412 392.863 648.395 392.679M659.571 428.211L648.395 392.679M651.054 365.598C651.054 365.597 651.053 365.596 651.052 365.594C651.054 365.597 651.055 365.598 651.054 365.598Z" fill="#BFE2C8" stroke="white" stroke-width="2"/>
<path id="Vector_11" d="M247.801 470.814C246.87 470.45 246.87 470.45 246.869 470.45L246.869 470.451L246.868 470.454L246.864 470.465L246.847 470.509L246.781 470.677C246.724 470.825 246.64 471.042 246.533 471.319C246.32 471.874 246.016 472.669 245.652 473.633C244.925 475.56 243.959 478.166 243.004 480.875C242.05 483.581 241.104 486.402 240.419 488.757C240.077 489.934 239.796 491.008 239.611 491.902C239.436 492.755 239.32 493.567 239.39 494.151C239.532 495.347 240.249 496.151 241.101 496.653C241.902 497.124 242.862 497.359 243.728 497.479C243.626 497.541 243.528 497.6 243.435 497.656C243.343 497.712 243.256 497.764 243.176 497.812C243.085 497.866 243.002 497.915 242.93 497.957C242.863 497.997 242.807 498.029 242.763 498.054C242.752 498.061 242.741 498.067 242.732 498.072C242.724 498.076 242.717 498.08 242.711 498.083L242.695 498.092L242.692 498.093C242.692 498.094 242.691 498.094 242.691 498.094C242.6 498.14 242.515 498.201 242.487 498.221L242.483 498.224C242.434 498.259 242.377 498.302 242.315 498.349C242.189 498.445 242.022 498.576 241.822 498.734C241.422 499.051 240.877 499.491 240.236 500.012C238.953 501.053 237.279 502.425 235.606 503.803C233.934 505.181 232.261 506.565 230.978 507.633C230.337 508.167 229.793 508.622 229.395 508.958C229.026 509.269 228.73 509.521 228.636 509.615C228.658 509.593 228.58 509.66 228.307 509.881C228.069 510.073 227.731 510.343 227.305 510.683C226.453 511.362 225.255 512.311 223.817 513.448C220.941 515.722 217.109 518.74 213.182 521.827C205.317 528.007 197.094 534.437 195.363 535.719L195.363 535.719C194.437 536.405 192.126 538.464 189.184 541.174C186.219 543.905 182.56 547.346 178.902 550.842C175.245 554.338 171.585 557.89 168.621 560.844C165.677 563.777 163.37 566.167 162.458 567.309L163.24 567.933L162.458 567.309C160.689 569.527 154.611 578.452 149.016 586.761C146.21 590.929 143.512 594.961 141.515 597.951C140.517 599.445 139.695 600.68 139.121 601.54C139.083 601.598 139.046 601.654 139.01 601.708C138.851 601.495 138.671 601.253 138.472 600.986C137.591 599.805 136.336 598.118 134.837 596.094C131.838 592.047 127.864 586.656 123.963 581.279C120.061 575.9 116.237 570.543 113.535 566.561C112.181 564.566 111.122 562.935 110.476 561.825C110.346 561.602 110.238 561.407 110.149 561.241C110.351 561.096 110.532 560.921 110.694 560.742C111.126 560.26 111.551 559.587 111.96 558.823C112.786 557.283 113.664 555.161 114.51 552.884C116.207 548.32 117.832 542.98 118.714 540.076C118.979 539.201 119.063 538.109 119.04 536.921C119.016 535.72 118.882 534.354 118.674 532.9C118.259 529.992 117.537 526.664 116.759 523.471C116 520.357 115.183 517.351 114.535 514.969L114.485 514.784C114.156 513.575 113.876 512.541 113.67 511.739C113.456 510.902 113.349 510.408 113.332 510.224C113.301 509.895 113.131 509.616 113.046 509.481C112.932 509.301 112.783 509.105 112.617 508.902C112.281 508.493 111.812 507.983 111.241 507.396C110.094 506.217 108.477 504.669 106.558 502.886C102.715 499.317 97.6173 494.774 92.5325 490.307C87.4462 485.838 82.3671 481.44 78.5599 478.159C76.6563 476.519 75.0704 475.157 73.9603 474.206C73.7264 474.006 73.5137 473.823 73.3235 473.661L103.727 457.221L103.886 457.135L104.004 456.999L112.552 447.206L121.344 452.223L122.018 452.607L122.558 452.05L130.916 443.42L133.408 447.492L134.076 448.584L134.974 447.671L147.324 435.109L147.53 435.058L148.892 434.724C150.066 434.435 151.745 434.023 153.761 433.526C157.794 432.533 163.181 431.204 168.596 429.859C174.01 428.514 179.453 427.153 183.598 426.096C185.67 425.568 187.421 425.115 188.683 424.778C189.313 424.61 189.826 424.469 190.198 424.362C190.383 424.309 190.54 424.261 190.662 424.222L190.671 424.219C190.75 424.193 190.922 424.138 191.053 424.063L191.054 424.062C191.23 423.961 191.401 423.801 191.509 423.697C191.646 423.567 191.807 423.401 191.985 423.212C192.342 422.831 192.797 422.323 193.309 421.737C194.336 420.563 195.619 419.049 196.87 417.555C198.123 416.061 199.347 414.582 200.258 413.478C200.714 412.926 201.092 412.467 201.355 412.146L201.661 411.773L201.741 411.675L201.762 411.65L201.767 411.644L201.768 411.642L201.769 411.641C201.769 411.641 201.769 411.641 200.995 411.008L201.769 411.641L202.42 410.846L201.607 410.217L191.493 402.393L190.625 395.874L188.708 329.365H190.253L203.384 338.179L203.637 338.349H203.941H254.522H254.793L255.027 338.212L254.522 337.349L255.027 338.212L255.028 338.212L255.029 338.211L255.034 338.208L255.054 338.196L255.132 338.151C255.201 338.111 255.301 338.052 255.43 337.977C255.687 337.827 256.056 337.614 256.499 337.359C257.386 336.848 258.572 336.171 259.769 335.505C260.97 334.837 262.171 334.185 263.094 333.722C263.559 333.489 263.933 333.314 264.193 333.209C264.209 333.202 264.224 333.196 264.238 333.191C264.266 333.202 264.295 333.214 264.325 333.226C264.529 333.309 264.81 333.418 265.153 333.549C265.84 333.811 266.795 334.168 267.925 334.585C270.186 335.42 273.16 336.503 276.118 337.576C279.077 338.648 282.022 339.711 284.227 340.506C285.33 340.903 286.248 341.233 286.89 341.464L287.635 341.732L287.832 341.803L287.882 341.821L287.895 341.826L287.898 341.827L287.899 341.827C287.899 341.827 287.899 341.827 288.237 340.886L287.899 341.827L288.698 342.114L289.111 341.372L312.102 300.057L357.172 301.804C356.921 302.192 356.633 302.635 356.325 303.1C355.321 304.618 354.144 306.329 353.361 307.261C352.869 307.846 351.621 309.14 350.107 310.71C349.155 311.696 348.098 312.792 347.057 313.89C345.727 315.292 344.436 316.685 343.475 317.811C342.996 318.371 342.583 318.883 342.286 319.306C342.138 319.516 342.004 319.725 341.903 319.92C341.823 320.074 341.68 320.371 341.681 320.71V320.711C341.683 321.103 341.749 321.575 341.813 322.019C341.821 322.076 341.829 322.132 341.838 322.189C341.899 322.608 341.962 323.043 342.006 323.498C342.107 324.546 342.085 325.546 341.754 326.362C341.624 326.684 341.244 327.195 340.569 327.867C339.921 328.513 339.087 329.223 338.172 329.948C336.542 331.237 334.712 332.522 333.309 333.507C333.135 333.629 332.969 333.746 332.809 333.858L332.809 333.858C331.396 334.854 326.894 337.795 322.259 340.728C317.606 343.671 312.915 346.544 311.091 347.434L311.091 347.434C308.609 348.647 308.293 351.37 308.417 353.314C308.483 354.335 308.675 355.282 308.847 355.967C308.906 356.201 308.963 356.406 309.013 356.576L301.193 366.307L300.973 366.581V366.933V376.463L300.386 378.213C300.376 378.223 300.364 378.234 300.353 378.246C300.302 378.296 300.242 378.354 300.174 378.421C299.928 378.664 299.578 379.014 299.16 379.445C298.324 380.305 297.211 381.494 296.109 382.801C295.01 384.103 293.901 385.546 293.088 386.915C292.681 387.599 292.334 388.287 292.103 388.947C291.874 389.596 291.733 390.286 291.81 390.946L291.81 390.947C292.014 392.7 292.172 395.642 292.199 398.312C292.212 399.645 292.193 400.891 292.132 401.875C292.102 402.367 292.062 402.779 292.014 403.096C291.99 403.254 291.966 403.377 291.943 403.469C291.932 403.512 291.923 403.542 291.916 403.562C291.915 403.567 291.913 403.572 291.912 403.576C291.898 403.591 291.843 403.653 291.706 403.76C291.519 403.904 291.253 404.077 290.899 404.281C290.347 404.601 289.661 404.956 288.865 405.367C288.638 405.485 288.401 405.607 288.156 405.735C285.996 406.858 283.291 408.327 281.071 410.249C278.91 412.121 276.149 414.927 273.946 417.244C272.841 418.407 271.869 419.455 271.173 420.211C270.825 420.59 270.547 420.896 270.354 421.107C270.258 421.213 270.184 421.295 270.133 421.351L270.076 421.415L270.061 421.431L270.057 421.435L270.056 421.437L270.056 421.437C270.056 421.437 270.056 421.437 270.799 422.106L270.056 421.437L269.882 421.63L269.824 421.882L269.824 421.883L269.824 421.883L269.823 421.886L269.821 421.898L269.81 421.944L269.771 422.116L269.634 422.712L269.253 424.373L269.253 424.373C269.253 424.372 269.253 424.372 269.253 424.373C269.251 424.379 269.241 424.413 269.212 424.485C269.181 424.563 269.136 424.664 269.076 424.79C268.956 425.042 268.789 425.362 268.579 425.745C268.204 426.433 267.715 427.288 267.159 428.258L266.966 428.595C265.705 430.799 264.161 433.513 262.972 436.006C261.8 438.465 257.779 447.065 254.054 455.043C252.191 459.033 250.401 462.871 249.077 465.71C248.415 467.13 247.869 468.3 247.489 469.116L247.049 470.059L246.934 470.307L246.905 470.37L246.897 470.386L246.895 470.39L246.895 470.391C246.895 470.391 246.895 470.392 247.801 470.814ZM247.801 470.814L246.87 470.45L246.881 470.42L246.895 470.392L247.801 470.814ZM109.851 560.594C109.851 560.594 109.853 560.598 109.854 560.606C109.852 560.598 109.851 560.594 109.851 560.594ZM263.766 332.952L263.767 332.952L263.766 332.952Z" fill="#BFE2C8" stroke="white" stroke-width="2"/>
</g>
</g>
</svg>
